<svg width="448" height="448" viewBox="0 0 448 448" fill="none" xmlns="http://www.w3.org/2000/svg"><path d="M224 448H223.91C183.799 448.006 144.425 437.226 109.91 416.79L101.73 411.94L62.5001 380.5L39.6202 351.53L34.3002 343.06C11.8482 307.367 -0.0434459 266.048 0.000211329 223.88C0.0502113 100.42 100.54 9.15527e-05 224.09 9.15527e-05C283.495 0.0239567 340.458 23.644 382.449 65.6647C424.439 107.685 448.019 164.665 448 224.07C448 347.54 347.46 448 224 448ZM346.87 280.28C340.14 276.92 307.03 260.63 300.87 258.38C294.71 256.13 290.21 255.01 285.72 261.75C281.23 268.49 268.32 283.66 264.39 288.15C260.46 292.64 256.54 293.2 249.8 289.83C243.06 286.46 221.37 279.36 195.65 256.42C175.65 238.57 162.12 216.53 158.19 209.79C154.26 203.05 157.77 199.4 161.14 196.05C164.14 193.05 167.88 188.19 171.24 184.25C174.6 180.31 175.73 177.51 177.98 173.02C180.23 168.53 179.1 164.6 177.42 161.23C175.74 157.86 162.27 124.72 156.65 111.23C151.19 98.1001 145.65 99.8801 141.5 99.6701C137.58 99.4801 133.09 99.4301 128.6 99.4301C125.18 99.5149 121.815 100.308 118.717 101.759C115.619 103.21 112.855 105.287 110.6 107.86C104.43 114.6 87.0302 130.86 87.0302 164.02C87.0302 197.18 111.16 229.16 114.53 233.65C117.9 238.14 162.01 306.14 229.53 335.3C242.093 340.712 254.934 345.452 268 349.5C284.13 354.62 298.81 353.9 310.42 352.17C323.35 350.24 350.26 335.88 355.87 320.17C361.48 304.46 361.48 290.97 359.8 288.17C358.12 285.37 353.62 283.68 346.89 280.3" fill="white"/></svg>
