<svg width="160" height="184" viewBox="0 0 160 184" fill="none" xmlns="http://www.w3.org/2000/svg">
<path d="M15.704 0.295998H19.4C20.68 0.295998 21.736 0.391998 22.568 0.584C23.432 0.775999 24.168 1.16 24.776 1.736C25.416 2.312 25.896 2.968 26.216 3.704C26.568 4.408 26.84 5.496 27.032 6.968C27.32 9.176 27.464 12.712 27.464 17.576V17.72C27.464 25.048 27.096 29.592 26.36 31.352C25.624 33.208 24.568 34.328 23.192 34.712C22.456 34.904 21.544 35 20.456 35H15.704V30.44H17.336C18.168 30.44 18.696 30.328 18.92 30.104C19.176 29.88 19.304 29.528 19.304 29.048V6.248C19.304 5.768 19.176 5.416 18.92 5.192C18.696 4.968 18.168 4.856 17.336 4.856H15.704V0.295998ZM13.784 4.856H12.152C11.32 4.856 10.776 4.968 10.52 5.192C10.296 5.416 10.184 5.768 10.184 6.248V29.048C10.184 29.528 10.296 29.88 10.52 30.104C10.776 30.328 11.32 30.44 12.152 30.44H13.784V35H9.032C6.632 35 4.888 34.264 3.8 32.792C2.904 31.608 2.36 28.888 2.168 24.632C2.072 22.968 2.024 20.664 2.024 17.72V17.576C2.024 10.056 2.424 5.432 3.224 3.704C3.576 2.968 4.056 2.312 4.664 1.736C5.304 1.16 6.04 0.775999 6.872 0.584C7.736 0.391998 8.808 0.295998 10.088 0.295998H13.784V4.856ZM40.532 0.295998H45.572C46.66 0.295998 47.364 0.471998 47.684 0.823999C48.036 1.176 48.212 1.912 48.212 3.032V29.48H52.1C52.58 29.48 52.9 29.544 53.06 29.672C53.22 29.8 53.3 30.04 53.3 30.392V35H42.26C41.748 35 41.332 34.84 41.012 34.52C40.692 34.168 40.532 33.704 40.532 33.128V0.295998ZM39.092 35H32.132V30.392C32.132 30.04 32.212 29.8 32.372 29.672C32.532 29.544 32.852 29.48 33.332 29.48H39.092V35ZM39.092 5.816H33.812C33.012 5.816 32.612 5.368 32.612 4.472V0.295998H39.092V5.816ZM3.12 107H3.08C1.76 107 0.946667 106.773 0.64 106.32C0.493333 106.107 0.373333 105.9 0.28 105.7C0.2 105.5 0.146667 105.187 0.12 104.76C0.0533334 103.987 0.0200001 103.127 0.0200001 102.18C0.0200001 101.233 0.0266667 100.553 0.04 100.14C0.0533334 99.7133 0.0933334 99.2867 0.16 98.86C0.24 98.42 0.34 98.1067 0.46 97.92C0.58 97.72 0.76 97.54 1 97.38C1.24 97.22 1.52 97.12 1.84 97.08C2.16 97.0267 2.57333 97 3.08 97H3.12V107ZM5.44 103.84C6.33333 103.84 7.01333 103.84 7.48 103.84C7.94667 103.84 8.18667 103.847 8.2 103.86C8.21333 103.86 8.23333 103.867 8.26 103.88C8.3 103.88 8.32667 103.887 8.34 103.9C8.35333 103.913 8.36667 103.933 8.38 103.96C8.39333 103.973 8.4 104 8.4 104.04C8.42667 104.133 8.44 104.207 8.44 104.26V104.86C8.44 106.287 7.71333 107 6.26 107H3.74V105.5H4.82C5.1 105.5 5.27333 105.46 5.34 105.38C5.40667 105.287 5.44 105.127 5.44 104.9V103.84ZM3.74 97H6.26C7.71333 97 8.44 97.7133 8.44 99.14V100.5C7.54667 100.5 6.86667 100.5 6.4 100.5C5.93333 100.5 5.69333 100.5 5.68 100.5C5.66667 100.487 5.64 100.48 5.6 100.48C5.57333 100.467 5.55333 100.453 5.54 100.44C5.52667 100.427 5.51333 100.413 5.5 100.4C5.48667 100.373 5.48 100.347 5.48 100.32C5.45333 100.213 5.44 100.133 5.44 100.08V99.1C5.44 98.8733 5.40667 98.72 5.34 98.64C5.27333 98.5467 5.1 98.5 4.82 98.5H3.74V97ZM12.593 97H14.993C15.073 97 15.113 97.0467 15.113 97.14V98.36C15.113 98.4533 15.0596 98.5 14.953 98.5H14.053C13.733 98.5 13.5463 98.56 13.493 98.68C13.4396 98.8533 13.413 99.0467 13.413 99.26V105.46C13.413 105.913 13.2596 106.287 12.953 106.58C12.6596 106.86 12.2196 107 11.633 107H10.413V99.22C10.413 98.4333 10.5863 97.8667 10.933 97.52C11.293 97.1733 11.8463 97 12.593 97ZM19.6044 107H19.5644C18.2444 107 17.431 106.773 17.1244 106.32C16.9777 106.107 16.8577 105.9 16.7644 105.7C16.6844 105.5 16.631 105.187 16.6044 104.76C16.5377 103.987 16.5044 103.127 16.5044 102.18C16.5044 101.233 16.511 100.553 16.5244 100.14C16.5377 99.7133 16.5777 99.2867 16.6444 98.86C16.7244 98.42 16.8244 98.1067 16.9444 97.92C17.0644 97.72 17.2444 97.54 17.4844 97.38C17.7244 97.22 18.0044 97.12 18.3244 97.08C18.6444 97.0267 19.0577 97 19.5644 97H19.6044V107ZM24.9244 103.84V104.86C24.9244 106.287 24.1977 107 22.7444 107H20.2244V105.5H21.3044C21.5844 105.5 21.7577 105.46 21.8244 105.38C21.891 105.287 21.9244 105.127 21.9244 104.9V104.26C21.9244 104.06 21.9444 103.947 21.9844 103.92C22.0377 103.893 22.071 103.88 22.0844 103.88C22.0977 103.867 22.131 103.86 22.1844 103.86C22.251 103.847 22.2977 103.84 22.3244 103.84C23.191 103.84 24.0577 103.84 24.9244 103.84ZM20.2244 97H22.5444C23.4644 97 24.091 97.18 24.4244 97.54C24.7577 97.9 24.9244 98.4333 24.9244 99.14V100.9C24.9244 102.1 24.271 102.7 22.9644 102.7H20.0244V101.2H21.1044C21.4244 101.2 21.6377 101.16 21.7444 101.08C21.8644 101 21.9244 100.847 21.9244 100.62V99.1C21.9244 98.8733 21.891 98.72 21.8244 98.64C21.7577 98.5467 21.5844 98.5 21.3044 98.5H20.2244V97ZM31.895 98.5H30.815C30.4017 98.5 30.1683 98.5733 30.115 98.72C30.035 98.8933 29.995 99.14 29.995 99.46V104.54C29.995 104.567 29.995 104.647 29.995 104.78C29.995 104.913 30.0083 105.027 30.035 105.12C30.0883 105.373 30.3483 105.5 30.815 105.5H31.895V107H29.955C29.4483 107 29.035 106.98 28.715 106.94C28.395 106.887 28.115 106.78 27.875 106.62C27.635 106.46 27.455 106.287 27.335 106.1C27.215 105.9 27.115 105.587 27.035 105.16C26.9417 104.56 26.895 103.72 26.895 102.64C26.895 101.56 26.9017 100.833 26.915 100.46C26.9283 100.073 26.9483 99.6667 26.975 99.24C27.015 98.8133 27.075 98.5 27.155 98.3C27.2483 98.1 27.3617 97.9 27.495 97.7C27.6417 97.4867 27.8283 97.34 28.055 97.26C28.5483 97.0867 29.1817 97 29.955 97H31.895V98.5ZM36.395 106.86C36.395 106.953 36.3683 107 36.315 107H34.675C33.9283 107 33.375 106.827 33.015 106.48C32.6683 106.133 32.495 105.567 32.495 104.78V97H33.315C34.155 97 34.7283 97.2 35.035 97.6C35.3417 97.9867 35.495 98.5 35.495 99.14V104.74C35.495 105.153 35.5817 105.387 35.755 105.44C35.8483 105.48 35.975 105.5 36.135 105.5H36.235C36.3417 105.5 36.395 105.547 36.395 105.64V106.86ZM43.0525 106.84C43.0525 106.92 43.0125 106.973 42.9325 107H41.4125C40.4392 107 39.7325 106.807 39.2925 106.42C38.8525 106.033 38.6325 105.353 38.6325 104.38V98.54H37.6125C37.2792 98.54 37.1125 98.34 37.1125 97.94V97H38.6325V92.54H39.8525C40.4392 92.54 40.8792 92.6867 41.1725 92.98C41.4792 93.2733 41.6325 93.6467 41.6325 94.1V104.74C41.6325 105.233 41.9125 105.48 42.4725 105.48H42.8925C42.9992 105.48 43.0525 105.527 43.0525 105.62V106.84ZM43.6725 97V97.94C43.6725 98.34 43.5058 98.54 43.1725 98.54H42.1325V97H43.6725ZM44.9842 97.02H46.2042C46.7909 97.02 47.2309 97.1667 47.5242 97.46C47.8309 97.74 47.9842 98.1067 47.9842 98.56V107H45.7042C45.4909 107 45.3176 106.927 45.1842 106.78C45.0509 106.633 44.9842 106.44 44.9842 106.2V97.02ZM45.1242 92.76C45.2709 92.6133 45.6976 92.54 46.4042 92.54C47.1109 92.54 47.5376 92.6133 47.6842 92.76C47.8309 92.8933 47.9042 93.2933 47.9042 93.96C47.9042 94.6267 47.8242 95.0333 47.6642 95.18C47.5176 95.3267 47.0976 95.4 46.4042 95.4C45.7109 95.4 45.2842 95.3267 45.1242 95.18C44.9776 95.0333 44.9042 94.6267 44.9042 93.96C44.9042 93.2933 44.9776 92.8933 45.1242 92.76ZM53.7772 97H56.5772C58.0305 97 58.7572 97.7133 58.7572 99.14V107H56.4772C56.2639 107 56.0905 106.927 55.9572 106.78C55.8239 106.633 55.7572 106.44 55.7572 106.2V99.1C55.7572 98.8867 55.7039 98.7333 55.5972 98.64C55.5039 98.5467 55.2839 98.5 54.9372 98.5H53.7772V97ZM50.2772 97H51.4972C52.0839 97 52.5239 97.1467 52.8172 97.44C53.1239 97.72 53.2772 98.0867 53.2772 98.54V107H50.9972C50.7839 107 50.6105 106.927 50.4772 106.78C50.3439 106.633 50.2772 106.44 50.2772 106.2V97ZM65.8989 98.5H64.8189C64.4722 98.5 64.2456 98.5467 64.1389 98.64C64.0456 98.7333 63.9989 98.8867 63.9989 99.1V104.92C63.9989 105.12 64.0456 105.267 64.1389 105.36C64.2456 105.453 64.4722 105.5 64.8189 105.5H65.8989V107H63.9589C63.4522 107 63.0389 106.98 62.7189 106.94C62.3989 106.887 62.1189 106.78 61.8789 106.62C61.6389 106.46 61.4589 106.287 61.3389 106.1C61.2189 105.9 61.1189 105.587 61.0389 105.16C60.9456 104.56 60.8989 103.72 60.8989 102.64C60.8989 101.56 60.9056 100.833 60.9189 100.46C60.9322 100.073 60.9522 99.6667 60.9789 99.24C61.0189 98.8133 61.0789 98.5 61.1589 98.3C61.2522 98.1 61.3656 97.9 61.4989 97.7C61.6456 97.4867 61.8322 97.34 62.0589 97.26C62.5522 97.0867 63.1856 97 63.9589 97H65.8989V98.5ZM64.1989 108.28V109.34C64.1989 109.567 64.2322 109.72 64.2989 109.8C64.3656 109.893 64.5389 109.94 64.8189 109.94H65.8989V111.44H63.3789C61.9256 111.44 61.1989 110.727 61.1989 109.3V108.7C61.1989 108.5 61.2189 108.387 61.2589 108.36C61.3122 108.333 61.3456 108.313 61.3589 108.3C61.3722 108.3 61.4056 108.293 61.4589 108.28C61.5256 108.28 61.5722 108.28 61.5989 108.28C62.4656 108.28 63.3322 108.28 64.1989 108.28ZM66.4989 97H67.7189C68.3056 97 68.7456 97.1467 69.0389 97.44C69.3456 97.72 69.4989 98.0867 69.4989 98.54V109.92C69.4989 110.373 69.3456 110.74 69.0389 111.02C68.7456 111.313 68.3056 111.46 67.7189 111.46H66.4989V97ZM80.7817 98.5H79.7017C79.2884 98.5 79.0551 98.5733 79.0017 98.72C78.9217 98.8933 78.8817 99.14 78.8817 99.46V104.54C78.8817 104.567 78.8817 104.647 78.8817 104.78C78.8817 104.913 78.8951 105.027 78.9217 105.12C78.9751 105.373 79.2351 105.5 79.7017 105.5H80.7817V107H78.8417C78.3351 107 77.9217 106.98 77.6017 106.94C77.2817 106.887 77.0017 106.78 76.7617 106.62C76.5217 106.46 76.3417 106.287 76.2217 106.1C76.1017 105.9 76.0017 105.587 75.9217 105.16C75.8284 104.56 75.7817 103.72 75.7817 102.64C75.7817 101.56 75.7884 100.833 75.8017 100.46C75.8151 100.073 75.8351 99.6667 75.8617 99.24C75.9017 98.8133 75.9617 98.5 76.0417 98.3C76.1351 98.1 76.2484 97.9 76.3817 97.7C76.5284 97.4867 76.7151 97.34 76.9417 97.26C77.4351 97.0867 78.0684 97 78.8417 97H80.7817V98.5ZM85.2817 106.86C85.2817 106.953 85.2551 107 85.2017 107H83.5617C82.8151 107 82.2617 106.827 81.9017 106.48C81.5551 106.133 81.3817 105.567 81.3817 104.78V97H82.2017C83.0417 97 83.6151 97.2 83.9217 97.6C84.2284 97.9867 84.3817 98.5 84.3817 99.14V104.74C84.3817 105.153 84.4684 105.387 84.6417 105.44C84.7351 105.48 84.8617 105.5 85.0217 105.5H85.1217C85.2284 105.5 85.2817 105.547 85.2817 105.64V106.86ZM96.3603 97H98.6403C98.8536 97 99.027 97.0733 99.1603 97.22C99.2936 97.3667 99.3603 97.56 99.3603 97.8V104.9C99.3603 105.113 99.407 105.267 99.5003 105.36C99.607 105.453 99.8336 105.5 100.18 105.5H101.26V107H98.5403C97.087 107 96.3603 106.287 96.3603 104.86V97ZM90.9403 97H93.2203C93.4336 97 93.607 97.0733 93.7403 97.22C93.8736 97.3667 93.9403 97.56 93.9403 97.8V104.9C93.9403 105.113 93.987 105.267 94.0803 105.36C94.187 105.453 94.4136 105.5 94.7603 105.5H95.8403V107H93.1203C91.667 107 90.9403 106.287 90.9403 104.86V97ZM101.86 97H104.14C104.354 97 104.527 97.0733 104.66 97.22C104.794 97.3667 104.86 97.56 104.86 97.8V105.46C104.86 105.913 104.707 106.287 104.4 106.58C104.107 106.86 103.667 107 103.08 107H101.86V97ZM110.093 107H110.053C108.733 107 107.919 106.773 107.613 106.32C107.466 106.107 107.346 105.9 107.253 105.7C107.173 105.5 107.119 105.187 107.093 104.76C107.026 103.987 106.993 103.127 106.993 102.18C106.993 101.233 106.999 100.553 107.013 100.14C107.026 99.7133 107.066 99.2867 107.133 98.86C107.213 98.42 107.313 98.1067 107.433 97.92C107.553 97.72 107.733 97.54 107.973 97.38C108.213 97.22 108.493 97.12 108.813 97.08C109.133 97.0267 109.546 97 110.053 97H110.093V107ZM115.413 103.84V104.86C115.413 106.287 114.686 107 113.233 107H110.713V105.5H111.793C112.073 105.5 112.246 105.46 112.313 105.38C112.379 105.287 112.413 105.127 112.413 104.9V104.26C112.413 104.06 112.433 103.947 112.473 103.92C112.526 103.893 112.559 103.88 112.573 103.88C112.586 103.867 112.619 103.86 112.673 103.86C112.739 103.847 112.786 103.84 112.813 103.84C113.679 103.84 114.546 103.84 115.413 103.84ZM110.713 97H113.033C113.953 97 114.579 97.18 114.913 97.54C115.246 97.9 115.413 98.4333 115.413 99.14V100.9C115.413 102.1 114.759 102.7 113.453 102.7H110.513V101.2H111.593C111.913 101.2 112.126 101.16 112.233 101.08C112.353 101 112.413 100.847 112.413 100.62V99.1C112.413 98.8733 112.379 98.72 112.313 98.64C112.246 98.5467 112.073 98.5 111.793 98.5H110.713V97ZM120.503 107H119.283C118.697 107 118.25 106.86 117.943 106.58C117.65 106.287 117.503 105.913 117.503 105.46V94.08C117.503 93.6267 117.65 93.26 117.943 92.98C118.25 92.6867 118.697 92.54 119.283 92.54H120.503V107ZM121.103 97H123.043C123.55 97 123.963 97.0267 124.283 97.08C124.603 97.12 124.883 97.22 125.123 97.38C125.363 97.54 125.543 97.72 125.663 97.92C125.783 98.1067 125.883 98.4133 125.963 98.84C126.057 99.44 126.103 100.28 126.103 101.36C126.103 102.44 126.097 103.173 126.083 103.56C126.07 103.933 126.043 104.333 126.003 104.76C125.977 105.187 125.917 105.5 125.823 105.7C125.743 105.9 125.63 106.107 125.483 106.32C125.35 106.52 125.17 106.66 124.943 106.74C124.45 106.913 123.817 107 123.043 107H121.103V105.5H122.183C122.53 105.5 122.75 105.453 122.843 105.36C122.95 105.267 123.003 105.12 123.003 104.92V99.1C123.003 98.8867 122.95 98.7333 122.843 98.64C122.75 98.5467 122.53 98.5 122.183 98.5H121.103V97ZM131.025 97V100.66C131.025 100.887 131.058 101.047 131.125 101.14C131.192 101.22 131.365 101.26 131.645 101.26H132.765V102.76H130.205C128.752 102.76 128.025 102.047 128.025 100.62V99.22C128.025 98.34 128.245 97.7533 128.685 97.46C129.138 97.1533 129.918 97 131.025 97ZM131.065 103.84V104.9C131.065 105.127 131.098 105.287 131.165 105.38C131.232 105.46 131.405 105.5 131.685 105.5H132.765V107H130.245C128.792 107 128.065 106.287 128.065 104.86V104.26C128.065 104.06 128.085 103.947 128.125 103.92C128.178 103.893 128.212 103.88 128.225 103.88C128.238 103.867 128.272 103.86 128.325 103.86C128.392 103.847 128.432 103.84 128.445 103.84C129.325 103.84 130.198 103.84 131.065 103.84ZM133.365 101.26H134.185C135.638 101.26 136.365 101.973 136.365 103.4V104.78C136.365 105.66 136.138 106.253 135.685 106.56C135.245 106.853 134.472 107 133.365 107V101.26ZM131.625 97H134.145C135.598 97 136.325 97.7133 136.325 99.14V100.18C135.432 100.18 134.752 100.18 134.285 100.18C133.818 100.18 133.578 100.18 133.565 100.18C133.552 100.167 133.525 100.16 133.485 100.16C133.458 100.147 133.438 100.133 133.425 100.12C133.412 100.107 133.398 100.093 133.385 100.08C133.372 100.053 133.365 100.027 133.365 100C133.338 99.8933 133.325 99.8133 133.325 99.76V99.1C133.325 98.8733 133.292 98.72 133.225 98.64C133.158 98.5467 132.985 98.5 132.705 98.5H131.625V97ZM138.422 97.02H139.642C140.228 97.02 140.668 97.1667 140.962 97.46C141.268 97.74 141.422 98.1067 141.422 98.56V107H139.142C138.928 107 138.755 106.927 138.622 106.78C138.488 106.633 138.422 106.44 138.422 106.2V97.02ZM138.562 92.76C138.708 92.6133 139.135 92.54 139.842 92.54C140.548 92.54 140.975 92.6133 141.122 92.76C141.268 92.8933 141.342 93.2933 141.342 93.96C141.342 94.6267 141.262 95.0333 141.102 95.18C140.955 95.3267 140.535 95.4 139.842 95.4C139.148 95.4 138.722 95.3267 138.562 95.18C138.415 95.0333 138.342 94.6267 138.342 93.96C138.342 93.2933 138.415 92.8933 138.562 92.76ZM148.795 106.84C148.795 106.92 148.755 106.973 148.675 107H147.155C146.181 107 145.475 106.807 145.035 106.42C144.595 106.033 144.375 105.353 144.375 104.38V98.54H143.355C143.021 98.54 142.855 98.34 142.855 97.94V97H144.375V92.54H145.595C146.181 92.54 146.621 92.6867 146.915 92.98C147.221 93.2733 147.375 93.6467 147.375 94.1V104.74C147.375 105.233 147.655 105.48 148.215 105.48H148.635C148.741 105.48 148.795 105.527 148.795 105.62V106.84ZM149.415 97V97.94C149.415 98.34 149.248 98.54 148.915 98.54H147.875V97H149.415ZM153.686 107H153.646C152.326 107 151.513 106.773 151.206 106.32C151.06 106.107 150.94 105.9 150.846 105.7C150.766 105.5 150.713 105.187 150.686 104.76C150.62 103.987 150.586 103.127 150.586 102.18C150.586 101.233 150.593 100.553 150.606 100.14C150.62 99.7133 150.66 99.2867 150.726 98.86C150.806 98.42 150.906 98.1067 151.026 97.92C151.146 97.72 151.326 97.54 151.566 97.38C151.806 97.22 152.086 97.12 152.406 97.08C152.726 97.0267 153.14 97 153.646 97H153.686V107ZM159.006 103.84V104.86C159.006 106.287 158.28 107 156.826 107H154.306V105.5H155.386C155.666 105.5 155.84 105.46 155.906 105.38C155.973 105.287 156.006 105.127 156.006 104.9V104.26C156.006 104.06 156.026 103.947 156.066 103.92C156.12 103.893 156.153 103.88 156.166 103.88C156.18 103.867 156.213 103.86 156.266 103.86C156.333 103.847 156.38 103.84 156.406 103.84C157.273 103.84 158.14 103.84 159.006 103.84ZM154.306 97H156.626C157.546 97 158.173 97.18 158.506 97.54C158.84 97.9 159.006 98.4333 159.006 99.14V100.9C159.006 102.1 158.353 102.7 157.046 102.7H154.106V101.2H155.186C155.506 101.2 155.72 101.16 155.826 101.08C155.946 101 156.006 100.847 156.006 100.62V99.1C156.006 98.8733 155.973 98.72 155.906 98.64C155.84 98.5467 155.666 98.5 155.386 98.5H154.306V97ZM5.02 122.5H3.94C3.52667 122.5 3.29333 122.573 3.24 122.72C3.16 122.893 3.12 123.14 3.12 123.46V128.54C3.12 128.567 3.12 128.647 3.12 128.78C3.12 128.913 3.13333 129.027 3.16 129.12C3.21333 129.373 3.47333 129.5 3.94 129.5H5.02V131H3.08C2.57333 131 2.16 130.98 1.84 130.94C1.52 130.887 1.24 130.78 1 130.62C0.76 130.46 0.58 130.287 0.46 130.1C0.34 129.9 0.24 129.587 0.16 129.16C0.0666667 128.56 0.0200001 127.72 0.0200001 126.64C0.0200001 125.56 0.0266667 124.833 0.04 124.46C0.0533334 124.073 0.0733334 123.667 0.1 123.24C0.14 122.813 0.2 122.5 0.28 122.3C0.373333 122.1 0.486667 121.9 0.62 121.7C0.766667 121.487 0.953333 121.34 1.18 121.26C1.67333 121.087 2.30667 121 3.08 121H5.02V122.5ZM9.52 130.86C9.52 130.953 9.49333 131 9.44 131H7.8C7.05333 131 6.5 130.827 6.14 130.48C5.79333 130.133 5.62 129.567 5.62 128.78V121H6.44C7.28 121 7.85333 121.2 8.16 121.6C8.46667 121.987 8.62 122.5 8.62 123.14V128.74C8.62 129.153 8.70667 129.387 8.88 129.44C8.97333 129.48 9.1 129.5 9.26 129.5H9.36C9.46667 129.5 9.52 129.547 9.52 129.64V130.86ZM14.0575 131H14.0175C12.6975 131 11.8842 130.773 11.5775 130.32C11.4308 130.107 11.3108 129.9 11.2175 129.7C11.1375 129.5 11.0842 129.187 11.0575 128.76C10.9908 127.987 10.9575 127.127 10.9575 126.18C10.9575 125.233 10.9642 124.553 10.9775 124.14C10.9908 123.713 11.0308 123.287 11.0975 122.86C11.1775 122.42 11.2775 122.107 11.3975 121.92C11.5175 121.72 11.6975 121.54 11.9375 121.38C12.1775 121.22 12.4575 121.12 12.7775 121.08C13.0975 121.027 13.5108 121 14.0175 121H14.0575V131ZM16.3775 127.84C17.2708 127.84 17.9508 127.84 18.4175 127.84C18.8842 127.84 19.1242 127.847 19.1375 127.86C19.1508 127.86 19.1708 127.867 19.1975 127.88C19.2375 127.88 19.2642 127.887 19.2775 127.9C19.2908 127.913 19.3042 127.933 19.3175 127.96C19.3308 127.973 19.3375 128 19.3375 128.04C19.3642 128.133 19.3775 128.207 19.3775 128.26V128.86C19.3775 130.287 18.6508 131 17.1975 131H14.6775V129.5H15.7575C16.0375 129.5 16.2108 129.46 16.2775 129.38C16.3442 129.287 16.3775 129.127 16.3775 128.9V127.84ZM14.6775 121H17.1975C18.6508 121 19.3775 121.713 19.3775 123.14V124.5C18.4842 124.5 17.8042 124.5 17.3375 124.5C16.8708 124.5 16.6308 124.5 16.6175 124.5C16.6042 124.487 16.5775 124.48 16.5375 124.48C16.5108 124.467 16.4908 124.453 16.4775 124.44C16.4642 124.427 16.4508 124.413 16.4375 124.4C16.4242 124.373 16.4175 124.347 16.4175 124.32C16.3908 124.213 16.3775 124.133 16.3775 124.08V123.1C16.3775 122.873 16.3442 122.72 16.2775 122.64C16.2108 122.547 16.0375 122.5 15.7575 122.5H14.6775V121ZM24.3505 131H24.3105C22.9905 131 22.1771 130.773 21.8705 130.32C21.7238 130.107 21.6038 129.9 21.5105 129.7C21.4305 129.5 21.3771 129.187 21.3505 128.76C21.2838 127.987 21.2505 127.127 21.2505 126.18C21.2505 125.233 21.2571 124.553 21.2705 124.14C21.2838 123.713 21.3238 123.287 21.3905 122.86C21.4705 122.42 21.5705 122.107 21.6905 121.92C21.8105 121.72 21.9905 121.54 22.2305 121.38C22.4705 121.22 22.7505 121.12 23.0705 121.08C23.3905 121.027 23.8038 121 24.3105 121H24.3505V131ZM26.6705 127.84C27.5638 127.84 28.2438 127.84 28.7105 127.84C29.1771 127.84 29.4171 127.847 29.4305 127.86C29.4438 127.86 29.4638 127.867 29.4905 127.88C29.5305 127.88 29.5571 127.887 29.5705 127.9C29.5838 127.913 29.5971 127.933 29.6105 127.96C29.6238 127.973 29.6305 128 29.6305 128.04C29.6571 128.133 29.6705 128.207 29.6705 128.26V128.86C29.6705 130.287 28.9438 131 27.4905 131H24.9705V129.5H26.0505C26.3305 129.5 26.5038 129.46 26.5705 129.38C26.6371 129.287 26.6705 129.127 26.6705 128.9V127.84ZM24.9705 121H27.4905C28.9438 121 29.6705 121.713 29.6705 123.14V124.5C28.7771 124.5 28.0971 124.5 27.6305 124.5C27.1638 124.5 26.9238 124.5 26.9105 124.5C26.8971 124.487 26.8705 124.48 26.8305 124.48C26.8038 124.467 26.7838 124.453 26.7705 124.44C26.7571 124.427 26.7438 124.413 26.7305 124.4C26.7171 124.373 26.7105 124.347 26.7105 124.32C26.6838 124.213 26.6705 124.133 26.6705 124.08V123.1C26.6705 122.873 26.6371 122.72 26.5705 122.64C26.5038 122.547 26.3305 122.5 26.0505 122.5H24.9705V121ZM35.2434 121H37.1834C37.6901 121 38.1034 121.027 38.4234 121.08C38.7434 121.12 39.0234 121.22 39.2634 121.38C39.5034 121.54 39.6834 121.72 39.8034 121.92C39.9234 122.107 40.0168 122.413 40.0834 122.84C40.1901 123.44 40.2434 124.28 40.2434 125.36C40.2434 126.44 40.2368 127.173 40.2234 127.56C40.2101 127.933 40.1834 128.333 40.1434 128.76C40.1168 129.187 40.0568 129.5 39.9634 129.7C39.8834 129.9 39.7701 130.107 39.6234 130.32C39.4901 130.52 39.3101 130.66 39.0834 130.74C38.5901 130.913 37.9568 131 37.1834 131H37.1434V123.46C37.1434 123.433 37.1434 123.353 37.1434 123.22C37.1434 123.087 37.1368 122.973 37.1234 122.88C37.0568 122.627 36.7901 122.5 36.3234 122.5H35.2434V121ZM34.6434 121V128.54C34.6434 128.567 34.6434 128.647 34.6434 128.78C34.6434 128.913 34.6568 129.027 34.6834 129.12C34.7368 129.373 34.9968 129.5 35.4634 129.5H36.5434V131H34.6034C34.0968 131 33.6834 130.98 33.3634 130.94C33.0434 130.887 32.7634 130.78 32.5234 130.62C32.2834 130.46 32.1034 130.287 31.9834 130.1C31.8634 129.9 31.7634 129.587 31.6834 129.16C31.5901 128.56 31.5434 127.72 31.5434 126.64C31.5434 125.56 31.5501 124.833 31.5634 124.46C31.5768 124.073 31.5968 123.667 31.6234 123.24C31.6634 122.813 31.7234 122.5 31.8034 122.3C31.8968 122.1 32.0101 121.9 32.1434 121.7C32.2901 121.487 32.4768 121.34 32.7034 121.26C33.1968 121.087 33.8301 121 34.6034 121H34.6434ZM44.5656 121H46.9656C47.0456 121 47.0856 121.047 47.0856 121.14V122.36C47.0856 122.453 47.0323 122.5 46.9256 122.5H46.0256C45.7056 122.5 45.519 122.56 45.4656 122.68C45.4123 122.853 45.3856 123.047 45.3856 123.26V129.46C45.3856 129.913 45.2323 130.287 44.9256 130.58C44.6323 130.86 44.1923 131 43.6056 131H42.3856V123.22C42.3856 122.433 42.559 121.867 42.9056 121.52C43.2656 121.173 43.819 121 44.5656 121ZM53.477 122.5H52.397C52.0504 122.5 51.8237 122.547 51.717 122.64C51.6237 122.733 51.577 122.887 51.577 123.1V128.92C51.577 129.12 51.6237 129.267 51.717 129.36C51.8237 129.453 52.0504 129.5 52.397 129.5H53.477V131H51.537C50.217 131 49.4037 130.773 49.097 130.32C48.9504 130.107 48.8304 129.9 48.737 129.7C48.657 129.5 48.6037 129.187 48.577 128.76C48.5104 127.987 48.477 127.127 48.477 126.18C48.477 125.233 48.4837 124.553 48.497 124.14C48.5104 123.713 48.5504 123.287 48.617 122.86C48.697 122.42 48.797 122.107 48.917 121.92C49.037 121.72 49.217 121.54 49.457 121.38C49.697 121.22 49.977 121.12 50.297 121.08C50.617 121.027 51.0304 121 51.537 121H53.477V122.5ZM54.077 116.54H55.297C55.8837 116.54 56.3237 116.687 56.617 116.98C56.9237 117.26 57.077 117.627 57.077 118.08V129.46C57.077 129.913 56.9237 130.287 56.617 130.58C56.3237 130.86 55.8837 131 55.297 131H54.077V116.54ZM59.3788 121.02H60.5988C61.1854 121.02 61.6254 121.167 61.9188 121.46C62.2254 121.74 62.3788 122.107 62.3788 122.56V131H60.0988C59.8854 131 59.7121 130.927 59.5788 130.78C59.4454 130.633 59.3788 130.44 59.3788 130.2V121.02ZM59.5188 116.76C59.6654 116.613 60.0921 116.54 60.7988 116.54C61.5054 116.54 61.9321 116.613 62.0788 116.76C62.2254 116.893 62.2988 117.293 62.2988 117.96C62.2988 118.627 62.2188 119.033 62.0588 119.18C61.9121 119.327 61.4921 119.4 60.7988 119.4C60.1054 119.4 59.6788 119.327 59.5188 119.18C59.3721 119.033 59.2988 118.627 59.2988 117.96C59.2988 117.293 59.3721 116.893 59.5188 116.76ZM68.1717 121H70.9717C72.4251 121 73.1517 121.713 73.1517 123.14V131H70.8717C70.6584 131 70.4851 130.927 70.3517 130.78C70.2184 130.633 70.1517 130.44 70.1517 130.2V123.1C70.1517 122.887 70.0984 122.733 69.9917 122.64C69.8984 122.547 69.6784 122.5 69.3317 122.5H68.1717V121ZM64.6717 121H65.8917C66.4784 121 66.9184 121.147 67.2117 121.44C67.5184 121.72 67.6717 122.087 67.6717 122.54V131H65.3917C65.1784 131 65.0051 130.927 64.8717 130.78C64.7384 130.633 64.6717 130.44 64.6717 130.2V121ZM80.2934 122.5H79.2134C78.8668 122.5 78.6401 122.547 78.5334 122.64C78.4401 122.733 78.3934 122.887 78.3934 123.1V128.92C78.3934 129.12 78.4401 129.267 78.5334 129.36C78.6401 129.453 78.8668 129.5 79.2134 129.5H80.2934V131H78.3534C77.8468 131 77.4334 130.98 77.1134 130.94C76.7934 130.887 76.5134 130.78 76.2734 130.62C76.0334 130.46 75.8534 130.287 75.7334 130.1C75.6134 129.9 75.5134 129.587 75.4334 129.16C75.3401 128.56 75.2934 127.72 75.2934 126.64C75.2934 125.56 75.3001 124.833 75.3134 124.46C75.3268 124.073 75.3468 123.667 75.3734 123.24C75.4134 122.813 75.4734 122.5 75.5534 122.3C75.6468 122.1 75.7601 121.9 75.8934 121.7C76.0401 121.487 76.2268 121.34 76.4534 121.26C76.9468 121.087 77.5801 121 78.3534 121H80.2934V122.5ZM78.5934 132.28V133.34C78.5934 133.567 78.6268 133.72 78.6934 133.8C78.7601 133.893 78.9334 133.94 79.2134 133.94H80.2934V135.44H77.7734C76.3201 135.44 75.5934 134.727 75.5934 133.3V132.7C75.5934 132.5 75.6134 132.387 75.6534 132.36C75.7068 132.333 75.7401 132.313 75.7534 132.3C75.7668 132.3 75.8001 132.293 75.8534 132.28C75.9201 132.28 75.9668 132.28 75.9934 132.28C76.8601 132.28 77.7268 132.28 78.5934 132.28ZM80.8934 121H82.1134C82.7001 121 83.1401 121.147 83.4334 121.44C83.7401 121.72 83.8934 122.087 83.8934 122.54V133.92C83.8934 134.373 83.7401 134.74 83.4334 135.02C83.1401 135.313 82.7001 135.46 82.1134 135.46H80.8934V121ZM95.1228 130.84C95.1228 130.92 95.0828 130.973 95.0028 131H93.4828C92.5095 131 91.8028 130.807 91.3628 130.42C90.9228 130.033 90.7028 129.353 90.7028 128.38V122.54H89.6828C89.3495 122.54 89.1828 122.34 89.1828 121.94V121H90.7028V116.54H91.9228C92.5095 116.54 92.9495 116.687 93.2428 116.98C93.5495 117.273 93.7028 117.647 93.7028 118.1V128.74C93.7028 129.233 93.9828 129.48 94.5428 129.48H94.9628C95.0695 129.48 95.1228 129.527 95.1228 129.62V130.84ZM95.7428 121V121.94C95.7428 122.34 95.5761 122.54 95.2428 122.54H94.2028V121H95.7428ZM100.615 121H102.555C103.061 121 103.475 121.027 103.795 121.08C104.115 121.12 104.395 121.22 104.635 121.38C104.875 121.54 105.055 121.72 105.175 121.92C105.295 122.107 105.388 122.413 105.455 122.84C105.561 123.44 105.615 124.28 105.615 125.36C105.615 126.44 105.608 127.173 105.595 127.56C105.581 127.933 105.555 128.333 105.515 128.76C105.488 129.187 105.428 129.5 105.335 129.7C105.255 129.9 105.141 130.107 104.995 130.32C104.861 130.52 104.681 130.66 104.455 130.74C103.961 130.913 103.328 131 102.555 131H102.515V123.46C102.515 123.433 102.515 123.353 102.515 123.22C102.515 123.087 102.508 122.973 102.495 122.88C102.428 122.627 102.161 122.5 101.695 122.5H100.615V121ZM100.015 121V128.54C100.015 128.567 100.015 128.647 100.015 128.78C100.015 128.913 100.028 129.027 100.055 129.12C100.108 129.373 100.368 129.5 100.835 129.5H101.915V131H99.9745C99.4679 131 99.0545 130.98 98.7345 130.94C98.4145 130.887 98.1345 130.78 97.8945 130.62C97.6545 130.46 97.4745 130.287 97.3545 130.1C97.2345 129.9 97.1345 129.587 97.0545 129.16C96.9612 128.56 96.9145 127.72 96.9145 126.64C96.9145 125.56 96.9212 124.833 96.9345 124.46C96.9479 124.073 96.9679 123.667 96.9945 123.24C97.0345 122.813 97.0945 122.5 97.1745 122.3C97.2679 122.1 97.3812 121.9 97.5145 121.7C97.6612 121.487 97.8479 121.34 98.0745 121.26C98.5679 121.087 99.2012 121 99.9745 121H100.015ZM111.878 121H114.158C114.371 121 114.544 121.073 114.678 121.22C114.811 121.367 114.878 121.56 114.878 121.8V128.9C114.878 129.113 114.924 129.267 115.018 129.36C115.124 129.453 115.351 129.5 115.698 129.5H116.778V131H114.058C112.604 131 111.878 130.287 111.878 128.86V121ZM115.078 132.28V133.34C115.078 133.567 115.111 133.72 115.178 133.8C115.244 133.893 115.418 133.94 115.698 133.94H116.778V135.44H114.258C112.804 135.44 112.078 134.727 112.078 133.3V132.7C112.078 132.5 112.098 132.387 112.138 132.36C112.191 132.333 112.224 132.313 112.238 132.3C112.251 132.3 112.284 132.293 112.338 132.28C112.404 132.28 112.451 132.28 112.478 132.28C113.344 132.28 114.211 132.28 115.078 132.28ZM117.378 121H118.598C119.184 121 119.624 121.147 119.918 121.44C120.224 121.72 120.378 122.087 120.378 122.54V133.92C120.378 134.373 120.224 134.74 119.918 135.02C119.624 135.313 119.184 135.46 118.598 135.46H117.378V121ZM126.24 121H128.18C128.686 121 129.1 121.027 129.42 121.08C129.74 121.12 130.02 121.22 130.26 121.38C130.5 121.54 130.68 121.72 130.8 121.92C130.92 122.107 131.013 122.413 131.08 122.84C131.186 123.44 131.24 124.28 131.24 125.36C131.24 126.44 131.233 127.173 131.22 127.56C131.206 127.933 131.18 128.333 131.14 128.76C131.113 129.187 131.053 129.5 130.96 129.7C130.88 129.9 130.766 130.107 130.62 130.32C130.486 130.52 130.306 130.66 130.08 130.74C129.586 130.913 128.953 131 128.18 131H128.14V123.46C128.14 123.433 128.14 123.353 128.14 123.22C128.14 123.087 128.133 122.973 128.12 122.88C128.053 122.627 127.786 122.5 127.32 122.5H126.24V121ZM125.64 121V128.54C125.64 128.567 125.64 128.647 125.64 128.78C125.64 128.913 125.653 129.027 125.68 129.12C125.733 129.373 125.993 129.5 126.46 129.5H127.54V131H125.6C125.093 131 124.68 130.98 124.36 130.94C124.04 130.887 123.76 130.78 123.52 130.62C123.28 130.46 123.1 130.287 122.98 130.1C122.86 129.9 122.76 129.587 122.68 129.16C122.586 128.56 122.54 127.72 122.54 126.64C122.54 125.56 122.546 124.833 122.56 124.46C122.573 124.073 122.593 123.667 122.62 123.24C122.66 122.813 122.72 122.5 122.8 122.3C122.893 122.1 123.006 121.9 123.14 121.7C123.286 121.487 123.473 121.34 123.7 121.26C124.193 121.087 124.826 121 125.6 121H125.64ZM133.382 121H135.662C135.875 121 136.048 121.073 136.182 121.22C136.315 121.367 136.382 121.56 136.382 121.8V128.9C136.382 129.113 136.428 129.267 136.522 129.36C136.628 129.453 136.855 129.5 137.202 129.5H138.362V131H135.562C134.108 131 133.382 130.287 133.382 128.86V121ZM142.762 130.86C142.762 130.953 142.728 131 142.662 131H140.642C140.055 131 139.608 130.86 139.302 130.58C139.008 130.287 138.862 129.913 138.862 129.46V121H141.142C141.355 121 141.528 121.073 141.662 121.22C141.795 121.367 141.862 121.56 141.862 121.8V128.74C141.862 129.153 141.948 129.387 142.122 129.44C142.215 129.48 142.342 129.5 142.502 129.5H142.602C142.708 129.5 142.762 129.547 142.762 129.64V130.86ZM146.519 121H148.919C148.999 121 149.039 121.047 149.039 121.14V122.36C149.039 122.453 148.985 122.5 148.879 122.5H147.979C147.659 122.5 147.472 122.56 147.419 122.68C147.365 122.853 147.339 123.047 147.339 123.26V129.46C147.339 129.913 147.185 130.287 146.879 130.58C146.585 130.86 146.145 131 145.559 131H144.339V123.22C144.339 122.433 144.512 121.867 144.859 121.52C145.219 121.173 145.772 121 146.519 121ZM5.02 146.5H3.94C3.59333 146.5 3.36667 146.547 3.26 146.64C3.16667 146.733 3.12 146.887 3.12 147.1V152.92C3.12 153.12 3.16667 153.267 3.26 153.36C3.36667 153.453 3.59333 153.5 3.94 153.5H5.02V155H3.08C1.76 155 0.946667 154.773 0.64 154.32C0.493333 154.107 0.373333 153.9 0.28 153.7C0.2 153.5 0.146667 153.187 0.12 152.76C0.0533334 151.987 0.0200001 151.127 0.0200001 150.18C0.0200001 149.233 0.0266667 148.553 0.04 148.14C0.0533334 147.713 0.0933334 147.287 0.16 146.86C0.24 146.42 0.34 146.107 0.46 145.92C0.58 145.72 0.76 145.54 1 145.38C1.24 145.22 1.52 145.12 1.84 145.08C2.16 145.027 2.57333 145 3.08 145H5.02V146.5ZM5.62 140.54H6.84C7.42667 140.54 7.86667 140.687 8.16 140.98C8.46667 141.26 8.62 141.627 8.62 142.08V153.46C8.62 153.913 8.46667 154.287 8.16 154.58C7.86667 154.86 7.42667 155 6.84 155H5.62V140.54ZM13.8817 155H13.8417C12.5217 155 11.7084 154.773 11.4017 154.32C11.2551 154.107 11.1351 153.9 11.0417 153.7C10.9617 153.5 10.9084 153.187 10.8817 152.76C10.8151 151.987 10.7817 151.127 10.7817 150.18C10.7817 149.233 10.7884 148.553 10.8017 148.14C10.8151 147.713 10.8551 147.287 10.9217 146.86C11.0017 146.42 11.1017 146.107 11.2217 145.92C11.3417 145.72 11.5217 145.54 11.7617 145.38C12.0017 145.22 12.2817 145.12 12.6017 145.08C12.9217 145.027 13.3351 145 13.8417 145H13.8817V155ZM19.2017 151.84V152.86C19.2017 154.287 18.4751 155 17.0217 155H14.5017V153.5H15.5817C15.8617 153.5 16.0351 153.46 16.1017 153.38C16.1684 153.287 16.2017 153.127 16.2017 152.9V152.26C16.2017 152.06 16.2217 151.947 16.2617 151.92C16.3151 151.893 16.3484 151.88 16.3617 151.88C16.3751 151.867 16.4084 151.86 16.4617 151.86C16.5284 151.847 16.5751 151.84 16.6017 151.84C17.4684 151.84 18.3351 151.84 19.2017 151.84ZM14.5017 145H16.8217C17.7417 145 18.3684 145.18 18.7017 145.54C19.0351 145.9 19.2017 146.433 19.2017 147.14V148.9C19.2017 150.1 18.5484 150.7 17.2417 150.7H14.3017V149.2H15.3817C15.7017 149.2 15.9151 149.16 16.0217 149.08C16.1417 149 16.2017 148.847 16.2017 148.62V147.1C16.2017 146.873 16.1684 146.72 16.1017 146.64C16.0351 146.547 15.8617 146.5 15.5817 146.5H14.5017V145ZM24.0523 145V148.66C24.0523 148.887 24.0857 149.047 24.1523 149.14C24.219 149.22 24.3923 149.26 24.6723 149.26H25.7923V150.76H23.2323C21.779 150.76 21.0523 150.047 21.0523 148.62V147.22C21.0523 146.34 21.2723 145.753 21.7123 145.46C22.1657 145.153 22.9457 145 24.0523 145ZM24.0923 151.84V152.9C24.0923 153.127 24.1257 153.287 24.1923 153.38C24.259 153.46 24.4323 153.5 24.7123 153.5H25.7923V155H23.2723C21.819 155 21.0923 154.287 21.0923 152.86V152.26C21.0923 152.06 21.1123 151.947 21.1523 151.92C21.2057 151.893 21.239 151.88 21.2523 151.88C21.2657 151.867 21.299 151.86 21.3523 151.86C21.419 151.847 21.459 151.84 21.4723 151.84C22.3523 151.84 23.2257 151.84 24.0923 151.84ZM26.3923 149.26H27.2123C28.6657 149.26 29.3923 149.973 29.3923 151.4V152.78C29.3923 153.66 29.1657 154.253 28.7123 154.56C28.2723 154.853 27.499 155 26.3923 155V149.26ZM24.6523 145H27.1723C28.6257 145 29.3523 145.713 29.3523 147.14V148.18C28.459 148.18 27.779 148.18 27.3123 148.18C26.8457 148.18 26.6057 148.18 26.5923 148.18C26.579 148.167 26.5523 148.16 26.5123 148.16C26.4857 148.147 26.4657 148.133 26.4523 148.12C26.439 148.107 26.4257 148.093 26.4123 148.08C26.399 148.053 26.3923 148.027 26.3923 148C26.3657 147.893 26.3523 147.813 26.3523 147.76V147.1C26.3523 146.873 26.319 146.72 26.2523 146.64C26.1857 146.547 26.0123 146.5 25.7323 146.5H24.6523V145ZM31.4491 145.02H32.6691C33.2557 145.02 33.6957 145.167 33.9891 145.46C34.2957 145.74 34.4491 146.107 34.4491 146.56V155H32.1691C31.9557 155 31.7824 154.927 31.6491 154.78C31.5157 154.633 31.4491 154.44 31.4491 154.2V145.02ZM31.5891 140.76C31.7357 140.613 32.1624 140.54 32.8691 140.54C33.5757 140.54 34.0024 140.613 34.1491 140.76C34.2957 140.893 34.3691 141.293 34.3691 141.96C34.3691 142.627 34.2891 143.033 34.1291 143.18C33.9824 143.327 33.5624 143.4 32.8691 143.4C32.1757 143.4 31.7491 143.327 31.5891 143.18C31.4424 143.033 31.3691 142.627 31.3691 141.96C31.3691 141.293 31.4424 140.893 31.5891 140.76ZM41.602 146.5H40.522C40.1754 146.5 39.9487 146.547 39.842 146.64C39.7487 146.733 39.702 146.887 39.702 147.1V152.92C39.702 153.12 39.7487 153.267 39.842 153.36C39.9487 153.453 40.1754 153.5 40.522 153.5H41.602V155H39.662C39.1554 155 38.742 154.98 38.422 154.94C38.102 154.887 37.822 154.78 37.582 154.62C37.342 154.46 37.162 154.287 37.042 154.1C36.922 153.9 36.822 153.587 36.742 153.16C36.6487 152.56 36.602 151.72 36.602 150.64C36.602 149.56 36.6087 148.833 36.622 148.46C36.6354 148.073 36.6554 147.667 36.682 147.24C36.722 146.813 36.782 146.5 36.862 146.3C36.9554 146.1 37.0687 145.9 37.202 145.7C37.3487 145.487 37.5354 145.34 37.762 145.26C38.2554 145.087 38.8887 145 39.662 145H41.602V146.5ZM39.902 156.28V157.34C39.902 157.567 39.9354 157.72 40.002 157.8C40.0687 157.893 40.242 157.94 40.522 157.94H41.602V159.44H39.082C37.6287 159.44 36.902 158.727 36.902 157.3V156.7C36.902 156.5 36.922 156.387 36.962 156.36C37.0154 156.333 37.0487 156.313 37.062 156.3C37.0754 156.3 37.1087 156.293 37.162 156.28C37.2287 156.28 37.2754 156.28 37.302 156.28C38.1687 156.28 39.0354 156.28 39.902 156.28ZM42.202 145H43.422C44.0087 145 44.4487 145.147 44.742 145.44C45.0487 145.72 45.202 146.087 45.202 146.54V157.92C45.202 158.373 45.0487 158.74 44.742 159.02C44.4487 159.313 44.0087 159.46 43.422 159.46H42.202V145ZM51.0038 145H53.8038C55.2571 145 55.9838 145.713 55.9838 147.14V155H53.7038C53.4904 155 53.3171 154.927 53.1838 154.78C53.0504 154.633 52.9838 154.44 52.9838 154.2V147.1C52.9838 146.887 52.9304 146.733 52.8238 146.64C52.7304 146.547 52.5104 146.5 52.1638 146.5H51.0038V145ZM47.5038 145H48.7238C49.3104 145 49.7504 145.147 50.0438 145.44C50.3504 145.72 50.5038 146.087 50.5038 146.54V155H48.2238C48.0104 155 47.8371 154.927 47.7038 154.78C47.5704 154.633 47.5038 154.44 47.5038 154.2V145ZM67.2466 146.5H66.1666C65.7532 146.5 65.5199 146.573 65.4666 146.72C65.3866 146.893 65.3466 147.14 65.3466 147.46V152.54C65.3466 152.567 65.3466 152.647 65.3466 152.78C65.3466 152.913 65.3599 153.027 65.3866 153.12C65.4399 153.373 65.6999 153.5 66.1666 153.5H67.2466V155H65.3066C64.7999 155 64.3866 154.98 64.0666 154.94C63.7466 154.887 63.4666 154.78 63.2266 154.62C62.9866 154.46 62.8066 154.287 62.6866 154.1C62.5666 153.9 62.4666 153.587 62.3866 153.16C62.2932 152.56 62.2466 151.72 62.2466 150.64C62.2466 149.56 62.2532 148.833 62.2666 148.46C62.2799 148.073 62.2999 147.667 62.3266 147.24C62.3666 146.813 62.4266 146.5 62.5066 146.3C62.5999 146.1 62.7132 145.9 62.8466 145.7C62.9932 145.487 63.1799 145.34 63.4066 145.26C63.8999 145.087 64.5332 145 65.3066 145H67.2466V146.5ZM71.7466 154.86C71.7466 154.953 71.7199 155 71.6666 155H70.0266C69.2799 155 68.7266 154.827 68.3666 154.48C68.0199 154.133 67.8466 153.567 67.8466 152.78V145H68.6666C69.5066 145 70.0799 145.2 70.3866 145.6C70.6932 145.987 70.8466 146.5 70.8466 147.14V152.74C70.8466 153.153 70.9332 153.387 71.1066 153.44C71.1999 153.48 71.3266 153.5 71.4866 153.5H71.5866C71.6932 153.5 71.7466 153.547 71.7466 153.64V154.86ZM76.8241 145H79.6241C81.0774 145 81.8041 145.713 81.8041 147.14V155H79.5241C79.3107 155 79.1374 154.927 79.0041 154.78C78.8707 154.633 78.8041 154.44 78.8041 154.2V147.1C78.8041 146.887 78.7507 146.733 78.6441 146.64C78.5507 146.547 78.3307 146.5 77.9841 146.5H76.8241V145ZM73.3241 145H74.5441C75.1307 145 75.5707 145.147 75.8641 145.44C76.1707 145.72 76.3241 146.087 76.3241 146.54V155H74.0441C73.8307 155 73.6574 154.927 73.5241 154.78C73.3907 154.633 73.3241 154.44 73.3241 154.2V145ZM88.9458 146.5H87.8658C87.5191 146.5 87.2924 146.547 87.1858 146.64C87.0924 146.733 87.0458 146.887 87.0458 147.1V152.92C87.0458 153.12 87.0924 153.267 87.1858 153.36C87.2924 153.453 87.5191 153.5 87.8658 153.5H88.9458V155H87.0058C85.6858 155 84.8724 154.773 84.5658 154.32C84.4191 154.107 84.2991 153.9 84.2058 153.7C84.1258 153.5 84.0724 153.187 84.0458 152.76C83.9791 151.987 83.9458 151.127 83.9458 150.18C83.9458 149.233 83.9524 148.553 83.9658 148.14C83.9791 147.713 84.0191 147.287 84.0858 146.86C84.1658 146.42 84.2658 146.107 84.3858 145.92C84.5058 145.72 84.6858 145.54 84.9258 145.38C85.1658 145.22 85.4458 145.12 85.7658 145.08C86.0858 145.027 86.4991 145 87.0058 145H88.9458V146.5ZM89.5458 140.54H90.7658C91.3524 140.54 91.7924 140.687 92.0858 140.98C92.3924 141.26 92.5458 141.627 92.5458 142.08V153.46C92.5458 153.913 92.3924 154.287 92.0858 154.58C91.7924 154.86 91.3524 155 90.7658 155H89.5458V140.54ZM104.349 145H106.629C106.842 145 107.015 145.073 107.149 145.22C107.282 145.367 107.349 145.56 107.349 145.8V152.9C107.349 153.113 107.395 153.267 107.489 153.36C107.595 153.453 107.822 153.5 108.169 153.5H109.249V155H106.529C105.075 155 104.349 154.287 104.349 152.86V145ZM98.9286 145H101.209C101.422 145 101.595 145.073 101.729 145.22C101.862 145.367 101.929 145.56 101.929 145.8V152.9C101.929 153.113 101.975 153.267 102.069 153.36C102.175 153.453 102.402 153.5 102.749 153.5H103.829V155H101.109C99.6553 155 98.9286 154.287 98.9286 152.86V145ZM109.849 145H112.129C112.342 145 112.515 145.073 112.649 145.22C112.782 145.367 112.849 145.56 112.849 145.8V153.46C112.849 153.913 112.695 154.287 112.389 154.58C112.095 154.86 111.655 155 111.069 155H109.849V145ZM115.121 145.02H116.341C116.928 145.02 117.368 145.167 117.661 145.46C117.968 145.74 118.121 146.107 118.121 146.56V155H115.841C115.628 155 115.454 154.927 115.321 154.78C115.188 154.633 115.121 154.44 115.121 154.2V145.02ZM115.261 140.76C115.408 140.613 115.834 140.54 116.541 140.54C117.248 140.54 117.674 140.613 117.821 140.76C117.968 140.893 118.041 141.293 118.041 141.96C118.041 142.627 117.961 143.033 117.801 143.18C117.654 143.327 117.234 143.4 116.541 143.4C115.848 143.4 115.421 143.327 115.261 143.18C115.114 143.033 115.041 142.627 115.041 141.96C115.041 141.293 115.114 140.893 115.261 140.76ZM125.494 154.84C125.494 154.92 125.454 154.973 125.374 155H123.854C122.881 155 122.174 154.807 121.734 154.42C121.294 154.033 121.074 153.353 121.074 152.38V146.54H120.054C119.721 146.54 119.554 146.34 119.554 145.94V145H121.074V140.54H122.294C122.881 140.54 123.321 140.687 123.614 140.98C123.921 141.273 124.074 141.647 124.074 142.1V152.74C124.074 153.233 124.354 153.48 124.914 153.48H125.334C125.441 153.48 125.494 153.527 125.494 153.62V154.84ZM126.114 145V145.94C126.114 146.34 125.947 146.54 125.614 146.54H124.574V145H126.114ZM130.926 145H133.726C135.179 145 135.906 145.713 135.906 147.14V155H133.626C133.412 155 133.239 154.927 133.106 154.78C132.972 154.633 132.906 154.44 132.906 154.2V147.1C132.906 146.887 132.852 146.733 132.746 146.64C132.652 146.547 132.432 146.5 132.086 146.5H130.926V145ZM127.426 140.54H128.646C129.232 140.54 129.672 140.687 129.966 140.98C130.272 141.26 130.426 141.627 130.426 142.08V155H128.146C127.932 155 127.759 154.927 127.626 154.78C127.492 154.633 127.426 154.44 127.426 154.2V140.54ZM0.12 169H2.4C2.61333 169 2.78667 169.073 2.92 169.22C3.05333 169.367 3.12 169.56 3.12 169.8V176.9C3.12 177.113 3.16667 177.267 3.26 177.36C3.36667 177.453 3.59333 177.5 3.94 177.5H5.02V179H2.3C0.846667 179 0.12 178.287 0.12 176.86V169ZM3.32 180.28V181.34C3.32 181.567 3.35333 181.72 3.42 181.8C3.48667 181.893 3.66 181.94 3.94 181.94H5.02V183.44H2.5C1.04667 183.44 0.32 182.727 0.32 181.3V180.7C0.32 180.5 0.34 180.387 0.38 180.36C0.433333 180.333 0.466667 180.313 0.48 180.3C0.493333 180.3 0.526667 180.293 0.58 180.28C0.646667 180.28 0.693333 180.28 0.72 180.28C1.58667 180.28 2.45333 180.28 3.32 180.28ZM5.62 169H6.84C7.42667 169 7.86667 169.147 8.16 169.44C8.46667 169.72 8.62 170.087 8.62 170.54V181.92C8.62 182.373 8.46667 182.74 8.16 183.02C7.86667 183.313 7.42667 183.46 6.84 183.46H5.62V169ZM14.4817 169H16.4217C16.9284 169 17.3417 169.027 17.6617 169.08C17.9817 169.12 18.2617 169.22 18.5017 169.38C18.7417 169.54 18.9217 169.72 19.0417 169.92C19.1617 170.107 19.2551 170.413 19.3217 170.84C19.4284 171.44 19.4817 172.28 19.4817 173.36C19.4817 174.44 19.4751 175.173 19.4617 175.56C19.4484 175.933 19.4217 176.333 19.3817 176.76C19.3551 177.187 19.2951 177.5 19.2017 177.7C19.1217 177.9 19.0084 178.107 18.8617 178.32C18.7284 178.52 18.5484 178.66 18.3217 178.74C17.8284 178.913 17.1951 179 16.4217 179H16.3817V171.46C16.3817 171.433 16.3817 171.353 16.3817 171.22C16.3817 171.087 16.3751 170.973 16.3617 170.88C16.2951 170.627 16.0284 170.5 15.5617 170.5H14.4817V169ZM13.8817 169V176.54C13.8817 176.567 13.8817 176.647 13.8817 176.78C13.8817 176.913 13.8951 177.027 13.9217 177.12C13.9751 177.373 14.2351 177.5 14.7017 177.5H15.7817V179H13.8417C13.3351 179 12.9217 178.98 12.6017 178.94C12.2817 178.887 12.0017 178.78 11.7617 178.62C11.5217 178.46 11.3417 178.287 11.2217 178.1C11.1017 177.9 11.0017 177.587 10.9217 177.16C10.8284 176.56 10.7817 175.72 10.7817 174.64C10.7817 173.56 10.7884 172.833 10.8017 172.46C10.8151 172.073 10.8351 171.667 10.8617 171.24C10.9017 170.813 10.9617 170.5 11.0417 170.3C11.1351 170.1 11.2484 169.9 11.3817 169.7C11.5284 169.487 11.7151 169.34 11.9417 169.26C12.4351 169.087 13.0684 169 13.8417 169H13.8817ZM21.6239 169H23.9039C24.1172 169 24.2906 169.073 24.4239 169.22C24.5572 169.367 24.6239 169.56 24.6239 169.8V176.9C24.6239 177.113 24.6706 177.267 24.7639 177.36C24.8706 177.453 25.0972 177.5 25.4439 177.5H26.6039V179H23.8039C22.3506 179 21.6239 178.287 21.6239 176.86V169ZM31.0039 178.86C31.0039 178.953 30.9706 179 30.9039 179H28.8839C28.2972 179 27.8506 178.86 27.5439 178.58C27.2506 178.287 27.1039 177.913 27.1039 177.46V169H29.3839C29.5972 169 29.7706 169.073 29.9039 169.22C30.0372 169.367 30.1039 169.56 30.1039 169.8V176.74C30.1039 177.153 30.1906 177.387 30.3639 177.44C30.4572 177.48 30.5839 177.5 30.7439 177.5H30.8439C30.9506 177.5 31.0039 177.547 31.0039 177.64V178.86ZM34.7609 169H37.1609C37.2409 169 37.2809 169.047 37.2809 169.14V170.36C37.2809 170.453 37.2276 170.5 37.1209 170.5H36.2209C35.9009 170.5 35.7143 170.56 35.6609 170.68C35.6076 170.853 35.5809 171.047 35.5809 171.26V177.46C35.5809 177.913 35.4276 178.287 35.1209 178.58C34.8276 178.86 34.3876 179 33.8009 179H32.5809V171.22C32.5809 170.433 32.7543 169.867 33.1009 169.52C33.4609 169.173 34.0143 169 34.7609 169ZM47.5005 170.5H46.4205C46.0738 170.5 45.8471 170.547 45.7405 170.64C45.6471 170.733 45.6005 170.887 45.6005 171.1V176.92C45.6005 177.12 45.6471 177.267 45.7405 177.36C45.8471 177.453 46.0738 177.5 46.4205 177.5H47.5005V179H45.5605C44.2405 179 43.4271 178.773 43.1205 178.32C42.9738 178.107 42.8538 177.9 42.7605 177.7C42.6805 177.5 42.6271 177.187 42.6005 176.76C42.5338 175.987 42.5005 175.127 42.5005 174.18C42.5005 173.233 42.5071 172.553 42.5205 172.14C42.5338 171.713 42.5738 171.287 42.6405 170.86C42.7205 170.42 42.8205 170.107 42.9405 169.92C43.0605 169.72 43.2405 169.54 43.4805 169.38C43.7205 169.22 44.0005 169.12 44.3205 169.08C44.6405 169.027 45.0538 169 45.5605 169H47.5005V170.5ZM48.1005 164.54H49.3205C49.9071 164.54 50.3471 164.687 50.6405 164.98C50.9471 165.26 51.1005 165.627 51.1005 166.08V177.46C51.1005 177.913 50.9471 178.287 50.6405 178.58C50.3471 178.86 49.9071 179 49.3205 179H48.1005V164.54ZM56.9622 169H58.9022C59.4089 169 59.8222 169.027 60.1422 169.08C60.4622 169.12 60.7422 169.22 60.9822 169.38C61.2222 169.54 61.4022 169.72 61.5222 169.92C61.6422 170.107 61.7355 170.413 61.8022 170.84C61.9089 171.44 61.9622 172.28 61.9622 173.36C61.9622 174.44 61.9555 175.173 61.9422 175.56C61.9289 175.933 61.9022 176.333 61.8622 176.76C61.8355 177.187 61.7755 177.5 61.6822 177.7C61.6022 177.9 61.4889 178.107 61.3422 178.32C61.2089 178.52 61.0289 178.66 60.8022 178.74C60.3089 178.913 59.6755 179 58.9022 179H58.8622V171.46C58.8622 171.433 58.8622 171.353 58.8622 171.22C58.8622 171.087 58.8555 170.973 58.8422 170.88C58.7755 170.627 58.5089 170.5 58.0422 170.5H56.9622V169ZM56.3622 169V176.54C56.3622 176.567 56.3622 176.647 56.3622 176.78C56.3622 176.913 56.3755 177.027 56.4022 177.12C56.4555 177.373 56.7155 177.5 57.1822 177.5H58.2622V179H56.3222C55.8155 179 55.4022 178.98 55.0822 178.94C54.7622 178.887 54.4822 178.78 54.2422 178.62C54.0022 178.46 53.8222 178.287 53.7022 178.1C53.5822 177.9 53.4822 177.587 53.4022 177.16C53.3089 176.56 53.2622 175.72 53.2622 174.64C53.2622 173.56 53.2689 172.833 53.2822 172.46C53.2955 172.073 53.3155 171.667 53.3422 171.24C53.3822 170.813 53.4422 170.5 53.5222 170.3C53.6155 170.1 53.7289 169.9 53.8622 169.7C54.0089 169.487 54.1955 169.34 54.4222 169.26C54.9155 169.087 55.5489 169 56.3222 169H56.3622ZM73.0644 169H75.7844C77.2377 169 77.9644 169.713 77.9644 171.14V179H75.6844C75.471 179 75.2977 178.927 75.1644 178.78C75.031 178.633 74.9644 178.44 74.9644 178.2V171.1C74.9644 170.887 74.911 170.733 74.8044 170.64C74.711 170.547 74.491 170.5 74.1444 170.5H73.0644V169ZM64.1444 169H65.3644C65.951 169 66.391 169.147 66.6844 169.44C66.991 169.72 67.1444 170.087 67.1444 170.54V179H64.8644C64.651 179 64.4777 178.927 64.3444 178.78C64.211 178.633 64.1444 178.44 64.1444 178.2V169ZM67.6444 169H70.3644C71.8177 169 72.5444 169.713 72.5444 171.14V179H70.2644C70.051 179 69.8777 178.927 69.7444 178.78C69.611 178.633 69.5444 178.44 69.5444 178.2V171.1C69.5444 170.887 69.491 170.733 69.3844 170.64C69.291 170.547 69.071 170.5 68.7244 170.5H67.6444V169ZM85.0981 170.5H84.0181C83.6048 170.5 83.3715 170.573 83.3181 170.72C83.2381 170.893 83.1981 171.14 83.1981 171.46V176.54C83.1981 176.567 83.1981 176.647 83.1981 176.78C83.1981 176.913 83.2115 177.027 83.2381 177.12C83.2915 177.373 83.5515 177.5 84.0181 177.5H85.0981V179H83.1581C82.6515 179 82.2381 178.98 81.9181 178.94C81.5981 178.887 81.3181 178.78 81.0781 178.62C80.8381 178.46 80.6581 178.287 80.5381 178.1C80.4181 177.9 80.3181 177.587 80.2381 177.16C80.1448 176.56 80.0981 175.72 80.0981 174.64C80.0981 173.56 80.1048 172.833 80.1181 172.46C80.1315 172.073 80.1515 171.667 80.1781 171.24C80.2181 170.813 80.2781 170.5 80.3581 170.3C80.4515 170.1 80.5648 169.9 80.6981 169.7C80.8448 169.487 81.0315 169.34 81.2581 169.26C81.7515 169.087 82.3848 169 83.1581 169H85.0981V170.5ZM89.5981 178.86C89.5981 178.953 89.5715 179 89.5181 179H87.8781C87.1315 179 86.5781 178.827 86.2181 178.48C85.8715 178.133 85.6981 177.567 85.6981 176.78V169H86.5181C87.3581 169 87.9315 169.2 88.2381 169.6C88.5448 169.987 88.6981 170.5 88.6981 171.14V176.74C88.6981 177.153 88.7848 177.387 88.9581 177.44C89.0515 177.48 89.1781 177.5 89.3381 177.5H89.4381C89.5448 177.5 89.5981 177.547 89.5981 177.64V178.86ZM91.1756 169.02H92.3956C92.9823 169.02 93.4223 169.167 93.7156 169.46C94.0223 169.74 94.1756 170.107 94.1756 170.56V179H91.8956C91.6823 179 91.509 178.927 91.3756 178.78C91.2423 178.633 91.1756 178.44 91.1756 178.2V169.02ZM91.3156 164.76C91.4623 164.613 91.889 164.54 92.5956 164.54C93.3023 164.54 93.729 164.613 93.8756 164.76C94.0223 164.893 94.0956 165.293 94.0956 165.96C94.0956 166.627 94.0156 167.033 93.8556 167.18C93.709 167.327 93.289 167.4 92.5956 167.4C91.9023 167.4 91.4756 167.327 91.3156 167.18C91.169 167.033 91.0956 166.627 91.0956 165.96C91.0956 165.293 91.169 164.893 91.3156 164.76ZM99.9686 169H102.769C104.222 169 104.949 169.713 104.949 171.14V179H102.669C102.455 179 102.282 178.927 102.149 178.78C102.015 178.633 101.949 178.44 101.949 178.2V171.1C101.949 170.887 101.895 170.733 101.789 170.64C101.695 170.547 101.475 170.5 101.129 170.5H99.9686V169ZM96.4686 169H97.6886C98.2753 169 98.7153 169.147 99.0086 169.44C99.3153 169.72 99.4686 170.087 99.4686 170.54V179H97.1886C96.9753 179 96.8019 178.927 96.6686 178.78C96.5353 178.633 96.4686 178.44 96.4686 178.2V169Z" fill="white"/>
</svg>
