<svg width="160" height="184" viewBox="0 0 160 184" fill="none" xmlns="http://www.w3.org/2000/svg">
<path d="M66.0165 0.295998H69.7125C70.9925 0.295998 72.0485 0.391998 72.8805 0.584C73.7445 0.775999 74.4805 1.16 75.0885 1.736C75.7285 2.312 76.2085 2.968 76.5285 3.704C76.8805 4.408 77.1525 5.496 77.3445 6.968C77.6325 9.176 77.7765 12.712 77.7765 17.576V17.72C77.7765 25.048 77.4085 29.592 76.6725 31.352C75.9365 33.208 74.8805 34.328 73.5045 34.712C72.7685 34.904 71.8565 35 70.7685 35H66.0165V30.44H67.6485C68.4805 30.44 69.0085 30.328 69.2325 30.104C69.4885 29.88 69.6165 29.528 69.6165 29.048V6.248C69.6165 5.768 69.4885 5.416 69.2325 5.192C69.0085 4.968 68.4805 4.856 67.6485 4.856H66.0165V0.295998ZM64.0965 4.856H62.4645C61.6325 4.856 61.0885 4.968 60.8325 5.192C60.6085 5.416 60.4965 5.768 60.4965 6.248V29.048C60.4965 29.528 60.6085 29.88 60.8325 30.104C61.0885 30.328 61.6325 30.44 62.4645 30.44H64.0965V35H59.3445C56.9445 35 55.2005 34.264 54.1125 32.792C53.2165 31.608 52.6725 28.888 52.4805 24.632C52.3845 22.968 52.3365 20.664 52.3365 17.72V17.576C52.3365 10.056 52.7365 5.432 53.5365 3.704C53.8885 2.968 54.3685 2.312 54.9765 1.736C55.6165 1.16 56.3525 0.775999 57.1845 0.584C58.0485 0.391998 59.1205 0.295998 60.4005 0.295998H64.0965V4.856ZM99.1965 0.295998H102.797C105.517 0.295998 106.877 1.848 106.877 4.952V17.144C106.877 20.024 105.469 21.464 102.653 21.464H96.0285V16.904H97.9005C98.4765 16.904 98.8285 16.808 98.9565 16.616C99.1165 16.392 99.1965 16.024 99.1965 15.512V0.295998ZM94.1085 21.464H92.7645C92.1885 21.464 91.8205 21.576 91.6605 21.8C91.5325 21.992 91.4685 22.344 91.4685 22.856V35H87.3885C85.8205 35 84.8285 34.744 84.4125 34.232C83.9965 33.72 83.7885 32.44 83.7885 30.392V20.264C83.7885 18.856 84.0285 17.944 84.5085 17.528C84.9885 17.112 85.9965 16.904 87.5325 16.904H94.1085V21.464ZM105.677 29.48C106.477 29.48 106.877 29.928 106.877 30.824V35H93.4365L93.3885 29.48H105.677ZM97.2765 4.856H92.7165C92.0445 4.856 91.6285 4.968 91.4685 5.192C91.3085 5.384 91.2285 5.752 91.2285 6.296V11.624H85.9485C84.7645 11.624 84.0605 11.528 83.8365 11.336C83.6445 11.144 83.5485 10.552 83.5485 9.56V5.432C83.5485 3.672 83.8045 2.376 84.3165 1.544C84.8605 0.711998 86.0285 0.295998 87.8205 0.295998H97.2765V4.856ZM3.14148 107H3.10148C1.78148 107 0.968151 106.773 0.661484 106.32C0.514818 106.107 0.394818 105.9 0.301484 105.7C0.221484 105.5 0.168151 105.187 0.141484 104.76C0.0748178 103.987 0.0414844 103.127 0.0414844 102.18C0.0414844 101.233 0.0481511 100.553 0.0614844 100.14C0.0748178 99.7133 0.114818 99.2867 0.181484 98.86C0.261484 98.42 0.361484 98.1067 0.481485 97.92C0.601484 97.72 0.781484 97.54 1.02148 97.38C1.26148 97.22 1.54148 97.12 1.86148 97.08C2.18148 97.0267 2.59482 97 3.10148 97H3.14148V107ZM5.46148 103.84C6.35482 103.84 7.03482 103.84 7.50148 103.84C7.96815 103.84 8.20815 103.847 8.22148 103.86C8.23482 103.86 8.25482 103.867 8.28148 103.88C8.32148 103.88 8.34815 103.887 8.36148 103.9C8.37482 103.913 8.38815 103.933 8.40148 103.96C8.41482 103.973 8.42148 104 8.42148 104.04C8.44815 104.133 8.46149 104.207 8.46149 104.26V104.86C8.46149 106.287 7.73482 107 6.28148 107H3.76148V105.5H4.84148C5.12148 105.5 5.29482 105.46 5.36148 105.38C5.42815 105.287 5.46148 105.127 5.46148 104.9V103.84ZM3.76148 97H6.28148C7.73482 97 8.46149 97.7133 8.46149 99.14V100.5C7.56815 100.5 6.88815 100.5 6.42148 100.5C5.95482 100.5 5.71482 100.5 5.70148 100.5C5.68815 100.487 5.66148 100.48 5.62148 100.48C5.59482 100.467 5.57482 100.453 5.56148 100.44C5.54815 100.427 5.53482 100.413 5.52148 100.4C5.50815 100.373 5.50148 100.347 5.50148 100.32C5.47482 100.213 5.46148 100.133 5.46148 100.08V99.1C5.46148 98.8733 5.42815 98.72 5.36148 98.64C5.29482 98.5467 5.12148 98.5 4.84148 98.5H3.76148V97ZM12.6145 97H15.0145C15.0945 97 15.1345 97.0467 15.1345 97.14V98.36C15.1345 98.4533 15.0811 98.5 14.9745 98.5H14.0745C13.7545 98.5 13.5678 98.56 13.5145 98.68C13.4611 98.8533 13.4345 99.0467 13.4345 99.26V105.46C13.4345 105.913 13.2811 106.287 12.9745 106.58C12.6811 106.86 12.2411 107 11.6545 107H10.4345V99.22C10.4345 98.4333 10.6078 97.8667 10.9545 97.52C11.3145 97.1733 11.8678 97 12.6145 97ZM19.6259 107H19.5859C18.2659 107 17.4525 106.773 17.1459 106.32C16.9992 106.107 16.8792 105.9 16.7859 105.7C16.7059 105.5 16.6525 105.187 16.6259 104.76C16.5592 103.987 16.5259 103.127 16.5259 102.18C16.5259 101.233 16.5325 100.553 16.5459 100.14C16.5592 99.7133 16.5992 99.2867 16.6659 98.86C16.7459 98.42 16.8459 98.1067 16.9659 97.92C17.0859 97.72 17.2659 97.54 17.5059 97.38C17.7459 97.22 18.0259 97.12 18.3459 97.08C18.6659 97.0267 19.0792 97 19.5859 97H19.6259V107ZM24.9459 103.84V104.86C24.9459 106.287 24.2192 107 22.7659 107H20.2459V105.5H21.3259C21.6059 105.5 21.7792 105.46 21.8459 105.38C21.9125 105.287 21.9459 105.127 21.9459 104.9V104.26C21.9459 104.06 21.9659 103.947 22.0059 103.92C22.0592 103.893 22.0925 103.88 22.1059 103.88C22.1192 103.867 22.1525 103.86 22.2059 103.86C22.2725 103.847 22.3192 103.84 22.3459 103.84C23.2125 103.84 24.0792 103.84 24.9459 103.84ZM20.2459 97H22.5659C23.4859 97 24.1125 97.18 24.4459 97.54C24.7792 97.9 24.9459 98.4333 24.9459 99.14V100.9C24.9459 102.1 24.2925 102.7 22.9859 102.7H20.0459V101.2H21.1259C21.4459 101.2 21.6592 101.16 21.7659 101.08C21.8859 101 21.9459 100.847 21.9459 100.62V99.1C21.9459 98.8733 21.9125 98.72 21.8459 98.64C21.7792 98.5467 21.6059 98.5 21.3259 98.5H20.2459V97ZM31.9165 98.5H30.8365C30.4232 98.5 30.1898 98.5733 30.1365 98.72C30.0565 98.8933 30.0165 99.14 30.0165 99.46V104.54C30.0165 104.567 30.0165 104.647 30.0165 104.78C30.0165 104.913 30.0298 105.027 30.0565 105.12C30.1098 105.373 30.3698 105.5 30.8365 105.5H31.9165V107H29.9765C29.4698 107 29.0565 106.98 28.7365 106.94C28.4165 106.887 28.1365 106.78 27.8965 106.62C27.6565 106.46 27.4765 106.287 27.3565 106.1C27.2365 105.9 27.1365 105.587 27.0565 105.16C26.9632 104.56 26.9165 103.72 26.9165 102.64C26.9165 101.56 26.9232 100.833 26.9365 100.46C26.9498 100.073 26.9698 99.6667 26.9965 99.24C27.0365 98.8133 27.0965 98.5 27.1765 98.3C27.2698 98.1 27.3832 97.9 27.5165 97.7C27.6632 97.4867 27.8498 97.34 28.0765 97.26C28.5698 97.0867 29.2032 97 29.9765 97H31.9165V98.5ZM36.4165 106.86C36.4165 106.953 36.3898 107 36.3365 107H34.6965C33.9498 107 33.3965 106.827 33.0365 106.48C32.6898 106.133 32.5165 105.567 32.5165 104.78V97H33.3365C34.1765 97 34.7498 97.2 35.0565 97.6C35.3632 97.9867 35.5165 98.5 35.5165 99.14V104.74C35.5165 105.153 35.6032 105.387 35.7765 105.44C35.8698 105.48 35.9965 105.5 36.1565 105.5H36.2565C36.3632 105.5 36.4165 105.547 36.4165 105.64V106.86ZM43.074 106.84C43.074 106.92 43.034 106.973 42.954 107H41.434C40.4607 107 39.754 106.807 39.314 106.42C38.874 106.033 38.654 105.353 38.654 104.38V98.54H37.634C37.3007 98.54 37.134 98.34 37.134 97.94V97H38.654V92.54H39.874C40.4607 92.54 40.9007 92.6867 41.194 92.98C41.5007 93.2733 41.654 93.6467 41.654 94.1V104.74C41.654 105.233 41.934 105.48 42.494 105.48H42.914C43.0207 105.48 43.074 105.527 43.074 105.62V106.84ZM43.694 97V97.94C43.694 98.34 43.5273 98.54 43.194 98.54H42.154V97H43.694ZM45.0057 97.02H46.2257C46.8124 97.02 47.2524 97.1667 47.5457 97.46C47.8524 97.74 48.0057 98.1067 48.0057 98.56V107H45.7257C45.5124 107 45.339 106.927 45.2057 106.78C45.0724 106.633 45.0057 106.44 45.0057 106.2V97.02ZM45.1457 92.76C45.2924 92.6133 45.719 92.54 46.4257 92.54C47.1324 92.54 47.559 92.6133 47.7057 92.76C47.8524 92.8933 47.9257 93.2933 47.9257 93.96C47.9257 94.6267 47.8457 95.0333 47.6857 95.18C47.539 95.3267 47.119 95.4 46.4257 95.4C45.7324 95.4 45.3057 95.3267 45.1457 95.18C44.999 95.0333 44.9257 94.6267 44.9257 93.96C44.9257 93.2933 44.999 92.8933 45.1457 92.76ZM53.7987 97H56.5987C58.052 97 58.7787 97.7133 58.7787 99.14V107H56.4987C56.2853 107 56.112 106.927 55.9787 106.78C55.8453 106.633 55.7787 106.44 55.7787 106.2V99.1C55.7787 98.8867 55.7253 98.7333 55.6187 98.64C55.5253 98.5467 55.3053 98.5 54.9587 98.5H53.7987V97ZM50.2987 97H51.5187C52.1053 97 52.5453 97.1467 52.8387 97.44C53.1453 97.72 53.2987 98.0867 53.2987 98.54V107H51.0187C50.8053 107 50.632 106.927 50.4987 106.78C50.3653 106.633 50.2987 106.44 50.2987 106.2V97ZM65.9204 98.5H64.8404C64.4937 98.5 64.2671 98.5467 64.1604 98.64C64.0671 98.7333 64.0204 98.8867 64.0204 99.1V104.92C64.0204 105.12 64.0671 105.267 64.1604 105.36C64.2671 105.453 64.4937 105.5 64.8404 105.5H65.9204V107H63.9804C63.4737 107 63.0604 106.98 62.7404 106.94C62.4204 106.887 62.1404 106.78 61.9004 106.62C61.6604 106.46 61.4804 106.287 61.3604 106.1C61.2404 105.9 61.1404 105.587 61.0604 105.16C60.9671 104.56 60.9204 103.72 60.9204 102.64C60.9204 101.56 60.9271 100.833 60.9404 100.46C60.9537 100.073 60.9737 99.6667 61.0004 99.24C61.0404 98.8133 61.1004 98.5 61.1804 98.3C61.2737 98.1 61.3871 97.9 61.5204 97.7C61.6671 97.4867 61.8537 97.34 62.0804 97.26C62.5737 97.0867 63.2071 97 63.9804 97H65.9204V98.5ZM64.2204 108.28V109.34C64.2204 109.567 64.2537 109.72 64.3204 109.8C64.3871 109.893 64.5604 109.94 64.8404 109.94H65.9204V111.44H63.4004C61.9471 111.44 61.2204 110.727 61.2204 109.3V108.7C61.2204 108.5 61.2404 108.387 61.2804 108.36C61.3337 108.333 61.3671 108.313 61.3804 108.3C61.3937 108.3 61.4271 108.293 61.4804 108.28C61.5471 108.28 61.5937 108.28 61.6204 108.28C62.4871 108.28 63.3537 108.28 64.2204 108.28ZM66.5204 97H67.7404C68.3271 97 68.7671 97.1467 69.0604 97.44C69.3671 97.72 69.5204 98.0867 69.5204 98.54V109.92C69.5204 110.373 69.3671 110.74 69.0604 111.02C68.7671 111.313 68.3271 111.46 67.7404 111.46H66.5204V97ZM80.8032 98.5H79.7232C79.3099 98.5 79.0765 98.5733 79.0232 98.72C78.9432 98.8933 78.9032 99.14 78.9032 99.46V104.54C78.9032 104.567 78.9032 104.647 78.9032 104.78C78.9032 104.913 78.9165 105.027 78.9432 105.12C78.9965 105.373 79.2565 105.5 79.7232 105.5H80.8032V107H78.8632C78.3565 107 77.9432 106.98 77.6232 106.94C77.3032 106.887 77.0232 106.78 76.7832 106.62C76.5432 106.46 76.3632 106.287 76.2432 106.1C76.1232 105.9 76.0232 105.587 75.9432 105.16C75.8499 104.56 75.8032 103.72 75.8032 102.64C75.8032 101.56 75.8099 100.833 75.8232 100.46C75.8365 100.073 75.8565 99.6667 75.8832 99.24C75.9232 98.8133 75.9832 98.5 76.0632 98.3C76.1565 98.1 76.2699 97.9 76.4032 97.7C76.5499 97.4867 76.7365 97.34 76.9632 97.26C77.4565 97.0867 78.0899 97 78.8632 97H80.8032V98.5ZM85.3032 106.86C85.3032 106.953 85.2765 107 85.2232 107H83.5832C82.8365 107 82.2832 106.827 81.9232 106.48C81.5765 106.133 81.4032 105.567 81.4032 104.78V97H82.2232C83.0632 97 83.6365 97.2 83.9432 97.6C84.2499 97.9867 84.4032 98.5 84.4032 99.14V104.74C84.4032 105.153 84.4899 105.387 84.6632 105.44C84.7565 105.48 84.8832 105.5 85.0432 105.5H85.1432C85.2499 105.5 85.3032 105.547 85.3032 105.64V106.86ZM96.3818 97H98.6618C98.8751 97 99.0485 97.0733 99.1818 97.22C99.3151 97.3667 99.3818 97.56 99.3818 97.8V104.9C99.3818 105.113 99.4285 105.267 99.5218 105.36C99.6285 105.453 99.8551 105.5 100.202 105.5H101.282V107H98.5618C97.1085 107 96.3818 106.287 96.3818 104.86V97ZM90.9618 97H93.2418C93.4551 97 93.6285 97.0733 93.7618 97.22C93.8951 97.3667 93.9618 97.56 93.9618 97.8V104.9C93.9618 105.113 94.0085 105.267 94.1018 105.36C94.2085 105.453 94.4351 105.5 94.7818 105.5H95.8618V107H93.1418C91.6885 107 90.9618 106.287 90.9618 104.86V97ZM101.882 97H104.162C104.375 97 104.548 97.0733 104.682 97.22C104.815 97.3667 104.882 97.56 104.882 97.8V105.46C104.882 105.913 104.728 106.287 104.422 106.58C104.128 106.86 103.688 107 103.102 107H101.882V97ZM110.114 107H110.074C108.754 107 107.941 106.773 107.634 106.32C107.487 106.107 107.367 105.9 107.274 105.7C107.194 105.5 107.141 105.187 107.114 104.76C107.047 103.987 107.014 103.127 107.014 102.18C107.014 101.233 107.021 100.553 107.034 100.14C107.047 99.7133 107.087 99.2867 107.154 98.86C107.234 98.42 107.334 98.1067 107.454 97.92C107.574 97.72 107.754 97.54 107.994 97.38C108.234 97.22 108.514 97.12 108.834 97.08C109.154 97.0267 109.567 97 110.074 97H110.114V107ZM115.434 103.84V104.86C115.434 106.287 114.707 107 113.254 107H110.734V105.5H111.814C112.094 105.5 112.267 105.46 112.334 105.38C112.401 105.287 112.434 105.127 112.434 104.9V104.26C112.434 104.06 112.454 103.947 112.494 103.92C112.547 103.893 112.581 103.88 112.594 103.88C112.607 103.867 112.641 103.86 112.694 103.86C112.761 103.847 112.807 103.84 112.834 103.84C113.701 103.84 114.567 103.84 115.434 103.84ZM110.734 97H113.054C113.974 97 114.601 97.18 114.934 97.54C115.267 97.9 115.434 98.4333 115.434 99.14V100.9C115.434 102.1 114.781 102.7 113.474 102.7H110.534V101.2H111.614C111.934 101.2 112.147 101.16 112.254 101.08C112.374 101 112.434 100.847 112.434 100.62V99.1C112.434 98.8733 112.401 98.72 112.334 98.64C112.267 98.5467 112.094 98.5 111.814 98.5H110.734V97ZM120.525 107H119.305C118.718 107 118.271 106.86 117.965 106.58C117.671 106.287 117.525 105.913 117.525 105.46V94.08C117.525 93.6267 117.671 93.26 117.965 92.98C118.271 92.6867 118.718 92.54 119.305 92.54H120.525V107ZM121.125 97H123.065C123.571 97 123.985 97.0267 124.305 97.08C124.625 97.12 124.905 97.22 125.145 97.38C125.385 97.54 125.565 97.72 125.685 97.92C125.805 98.1067 125.905 98.4133 125.985 98.84C126.078 99.44 126.125 100.28 126.125 101.36C126.125 102.44 126.118 103.173 126.105 103.56C126.091 103.933 126.065 104.333 126.025 104.76C125.998 105.187 125.938 105.5 125.845 105.7C125.765 105.9 125.651 106.107 125.505 106.32C125.371 106.52 125.191 106.66 124.965 106.74C124.471 106.913 123.838 107 123.065 107H121.125V105.5H122.205C122.551 105.5 122.771 105.453 122.865 105.36C122.971 105.267 123.025 105.12 123.025 104.92V99.1C123.025 98.8867 122.971 98.7333 122.865 98.64C122.771 98.5467 122.551 98.5 122.205 98.5H121.125V97ZM131.046 97V100.66C131.046 100.887 131.08 101.047 131.146 101.14C131.213 101.22 131.386 101.26 131.666 101.26H132.786V102.76H130.226C128.773 102.76 128.046 102.047 128.046 100.62V99.22C128.046 98.34 128.266 97.7533 128.706 97.46C129.16 97.1533 129.94 97 131.046 97ZM131.086 103.84V104.9C131.086 105.127 131.12 105.287 131.186 105.38C131.253 105.46 131.426 105.5 131.706 105.5H132.786V107H130.266C128.813 107 128.086 106.287 128.086 104.86V104.26C128.086 104.06 128.106 103.947 128.146 103.92C128.2 103.893 128.233 103.88 128.246 103.88C128.26 103.867 128.293 103.86 128.346 103.86C128.413 103.847 128.453 103.84 128.466 103.84C129.346 103.84 130.22 103.84 131.086 103.84ZM133.386 101.26H134.206C135.66 101.26 136.386 101.973 136.386 103.4V104.78C136.386 105.66 136.16 106.253 135.706 106.56C135.266 106.853 134.493 107 133.386 107V101.26ZM131.646 97H134.166C135.62 97 136.346 97.7133 136.346 99.14V100.18C135.453 100.18 134.773 100.18 134.306 100.18C133.84 100.18 133.6 100.18 133.586 100.18C133.573 100.167 133.546 100.16 133.506 100.16C133.48 100.147 133.46 100.133 133.446 100.12C133.433 100.107 133.42 100.093 133.406 100.08C133.393 100.053 133.386 100.027 133.386 100C133.36 99.8933 133.346 99.8133 133.346 99.76V99.1C133.346 98.8733 133.313 98.72 133.246 98.64C133.18 98.5467 133.006 98.5 132.726 98.5H131.646V97ZM138.443 97.02H139.663C140.25 97.02 140.69 97.1667 140.983 97.46C141.29 97.74 141.443 98.1067 141.443 98.56V107H139.163C138.95 107 138.777 106.927 138.643 106.78C138.51 106.633 138.443 106.44 138.443 106.2V97.02ZM138.583 92.76C138.73 92.6133 139.157 92.54 139.863 92.54C140.57 92.54 140.997 92.6133 141.143 92.76C141.29 92.8933 141.363 93.2933 141.363 93.96C141.363 94.6267 141.283 95.0333 141.123 95.18C140.977 95.3267 140.557 95.4 139.863 95.4C139.17 95.4 138.743 95.3267 138.583 95.18C138.437 95.0333 138.363 94.6267 138.363 93.96C138.363 93.2933 138.437 92.8933 138.583 92.76ZM148.816 106.84C148.816 106.92 148.776 106.973 148.696 107H147.176C146.203 107 145.496 106.807 145.056 106.42C144.616 106.033 144.396 105.353 144.396 104.38V98.54H143.376C143.043 98.54 142.876 98.34 142.876 97.94V97H144.396V92.54H145.616C146.203 92.54 146.643 92.6867 146.936 92.98C147.243 93.2733 147.396 93.6467 147.396 94.1V104.74C147.396 105.233 147.676 105.48 148.236 105.48H148.656C148.763 105.48 148.816 105.527 148.816 105.62V106.84ZM149.436 97V97.94C149.436 98.34 149.27 98.54 148.936 98.54H147.896V97H149.436ZM153.708 107H153.668C152.348 107 151.535 106.773 151.228 106.32C151.081 106.107 150.961 105.9 150.868 105.7C150.788 105.5 150.735 105.187 150.708 104.76C150.641 103.987 150.608 103.127 150.608 102.18C150.608 101.233 150.615 100.553 150.628 100.14C150.641 99.7133 150.681 99.2867 150.748 98.86C150.828 98.42 150.928 98.1067 151.048 97.92C151.168 97.72 151.348 97.54 151.588 97.38C151.828 97.22 152.108 97.12 152.428 97.08C152.748 97.0267 153.161 97 153.668 97H153.708V107ZM159.028 103.84V104.86C159.028 106.287 158.301 107 156.848 107H154.328V105.5H155.408C155.688 105.5 155.861 105.46 155.928 105.38C155.995 105.287 156.028 105.127 156.028 104.9V104.26C156.028 104.06 156.048 103.947 156.088 103.92C156.141 103.893 156.175 103.88 156.188 103.88C156.201 103.867 156.235 103.86 156.288 103.86C156.355 103.847 156.401 103.84 156.428 103.84C157.295 103.84 158.161 103.84 159.028 103.84ZM154.328 97H156.648C157.568 97 158.195 97.18 158.528 97.54C158.861 97.9 159.028 98.4333 159.028 99.14V100.9C159.028 102.1 158.375 102.7 157.068 102.7H154.128V101.2H155.208C155.528 101.2 155.741 101.16 155.848 101.08C155.968 101 156.028 100.847 156.028 100.62V99.1C156.028 98.8733 155.995 98.72 155.928 98.64C155.861 98.5467 155.688 98.5 155.408 98.5H154.328V97ZM12.5537 121H14.8337C15.047 121 15.2203 121.073 15.3537 121.22C15.487 121.367 15.5537 121.56 15.5537 121.8V128.9C15.5537 129.113 15.6003 129.267 15.6937 129.36C15.8003 129.453 16.027 129.5 16.3737 129.5H17.4537V131H14.7337C13.2803 131 12.5537 130.287 12.5537 128.86V121ZM7.13367 121H9.41367C9.62701 121 9.80034 121.073 9.93367 121.22C10.067 121.367 10.1337 121.56 10.1337 121.8V128.9C10.1337 129.113 10.1803 129.267 10.2737 129.36C10.3803 129.453 10.607 129.5 10.9537 129.5H12.0337V131H9.31367C7.86034 131 7.13367 130.287 7.13367 128.86V121ZM18.0537 121H20.3337C20.547 121 20.7203 121.073 20.8537 121.22C20.987 121.367 21.0537 121.56 21.0537 121.8V129.46C21.0537 129.913 20.9003 130.287 20.5937 130.58C20.3003 130.86 19.8603 131 19.2737 131H18.0537V121ZM23.326 121.02H24.546C25.1327 121.02 25.5727 121.167 25.866 121.46C26.1727 121.74 26.326 122.107 26.326 122.56V131H24.046C23.8327 131 23.6593 130.927 23.526 130.78C23.3927 130.633 23.326 130.44 23.326 130.2V121.02ZM23.466 116.76C23.6127 116.613 24.0393 116.54 24.746 116.54C25.4527 116.54 25.8793 116.613 26.026 116.76C26.1727 116.893 26.246 117.293 26.246 117.96C26.246 118.627 26.166 119.033 26.006 119.18C25.8593 119.327 25.4393 119.4 24.746 119.4C24.0527 119.4 23.626 119.327 23.466 119.18C23.3193 119.033 23.246 118.627 23.246 117.96C23.246 117.293 23.3193 116.893 23.466 116.76ZM33.699 130.84C33.699 130.92 33.659 130.973 33.579 131H32.059C31.0857 131 30.379 130.807 29.939 130.42C29.499 130.033 29.279 129.353 29.279 128.38V122.54H28.259C27.9257 122.54 27.759 122.34 27.759 121.94V121H29.279V116.54H30.499C31.0857 116.54 31.5257 116.687 31.819 116.98C32.1257 117.273 32.279 117.647 32.279 118.1V128.74C32.279 129.233 32.559 129.48 33.119 129.48H33.539C33.6457 129.48 33.699 129.527 33.699 129.62V130.84ZM34.319 121V121.94C34.319 122.34 34.1523 122.54 33.819 122.54H32.779V121H34.319ZM39.1307 121H41.9307C43.384 121 44.1107 121.713 44.1107 123.14V131H41.8307C41.6174 131 41.444 130.927 41.3107 130.78C41.1774 130.633 41.1107 130.44 41.1107 130.2V123.1C41.1107 122.887 41.0574 122.733 40.9507 122.64C40.8574 122.547 40.6374 122.5 40.2907 122.5H39.1307V121ZM35.6307 116.54H36.8507C37.4374 116.54 37.8774 116.687 38.1707 116.98C38.4774 117.26 38.6307 117.627 38.6307 118.08V131H36.3507C36.1374 131 35.964 130.927 35.8307 130.78C35.6974 130.633 35.6307 130.44 35.6307 130.2V116.54ZM55.3201 130.84C55.3201 130.92 55.2801 130.973 55.2001 131H53.6801C52.7067 131 52.0001 130.807 51.5601 130.42C51.1201 130.033 50.9001 129.353 50.9001 128.38V122.54H49.8801C49.5467 122.54 49.3801 122.34 49.3801 121.94V121H50.9001V116.54H52.1201C52.7067 116.54 53.1467 116.687 53.4401 116.98C53.7467 117.273 53.9001 117.647 53.9001 118.1V128.74C53.9001 129.233 54.1801 129.48 54.7401 129.48H55.1601C55.2667 129.48 55.3201 129.527 55.3201 129.62V130.84ZM55.9401 121V121.94C55.9401 122.34 55.7734 122.54 55.4401 122.54H54.4001V121H55.9401ZM60.7518 121H63.5518C65.0051 121 65.7318 121.713 65.7318 123.14V131H63.4518C63.2385 131 63.0651 130.927 62.9318 130.78C62.7985 130.633 62.7318 130.44 62.7318 130.2V123.1C62.7318 122.887 62.6785 122.733 62.5718 122.64C62.4785 122.547 62.2585 122.5 61.9118 122.5H60.7518V121ZM57.2518 116.54H58.4718C59.0585 116.54 59.4985 116.687 59.7918 116.98C60.0985 117.26 60.2518 117.627 60.2518 118.08V131H57.9718C57.7585 131 57.5851 130.927 57.4518 130.78C57.3185 130.633 57.2518 130.44 57.2518 130.2V116.54ZM70.9735 131H70.9335C69.6135 131 68.8002 130.773 68.4935 130.32C68.3468 130.107 68.2268 129.9 68.1335 129.7C68.0535 129.5 68.0002 129.187 67.9735 128.76C67.9068 127.987 67.8735 127.127 67.8735 126.18C67.8735 125.233 67.8802 124.553 67.8935 124.14C67.9068 123.713 67.9468 123.287 68.0135 122.86C68.0935 122.42 68.1935 122.107 68.3135 121.92C68.4335 121.72 68.6135 121.54 68.8535 121.38C69.0935 121.22 69.3735 121.12 69.6935 121.08C70.0135 121.027 70.4268 121 70.9335 121H70.9735V131ZM76.2935 127.84V128.86C76.2935 130.287 75.5668 131 74.1135 131H71.5935V129.5H72.6735C72.9535 129.5 73.1268 129.46 73.1935 129.38C73.2602 129.287 73.2935 129.127 73.2935 128.9V128.26C73.2935 128.06 73.3135 127.947 73.3535 127.92C73.4068 127.893 73.4402 127.88 73.4535 127.88C73.4668 127.867 73.5002 127.86 73.5535 127.86C73.6202 127.847 73.6668 127.84 73.6935 127.84C74.5602 127.84 75.4268 127.84 76.2935 127.84ZM71.5935 121H73.9135C74.8335 121 75.4602 121.18 75.7935 121.54C76.1268 121.9 76.2935 122.433 76.2935 123.14V124.9C76.2935 126.1 75.6402 126.7 74.3335 126.7H71.3935V125.2H72.4735C72.7935 125.2 73.0068 125.16 73.1135 125.08C73.2335 125 73.2935 124.847 73.2935 124.62V123.1C73.2935 122.873 73.2602 122.72 73.1935 122.64C73.1268 122.547 72.9535 122.5 72.6735 122.5H71.5935V121ZM85.4852 131H85.4452C84.1252 131 83.3119 130.773 83.0052 130.32C82.8586 130.107 82.7386 129.9 82.6452 129.7C82.5652 129.5 82.5119 129.187 82.4852 128.76C82.4186 127.987 82.3852 127.127 82.3852 126.18C82.3852 125.233 82.3919 124.553 82.4052 124.14C82.4186 123.713 82.4586 123.287 82.5252 122.86C82.6052 122.42 82.7052 122.107 82.8252 121.92C82.9452 121.72 83.1252 121.54 83.3652 121.38C83.6052 121.22 83.8852 121.12 84.2052 121.08C84.5252 121.027 84.9386 121 85.4452 121H85.4852V131ZM87.8052 127.84C88.6986 127.84 89.3786 127.84 89.8452 127.84C90.3119 127.84 90.5519 127.847 90.5652 127.86C90.5786 127.86 90.5986 127.867 90.6252 127.88C90.6652 127.88 90.6919 127.887 90.7052 127.9C90.7186 127.913 90.7319 127.933 90.7452 127.96C90.7586 127.973 90.7652 128 90.7652 128.04C90.7919 128.133 90.8052 128.207 90.8052 128.26V128.86C90.8052 130.287 90.0786 131 88.6252 131H86.1052V129.5H87.1852C87.4652 129.5 87.6386 129.46 87.7052 129.38C87.7719 129.287 87.8052 129.127 87.8052 128.9V127.84ZM86.1052 121H88.6252C90.0786 121 90.8052 121.713 90.8052 123.14V124.5C89.9119 124.5 89.2319 124.5 88.7652 124.5C88.2986 124.5 88.0586 124.5 88.0452 124.5C88.0319 124.487 88.0052 124.48 87.9652 124.48C87.9386 124.467 87.9186 124.453 87.9052 124.44C87.8919 124.427 87.8786 124.413 87.8652 124.4C87.8519 124.373 87.8452 124.347 87.8452 124.32C87.8186 124.213 87.8052 124.133 87.8052 124.08V123.1C87.8052 122.873 87.7719 122.72 87.7052 122.64C87.6386 122.547 87.4652 122.5 87.1852 122.5H86.1052V121ZM94.9582 121H97.3582C97.4382 121 97.4782 121.047 97.4782 121.14V122.36C97.4782 122.453 97.4249 122.5 97.3182 122.5H96.4182C96.0982 122.5 95.9115 122.56 95.8582 122.68C95.8049 122.853 95.7782 123.047 95.7782 123.26V129.46C95.7782 129.913 95.6249 130.287 95.3182 130.58C95.0249 130.86 94.5849 131 93.9982 131H92.7782V123.22C92.7782 122.433 92.9515 121.867 93.2982 121.52C93.6582 121.173 94.2115 121 94.9582 121ZM101.97 131H101.93C100.61 131 99.7963 130.773 99.4896 130.32C99.3429 130.107 99.2229 129.9 99.1296 129.7C99.0496 129.5 98.9963 129.187 98.9696 128.76C98.9029 127.987 98.8696 127.127 98.8696 126.18C98.8696 125.233 98.8763 124.553 98.8896 124.14C98.9029 123.713 98.9429 123.287 99.0096 122.86C99.0896 122.42 99.1896 122.107 99.3096 121.92C99.4296 121.72 99.6096 121.54 99.8496 121.38C100.09 121.22 100.37 121.12 100.69 121.08C101.01 121.027 101.423 121 101.93 121H101.97V131ZM107.29 127.84V128.86C107.29 130.287 106.563 131 105.11 131H102.59V129.5H103.67C103.95 129.5 104.123 129.46 104.19 129.38C104.256 129.287 104.29 129.127 104.29 128.9V128.26C104.29 128.06 104.31 127.947 104.35 127.92C104.403 127.893 104.436 127.88 104.45 127.88C104.463 127.867 104.496 127.86 104.55 127.86C104.616 127.847 104.663 127.84 104.69 127.84C105.556 127.84 106.423 127.84 107.29 127.84ZM102.59 121H104.91C105.83 121 106.456 121.18 106.79 121.54C107.123 121.9 107.29 122.433 107.29 123.14V124.9C107.29 126.1 106.636 126.7 105.33 126.7H102.39V125.2H103.47C103.79 125.2 104.003 125.16 104.11 125.08C104.23 125 104.29 124.847 104.29 124.62V123.1C104.29 122.873 104.256 122.72 104.19 122.64C104.123 122.547 103.95 122.5 103.67 122.5H102.59V121ZM114.26 122.5H113.18C112.767 122.5 112.534 122.573 112.48 122.72C112.4 122.893 112.36 123.14 112.36 123.46V128.54C112.36 128.567 112.36 128.647 112.36 128.78C112.36 128.913 112.374 129.027 112.4 129.12C112.454 129.373 112.714 129.5 113.18 129.5H114.26V131H112.32C111.814 131 111.4 130.98 111.08 130.94C110.76 130.887 110.48 130.78 110.24 130.62C110 130.46 109.82 130.287 109.7 130.1C109.58 129.9 109.48 129.587 109.4 129.16C109.307 128.56 109.26 127.72 109.26 126.64C109.26 125.56 109.267 124.833 109.28 124.46C109.294 124.073 109.314 123.667 109.34 123.24C109.38 122.813 109.44 122.5 109.52 122.3C109.614 122.1 109.727 121.9 109.86 121.7C110.007 121.487 110.194 121.34 110.42 121.26C110.914 121.087 111.547 121 112.32 121H114.26V122.5ZM118.76 130.86C118.76 130.953 118.734 131 118.68 131H117.04C116.294 131 115.74 130.827 115.38 130.48C115.034 130.133 114.86 129.567 114.86 128.78V121H115.68C116.52 121 117.094 121.2 117.4 121.6C117.707 121.987 117.86 122.5 117.86 123.14V128.74C117.86 129.153 117.947 129.387 118.12 129.44C118.214 129.48 118.34 129.5 118.5 129.5H118.6C118.707 129.5 118.76 129.547 118.76 129.64V130.86ZM125.418 130.84C125.418 130.92 125.378 130.973 125.298 131H123.778C122.804 131 122.098 130.807 121.658 130.42C121.218 130.033 120.998 129.353 120.998 128.38V122.54H119.978C119.644 122.54 119.478 122.34 119.478 121.94V121H120.998V116.54H122.218C122.804 116.54 123.244 116.687 123.538 116.98C123.844 117.273 123.998 117.647 123.998 118.1V128.74C123.998 129.233 124.278 129.48 124.838 129.48H125.258C125.364 129.48 125.418 129.527 125.418 129.62V130.84ZM126.038 121V121.94C126.038 122.34 125.871 122.54 125.538 122.54H124.498V121H126.038ZM127.349 121.02H128.569C129.156 121.02 129.596 121.167 129.889 121.46C130.196 121.74 130.349 122.107 130.349 122.56V131H128.069C127.856 131 127.683 130.927 127.549 130.78C127.416 130.633 127.349 130.44 127.349 130.2V121.02ZM127.489 116.76C127.636 116.613 128.063 116.54 128.769 116.54C129.476 116.54 129.903 116.613 130.049 116.76C130.196 116.893 130.269 117.293 130.269 117.96C130.269 118.627 130.189 119.033 130.029 119.18C129.883 119.327 129.463 119.4 128.769 119.4C128.076 119.4 127.649 119.327 127.489 119.18C127.343 119.033 127.269 118.627 127.269 117.96C127.269 117.293 127.343 116.893 127.489 116.76ZM136.202 121H138.142C138.649 121 139.062 121.027 139.382 121.08C139.702 121.12 139.982 121.22 140.222 121.38C140.462 121.54 140.642 121.72 140.762 121.92C140.882 122.107 140.976 122.413 141.042 122.84C141.149 123.44 141.202 124.28 141.202 125.36C141.202 126.44 141.196 127.173 141.182 127.56C141.169 127.933 141.142 128.333 141.102 128.76C141.076 129.187 141.016 129.5 140.922 129.7C140.842 129.9 140.729 130.107 140.582 130.32C140.449 130.52 140.269 130.66 140.042 130.74C139.549 130.913 138.916 131 138.142 131H138.102V123.46C138.102 123.433 138.102 123.353 138.102 123.22C138.102 123.087 138.096 122.973 138.082 122.88C138.016 122.627 137.749 122.5 137.282 122.5H136.202V121ZM135.602 121V128.54C135.602 128.567 135.602 128.647 135.602 128.78C135.602 128.913 135.616 129.027 135.642 129.12C135.696 129.373 135.956 129.5 136.422 129.5H137.502V131H135.562C135.056 131 134.642 130.98 134.322 130.94C134.002 130.887 133.722 130.78 133.482 130.62C133.242 130.46 133.062 130.287 132.942 130.1C132.822 129.9 132.722 129.587 132.642 129.16C132.549 128.56 132.502 127.72 132.502 126.64C132.502 125.56 132.509 124.833 132.522 124.46C132.536 124.073 132.556 123.667 132.582 123.24C132.622 122.813 132.682 122.5 132.762 122.3C132.856 122.1 132.969 121.9 133.102 121.7C133.249 121.487 133.436 121.34 133.662 121.26C134.156 121.087 134.789 121 135.562 121H135.602ZM146.885 121H149.685C151.138 121 151.865 121.713 151.865 123.14V131H149.585C149.371 131 149.198 130.927 149.065 130.78C148.931 130.633 148.865 130.44 148.865 130.2V123.1C148.865 122.887 148.811 122.733 148.705 122.64C148.611 122.547 148.391 122.5 148.045 122.5H146.885V121ZM143.385 121H144.605C145.191 121 145.631 121.147 145.925 121.44C146.231 121.72 146.385 122.087 146.385 122.54V131H144.105C143.891 131 143.718 130.927 143.585 130.78C143.451 130.633 143.385 130.44 143.385 130.2V121ZM6.89578 145H8.83578C9.34245 145 9.75578 145.027 10.0758 145.08C10.3958 145.12 10.6758 145.22 10.9158 145.38C11.1558 145.54 11.3358 145.72 11.4558 145.92C11.5758 146.107 11.6691 146.413 11.7358 146.84C11.8424 147.44 11.8958 148.28 11.8958 149.36C11.8958 150.44 11.8891 151.173 11.8758 151.56C11.8624 151.933 11.8358 152.333 11.7958 152.76C11.7691 153.187 11.7091 153.5 11.6158 153.7C11.5358 153.9 11.4224 154.107 11.2758 154.32C11.1424 154.52 10.9624 154.66 10.7358 154.74C10.2424 154.913 9.60912 155 8.83578 155H8.79578V147.46C8.79578 147.433 8.79578 147.353 8.79578 147.22C8.79578 147.087 8.78912 146.973 8.77578 146.88C8.70911 146.627 8.44245 146.5 7.97578 146.5H6.89578V145ZM6.29578 145V152.54C6.29578 152.567 6.29578 152.647 6.29578 152.78C6.29578 152.913 6.30911 153.027 6.33578 153.12C6.38911 153.373 6.64911 153.5 7.11578 153.5H8.19578V155H6.25578C5.74911 155 5.33578 154.98 5.01578 154.94C4.69578 154.887 4.41578 154.78 4.17578 154.62C3.93578 154.46 3.75578 154.287 3.63578 154.1C3.51578 153.9 3.41578 153.587 3.33578 153.16C3.24245 152.56 3.19578 151.72 3.19578 150.64C3.19578 149.56 3.20245 148.833 3.21578 148.46C3.22911 148.073 3.24911 147.667 3.27578 147.24C3.31578 146.813 3.37578 146.5 3.45578 146.3C3.54911 146.1 3.66245 145.9 3.79578 145.7C3.94245 145.487 4.12911 145.34 4.35578 145.26C4.84911 145.087 5.48245 145 6.25578 145H6.29578ZM17.538 140.54H19.458C19.538 140.553 19.578 140.607 19.578 140.7V141.92C19.578 142.013 19.5246 142.06 19.418 142.06H18.598C18.038 142.06 17.758 142.307 17.758 142.8V155H16.538C15.9513 155 15.5046 154.853 15.198 154.56C14.9046 154.267 14.758 153.893 14.758 153.44V146.54H13.738C13.4046 146.54 13.238 146.34 13.238 145.94V145H14.758V143.16C14.758 142.187 14.978 141.507 15.418 141.12C15.858 140.733 16.5646 140.54 17.538 140.54ZM19.598 145V145.94C19.598 146.34 19.4313 146.54 19.098 146.54H18.198V145H19.598ZM28.3802 145H30.3202C30.8268 145 31.2402 145.027 31.5602 145.08C31.8802 145.12 32.1602 145.22 32.4002 145.38C32.6402 145.54 32.8202 145.72 32.9402 145.92C33.0602 146.107 33.1535 146.413 33.2202 146.84C33.3268 147.44 33.3802 148.28 33.3802 149.36C33.3802 150.44 33.3735 151.173 33.3602 151.56C33.3468 151.933 33.3202 152.333 33.2802 152.76C33.2535 153.187 33.1935 153.5 33.1002 153.7C33.0202 153.9 32.9068 154.107 32.7602 154.32C32.6268 154.52 32.4468 154.66 32.2202 154.74C31.7268 154.913 31.0935 155 30.3202 155H30.2802V147.46C30.2802 147.433 30.2802 147.353 30.2802 147.22C30.2802 147.087 30.2735 146.973 30.2602 146.88C30.1935 146.627 29.9268 146.5 29.4602 146.5H28.3802V145ZM27.7802 145V152.54C27.7802 152.567 27.7802 152.647 27.7802 152.78C27.7802 152.913 27.7935 153.027 27.8202 153.12C27.8735 153.373 28.1335 153.5 28.6002 153.5H29.6802V155H27.7402C27.2335 155 26.8202 154.98 26.5002 154.94C26.1802 154.887 25.9002 154.78 25.6602 154.62C25.4202 154.46 25.2402 154.287 25.1202 154.1C25.0002 153.9 24.9002 153.587 24.8202 153.16C24.7268 152.56 24.6802 151.72 24.6802 150.64C24.6802 149.56 24.6868 148.833 24.7002 148.46C24.7135 148.073 24.7335 147.667 24.7602 147.24C24.8002 146.813 24.8602 146.5 24.9402 146.3C25.0335 146.1 25.1468 145.9 25.2802 145.7C25.4268 145.487 25.6135 145.34 25.8402 145.26C26.3335 145.087 26.9668 145 27.7402 145H27.7802ZM35.5223 145H37.8023C38.0157 145 38.189 145.073 38.3223 145.22C38.4557 145.367 38.5223 145.56 38.5223 145.8V152.9C38.5223 153.113 38.569 153.267 38.6623 153.36C38.769 153.453 38.9957 153.5 39.3423 153.5H40.5023V155H37.7023C36.249 155 35.5223 154.287 35.5223 152.86V145ZM44.9023 154.86C44.9023 154.953 44.869 155 44.8023 155H42.7823C42.1957 155 41.749 154.86 41.4423 154.58C41.149 154.287 41.0023 153.913 41.0023 153.46V145H43.2823C43.4957 145 43.669 145.073 43.8023 145.22C43.9357 145.367 44.0023 145.56 44.0023 145.8V152.74C44.0023 153.153 44.089 153.387 44.2623 153.44C44.3557 153.48 44.4823 153.5 44.6423 153.5H44.7423C44.849 153.5 44.9023 153.547 44.9023 153.64V154.86ZM48.6594 145H51.0594C51.1394 145 51.1794 145.047 51.1794 145.14V146.36C51.1794 146.453 51.126 146.5 51.0194 146.5H50.1194C49.7994 146.5 49.6127 146.56 49.5594 146.68C49.506 146.853 49.4794 147.047 49.4794 147.26V153.46C49.4794 153.913 49.326 154.287 49.0194 154.58C48.726 154.86 48.286 155 47.6994 155H46.4794V147.22C46.4794 146.433 46.6527 145.867 46.9994 145.52C47.3594 145.173 47.9127 145 48.6594 145ZM61.3989 146.5H60.3189C59.9722 146.5 59.7456 146.547 59.6389 146.64C59.5456 146.733 59.4989 146.887 59.4989 147.1V152.92C59.4989 153.12 59.5456 153.267 59.6389 153.36C59.7456 153.453 59.9722 153.5 60.3189 153.5H61.3989V155H59.4589C58.1389 155 57.3256 154.773 57.0189 154.32C56.8722 154.107 56.7522 153.9 56.6589 153.7C56.5789 153.5 56.5256 153.187 56.4989 152.76C56.4322 151.987 56.3989 151.127 56.3989 150.18C56.3989 149.233 56.4056 148.553 56.4189 148.14C56.4322 147.713 56.4722 147.287 56.5389 146.86C56.6189 146.42 56.7189 146.107 56.8389 145.92C56.9589 145.72 57.1389 145.54 57.3789 145.38C57.6189 145.22 57.8989 145.12 58.2189 145.08C58.5389 145.027 58.9522 145 59.4589 145H61.3989V146.5ZM61.9989 140.54H63.2189C63.8056 140.54 64.2456 140.687 64.5389 140.98C64.8456 141.26 64.9989 141.627 64.9989 142.08V153.46C64.9989 153.913 64.8456 154.287 64.5389 154.58C64.2456 154.86 63.8056 155 63.2189 155H61.9989V140.54ZM70.2606 155H70.2206C68.9006 155 68.0873 154.773 67.7806 154.32C67.634 154.107 67.514 153.9 67.4206 153.7C67.3406 153.5 67.2873 153.187 67.2606 152.76C67.194 151.987 67.1606 151.127 67.1606 150.18C67.1606 149.233 67.1673 148.553 67.1806 148.14C67.194 147.713 67.234 147.287 67.3006 146.86C67.3806 146.42 67.4806 146.107 67.6006 145.92C67.7206 145.72 67.9006 145.54 68.1406 145.38C68.3806 145.22 68.6606 145.12 68.9806 145.08C69.3006 145.027 69.714 145 70.2206 145H70.2606V155ZM75.5806 151.84V152.86C75.5806 154.287 74.854 155 73.4006 155H70.8806V153.5H71.9606C72.2406 153.5 72.414 153.46 72.4806 153.38C72.5473 153.287 72.5806 153.127 72.5806 152.9V152.26C72.5806 152.06 72.6006 151.947 72.6406 151.92C72.694 151.893 72.7273 151.88 72.7406 151.88C72.754 151.867 72.7873 151.86 72.8406 151.86C72.9073 151.847 72.954 151.84 72.9806 151.84C73.8473 151.84 74.714 151.84 75.5806 151.84ZM70.8806 145H73.2006C74.1206 145 74.7473 145.18 75.0806 145.54C75.414 145.9 75.5806 146.433 75.5806 147.14V148.9C75.5806 150.1 74.9273 150.7 73.6206 150.7H70.6806V149.2H71.7606C72.0806 149.2 72.294 149.16 72.4006 149.08C72.5206 149 72.5806 148.847 72.5806 148.62V147.1C72.5806 146.873 72.5473 146.72 72.4806 146.64C72.414 146.547 72.2406 146.5 71.9606 146.5H70.8806V145ZM80.4313 145V148.66C80.4313 148.887 80.4646 149.047 80.5313 149.14C80.5979 149.22 80.7713 149.26 81.0513 149.26H82.1713V150.76H79.6113C78.1579 150.76 77.4313 150.047 77.4313 148.62V147.22C77.4313 146.34 77.6513 145.753 78.0913 145.46C78.5446 145.153 79.3246 145 80.4313 145ZM80.4713 151.84V152.9C80.4713 153.127 80.5046 153.287 80.5713 153.38C80.6379 153.46 80.8113 153.5 81.0913 153.5H82.1713V155H79.6513C78.1979 155 77.4713 154.287 77.4713 152.86V152.26C77.4713 152.06 77.4913 151.947 77.5313 151.92C77.5846 151.893 77.6179 151.88 77.6313 151.88C77.6446 151.867 77.6779 151.86 77.7313 151.86C77.7979 151.847 77.8379 151.84 77.8512 151.84C78.7312 151.84 79.6046 151.84 80.4713 151.84ZM82.7713 149.26H83.5913C85.0446 149.26 85.7713 149.973 85.7713 151.4V152.78C85.7713 153.66 85.5446 154.253 85.0913 154.56C84.6513 154.853 83.8779 155 82.7713 155V149.26ZM81.0313 145H83.5513C85.0046 145 85.7313 145.713 85.7313 147.14V148.18C84.8379 148.18 84.1579 148.18 83.6913 148.18C83.2246 148.18 82.9846 148.18 82.9713 148.18C82.9579 148.167 82.9313 148.16 82.8913 148.16C82.8646 148.147 82.8446 148.133 82.8313 148.12C82.8179 148.107 82.8046 148.093 82.7913 148.08C82.7779 148.053 82.7713 148.027 82.7713 148C82.7446 147.893 82.7313 147.813 82.7313 147.76V147.1C82.7313 146.873 82.6979 146.72 82.6313 146.64C82.5646 146.547 82.3913 146.5 82.1113 146.5H81.0313V145ZM87.828 145.02H89.048C89.6346 145.02 90.0746 145.167 90.368 145.46C90.6746 145.74 90.828 146.107 90.828 146.56V155H88.548C88.3346 155 88.1613 154.927 88.028 154.78C87.8946 154.633 87.828 154.44 87.828 154.2V145.02ZM87.968 140.76C88.1146 140.613 88.5413 140.54 89.248 140.54C89.9546 140.54 90.3813 140.613 90.528 140.76C90.6746 140.893 90.748 141.293 90.748 141.96C90.748 142.627 90.668 143.033 90.508 143.18C90.3613 143.327 89.9413 143.4 89.248 143.4C88.5546 143.4 88.128 143.327 87.968 143.18C87.8213 143.033 87.748 142.627 87.748 141.96C87.748 141.293 87.8213 140.893 87.968 140.76ZM97.9809 146.5H96.9009C96.5543 146.5 96.3276 146.547 96.2209 146.64C96.1276 146.733 96.0809 146.887 96.0809 147.1V152.92C96.0809 153.12 96.1276 153.267 96.2209 153.36C96.3276 153.453 96.5543 153.5 96.9009 153.5H97.9809V155H96.0409C95.5343 155 95.1209 154.98 94.8009 154.94C94.4809 154.887 94.2009 154.78 93.9609 154.62C93.7209 154.46 93.5409 154.287 93.4209 154.1C93.3009 153.9 93.2009 153.587 93.1209 153.16C93.0276 152.56 92.9809 151.72 92.9809 150.64C92.9809 149.56 92.9876 148.833 93.0009 148.46C93.0143 148.073 93.0343 147.667 93.0609 147.24C93.1009 146.813 93.1609 146.5 93.2409 146.3C93.3343 146.1 93.4476 145.9 93.5809 145.7C93.7276 145.487 93.9143 145.34 94.1409 145.26C94.6343 145.087 95.2676 145 96.0409 145H97.9809V146.5ZM96.2809 156.28V157.34C96.2809 157.567 96.3143 157.72 96.3809 157.8C96.4476 157.893 96.6209 157.94 96.9009 157.94H97.9809V159.44H95.4609C94.0076 159.44 93.2809 158.727 93.2809 157.3V156.7C93.2809 156.5 93.3009 156.387 93.3409 156.36C93.3943 156.333 93.4276 156.313 93.4409 156.3C93.4543 156.3 93.4876 156.293 93.5409 156.28C93.6076 156.28 93.6543 156.28 93.6809 156.28C94.5476 156.28 95.4143 156.28 96.2809 156.28ZM98.5809 145H99.8009C100.388 145 100.828 145.147 101.121 145.44C101.428 145.72 101.581 146.087 101.581 146.54V157.92C101.581 158.373 101.428 158.74 101.121 159.02C100.828 159.313 100.388 159.46 99.8009 159.46H98.5809V145ZM107.383 145H110.183C111.636 145 112.363 145.713 112.363 147.14V155H110.083C109.869 155 109.696 154.927 109.563 154.78C109.429 154.633 109.363 154.44 109.363 154.2V147.1C109.363 146.887 109.309 146.733 109.203 146.64C109.109 146.547 108.889 146.5 108.543 146.5H107.383V145ZM103.883 145H105.103C105.689 145 106.129 145.147 106.423 145.44C106.729 145.72 106.883 146.087 106.883 146.54V155H104.603C104.389 155 104.216 154.927 104.083 154.78C103.949 154.633 103.883 154.44 103.883 154.2V145ZM124.145 145H126.425C126.639 145 126.812 145.073 126.945 145.22C127.079 145.367 127.145 145.56 127.145 145.8V152.9C127.145 153.113 127.192 153.267 127.285 153.36C127.392 153.453 127.619 153.5 127.965 153.5H129.045V155H126.325C124.872 155 124.145 154.287 124.145 152.86V145ZM118.725 145H121.005C121.219 145 121.392 145.073 121.525 145.22C121.659 145.367 121.725 145.56 121.725 145.8V152.9C121.725 153.113 121.772 153.267 121.865 153.36C121.972 153.453 122.199 153.5 122.545 153.5H123.625V155H120.905C119.452 155 118.725 154.287 118.725 152.86V145ZM129.645 145H131.925C132.139 145 132.312 145.073 132.445 145.22C132.579 145.367 132.645 145.56 132.645 145.8V153.46C132.645 153.913 132.492 154.287 132.185 154.58C131.892 154.86 131.452 155 130.865 155H129.645V145ZM134.918 145.02H136.138C136.724 145.02 137.164 145.167 137.458 145.46C137.764 145.74 137.918 146.107 137.918 146.56V155H135.638C135.424 155 135.251 154.927 135.118 154.78C134.984 154.633 134.918 154.44 134.918 154.2V145.02ZM135.058 140.76C135.204 140.613 135.631 140.54 136.338 140.54C137.044 140.54 137.471 140.613 137.618 140.76C137.764 140.893 137.838 141.293 137.838 141.96C137.838 142.627 137.758 143.033 137.598 143.18C137.451 143.327 137.031 143.4 136.338 143.4C135.644 143.4 135.218 143.327 135.058 143.18C134.911 143.033 134.838 142.627 134.838 141.96C134.838 141.293 134.911 140.893 135.058 140.76ZM145.291 154.84C145.291 154.92 145.251 154.973 145.171 155H143.651C142.677 155 141.971 154.807 141.531 154.42C141.091 154.033 140.871 153.353 140.871 152.38V146.54H139.851C139.517 146.54 139.351 146.34 139.351 145.94V145H140.871V140.54H142.091C142.677 140.54 143.117 140.687 143.411 140.98C143.717 141.273 143.871 141.647 143.871 142.1V152.74C143.871 153.233 144.151 153.48 144.711 153.48H145.131C145.237 153.48 145.291 153.527 145.291 153.62V154.84ZM145.911 145V145.94C145.911 146.34 145.744 146.54 145.411 146.54H144.371V145H145.911ZM150.723 145H153.523C154.976 145 155.703 145.713 155.703 147.14V155H153.423C153.209 155 153.036 154.927 152.903 154.78C152.769 154.633 152.703 154.44 152.703 154.2V147.1C152.703 146.887 152.649 146.733 152.543 146.64C152.449 146.547 152.229 146.5 151.883 146.5H150.723V145ZM147.223 140.54H148.443C149.029 140.54 149.469 140.687 149.763 140.98C150.069 141.26 150.223 141.627 150.223 142.08V155H147.943C147.729 155 147.556 154.927 147.423 154.78C147.289 154.633 147.223 154.44 147.223 154.2V140.54ZM27.0848 169H29.3648C29.5782 169 29.7515 169.073 29.8848 169.22C30.0182 169.367 30.0848 169.56 30.0848 169.8V176.9C30.0848 177.113 30.1315 177.267 30.2248 177.36C30.3315 177.453 30.5582 177.5 30.9048 177.5H31.9848V179H29.2648C27.8115 179 27.0848 178.287 27.0848 176.86V169ZM30.2848 180.28V181.34C30.2848 181.567 30.3182 181.72 30.3848 181.8C30.4515 181.893 30.6248 181.94 30.9048 181.94H31.9848V183.44H29.4648C28.0115 183.44 27.2848 182.727 27.2848 181.3V180.7C27.2848 180.5 27.3048 180.387 27.3448 180.36C27.3982 180.333 27.4315 180.313 27.4448 180.3C27.4582 180.3 27.4915 180.293 27.5448 180.28C27.6115 180.28 27.6582 180.28 27.6848 180.28C28.5515 180.28 29.4182 180.28 30.2848 180.28ZM32.5848 169H33.8048C34.3915 169 34.8315 169.147 35.1248 169.44C35.4315 169.72 35.5848 170.087 35.5848 170.54V181.92C35.5848 182.373 35.4315 182.74 35.1248 183.02C34.8315 183.313 34.3915 183.46 33.8048 183.46H32.5848V169ZM41.4466 169H43.3866C43.8932 169 44.3066 169.027 44.6266 169.08C44.9466 169.12 45.2266 169.22 45.4666 169.38C45.7066 169.54 45.8866 169.72 46.0066 169.92C46.1266 170.107 46.2199 170.413 46.2866 170.84C46.3932 171.44 46.4466 172.28 46.4466 173.36C46.4466 174.44 46.4399 175.173 46.4266 175.56C46.4132 175.933 46.3866 176.333 46.3466 176.76C46.3199 177.187 46.2599 177.5 46.1666 177.7C46.0866 177.9 45.9732 178.107 45.8266 178.32C45.6932 178.52 45.5132 178.66 45.2866 178.74C44.7932 178.913 44.1599 179 43.3866 179H43.3466V171.46C43.3466 171.433 43.3466 171.353 43.3466 171.22C43.3466 171.087 43.3399 170.973 43.3266 170.88C43.2599 170.627 42.9932 170.5 42.5266 170.5H41.4466V169ZM40.8466 169V176.54C40.8466 176.567 40.8466 176.647 40.8466 176.78C40.8466 176.913 40.8599 177.027 40.8866 177.12C40.9399 177.373 41.1999 177.5 41.6666 177.5H42.7466V179H40.8066C40.2999 179 39.8866 178.98 39.5666 178.94C39.2466 178.887 38.9666 178.78 38.7266 178.62C38.4866 178.46 38.3066 178.287 38.1866 178.1C38.0666 177.9 37.9666 177.587 37.8866 177.16C37.7932 176.56 37.7466 175.72 37.7466 174.64C37.7466 173.56 37.7532 172.833 37.7666 172.46C37.7799 172.073 37.7999 171.667 37.8266 171.24C37.8666 170.813 37.9266 170.5 38.0066 170.3C38.0999 170.1 38.2132 169.9 38.3466 169.7C38.4932 169.487 38.6799 169.34 38.9066 169.26C39.3999 169.087 40.0332 169 40.8066 169H40.8466ZM48.5888 169H50.8688C51.0821 169 51.2554 169.073 51.3888 169.22C51.5221 169.367 51.5888 169.56 51.5888 169.8V176.9C51.5888 177.113 51.6354 177.267 51.7288 177.36C51.8354 177.453 52.0621 177.5 52.4088 177.5H53.5688V179H50.7688C49.3154 179 48.5888 178.287 48.5888 176.86V169ZM57.9688 178.86C57.9688 178.953 57.9354 179 57.8688 179H55.8488C55.2621 179 54.8154 178.86 54.5088 178.58C54.2154 178.287 54.0688 177.913 54.0688 177.46V169H56.3488C56.5621 169 56.7354 169.073 56.8688 169.22C57.0021 169.367 57.0688 169.56 57.0688 169.8V176.74C57.0688 177.153 57.1554 177.387 57.3288 177.44C57.4221 177.48 57.5488 177.5 57.7088 177.5H57.8088C57.9154 177.5 57.9688 177.547 57.9688 177.64V178.86ZM61.7258 169H64.1258C64.2058 169 64.2458 169.047 64.2458 169.14V170.36C64.2458 170.453 64.1924 170.5 64.0858 170.5H63.1858C62.8658 170.5 62.6791 170.56 62.6258 170.68C62.5724 170.853 62.5458 171.047 62.5458 171.26V177.46C62.5458 177.913 62.3924 178.287 62.0858 178.58C61.7924 178.86 61.3524 179 60.7658 179H59.5458V171.22C59.5458 170.433 59.7191 169.867 60.0658 169.52C60.4258 169.173 60.9791 169 61.7258 169ZM74.4653 170.5H73.3853C73.0386 170.5 72.812 170.547 72.7053 170.64C72.612 170.733 72.5653 170.887 72.5653 171.1V176.92C72.5653 177.12 72.612 177.267 72.7053 177.36C72.812 177.453 73.0386 177.5 73.3853 177.5H74.4653V179H72.5253C71.2053 179 70.392 178.773 70.0853 178.32C69.9386 178.107 69.8186 177.9 69.7253 177.7C69.6453 177.5 69.592 177.187 69.5653 176.76C69.4986 175.987 69.4653 175.127 69.4653 174.18C69.4653 173.233 69.472 172.553 69.4853 172.14C69.4986 171.713 69.5386 171.287 69.6053 170.86C69.6853 170.42 69.7853 170.107 69.9053 169.92C70.0253 169.72 70.2053 169.54 70.4453 169.38C70.6853 169.22 70.9653 169.12 71.2853 169.08C71.6053 169.027 72.0186 169 72.5253 169H74.4653V170.5ZM75.0653 164.54H76.2853C76.872 164.54 77.312 164.687 77.6053 164.98C77.912 165.26 78.0653 165.627 78.0653 166.08V177.46C78.0653 177.913 77.912 178.287 77.6053 178.58C77.312 178.86 76.872 179 76.2853 179H75.0653V164.54ZM83.927 169H85.867C86.3737 169 86.787 169.027 87.107 169.08C87.427 169.12 87.707 169.22 87.947 169.38C88.187 169.54 88.367 169.72 88.487 169.92C88.607 170.107 88.7004 170.413 88.767 170.84C88.8737 171.44 88.927 172.28 88.927 173.36C88.927 174.44 88.9204 175.173 88.907 175.56C88.8937 175.933 88.867 176.333 88.827 176.76C88.8004 177.187 88.7404 177.5 88.647 177.7C88.567 177.9 88.4537 178.107 88.307 178.32C88.1737 178.52 87.9937 178.66 87.767 178.74C87.2737 178.913 86.6404 179 85.867 179H85.827V171.46C85.827 171.433 85.827 171.353 85.827 171.22C85.827 171.087 85.8204 170.973 85.807 170.88C85.7404 170.627 85.4737 170.5 85.007 170.5H83.927V169ZM83.327 169V176.54C83.327 176.567 83.327 176.647 83.327 176.78C83.327 176.913 83.3404 177.027 83.367 177.12C83.4204 177.373 83.6804 177.5 84.147 177.5H85.227V179H83.287C82.7804 179 82.367 178.98 82.047 178.94C81.727 178.887 81.447 178.78 81.207 178.62C80.967 178.46 80.787 178.287 80.667 178.1C80.547 177.9 80.447 177.587 80.367 177.16C80.2737 176.56 80.227 175.72 80.227 174.64C80.227 173.56 80.2337 172.833 80.247 172.46C80.2604 172.073 80.2804 171.667 80.307 171.24C80.347 170.813 80.407 170.5 80.487 170.3C80.5804 170.1 80.6937 169.9 80.827 169.7C80.9737 169.487 81.1604 169.34 81.387 169.26C81.8804 169.087 82.5137 169 83.287 169H83.327ZM100.029 169H102.749C104.203 169 104.929 169.713 104.929 171.14V179H102.649C102.436 179 102.263 178.927 102.129 178.78C101.996 178.633 101.929 178.44 101.929 178.2V171.1C101.929 170.887 101.876 170.733 101.769 170.64C101.676 170.547 101.456 170.5 101.109 170.5H100.029V169ZM91.1092 169H92.3292C92.9159 169 93.3559 169.147 93.6492 169.44C93.9559 169.72 94.1092 170.087 94.1092 170.54V179H91.8292C91.6159 179 91.4426 178.927 91.3092 178.78C91.1759 178.633 91.1092 178.44 91.1092 178.2V169ZM94.6092 169H97.3292C98.7826 169 99.5092 169.713 99.5092 171.14V179H97.2292C97.0159 179 96.8426 178.927 96.7092 178.78C96.5759 178.633 96.5092 178.44 96.5092 178.2V171.1C96.5092 170.887 96.4559 170.733 96.3492 170.64C96.2559 170.547 96.0359 170.5 95.6892 170.5H94.6092V169ZM112.063 170.5H110.983C110.57 170.5 110.336 170.573 110.283 170.72C110.203 170.893 110.163 171.14 110.163 171.46V176.54C110.163 176.567 110.163 176.647 110.163 176.78C110.163 176.913 110.176 177.027 110.203 177.12C110.256 177.373 110.516 177.5 110.983 177.5H112.063V179H110.123C109.616 179 109.203 178.98 108.883 178.94C108.563 178.887 108.283 178.78 108.043 178.62C107.803 178.46 107.623 178.287 107.503 178.1C107.383 177.9 107.283 177.587 107.203 177.16C107.11 176.56 107.063 175.72 107.063 174.64C107.063 173.56 107.07 172.833 107.083 172.46C107.096 172.073 107.116 171.667 107.143 171.24C107.183 170.813 107.243 170.5 107.323 170.3C107.416 170.1 107.53 169.9 107.663 169.7C107.81 169.487 107.996 169.34 108.223 169.26C108.716 169.087 109.35 169 110.123 169H112.063V170.5ZM116.563 178.86C116.563 178.953 116.536 179 116.483 179H114.843C114.096 179 113.543 178.827 113.183 178.48C112.836 178.133 112.663 177.567 112.663 176.78V169H113.483C114.323 169 114.896 169.2 115.203 169.6C115.51 169.987 115.663 170.5 115.663 171.14V176.74C115.663 177.153 115.75 177.387 115.923 177.44C116.016 177.48 116.143 177.5 116.303 177.5H116.403C116.51 177.5 116.563 177.547 116.563 177.64V178.86ZM118.14 169.02H119.36C119.947 169.02 120.387 169.167 120.68 169.46C120.987 169.74 121.14 170.107 121.14 170.56V179H118.86C118.647 179 118.474 178.927 118.34 178.78C118.207 178.633 118.14 178.44 118.14 178.2V169.02ZM118.28 164.76C118.427 164.613 118.854 164.54 119.56 164.54C120.267 164.54 120.694 164.613 120.84 164.76C120.987 164.893 121.06 165.293 121.06 165.96C121.06 166.627 120.98 167.033 120.82 167.18C120.674 167.327 120.254 167.4 119.56 167.4C118.867 167.4 118.44 167.327 118.28 167.18C118.134 167.033 118.06 166.627 118.06 165.96C118.06 165.293 118.134 164.893 118.28 164.76ZM126.933 169H129.733C131.187 169 131.913 169.713 131.913 171.14V179H129.633C129.42 179 129.247 178.927 129.113 178.78C128.98 178.633 128.913 178.44 128.913 178.2V171.1C128.913 170.887 128.86 170.733 128.753 170.64C128.66 170.547 128.44 170.5 128.093 170.5H126.933V169ZM123.433 169H124.653C125.24 169 125.68 169.147 125.973 169.44C126.28 169.72 126.433 170.087 126.433 170.54V179H124.153C123.94 179 123.767 178.927 123.633 178.78C123.5 178.633 123.433 178.44 123.433 178.2V169Z" fill="white"/>
</svg>
