<svg width="186" height="184" viewBox="0 0 186 184" fill="none" xmlns="http://www.w3.org/2000/svg">
<path d="M141.86 0.295998H145.556C146.836 0.295998 147.892 0.391998 148.724 0.584C149.588 0.775999 150.324 1.16 150.932 1.736C151.572 2.312 152.052 2.968 152.372 3.704C152.724 4.408 152.996 5.496 153.188 6.968C153.476 9.176 153.62 12.712 153.62 17.576V17.72C153.62 25.048 153.252 29.592 152.516 31.352C151.78 33.208 150.724 34.328 149.348 34.712C148.612 34.904 147.7 35 146.612 35H141.86V30.44H143.492C144.324 30.44 144.852 30.328 145.076 30.104C145.332 29.88 145.46 29.528 145.46 29.048V6.248C145.46 5.768 145.332 5.416 145.076 5.192C144.852 4.968 144.324 4.856 143.492 4.856H141.86V0.295998ZM139.94 4.856H138.308C137.476 4.856 136.932 4.968 136.676 5.192C136.452 5.416 136.34 5.768 136.34 6.248V29.048C136.34 29.528 136.452 29.88 136.676 30.104C136.932 30.328 137.476 30.44 138.308 30.44H139.94V35H135.188C132.788 35 131.044 34.264 129.956 32.792C129.06 31.608 128.516 28.888 128.324 24.632C128.228 22.968 128.18 20.664 128.18 17.72V17.576C128.18 10.056 128.58 5.432 129.38 3.704C129.732 2.968 130.212 2.312 130.82 1.736C131.46 1.16 132.196 0.775999 133.028 0.584C133.892 0.391998 134.964 0.295998 136.244 0.295998H139.94V4.856ZM174.944 0.295998H179.024C180.336 0.295998 181.264 0.583998 181.808 1.16C182.352 1.704 182.624 2.664 182.624 4.04V12.824C182.624 14.296 182.24 15.4 181.472 16.136C182.272 16.84 182.672 18.104 182.672 19.928V30.872C182.672 32.664 182.416 33.8 181.904 34.28C181.392 34.76 180.288 35 178.592 35H174.992V21.08C174.992 20.568 174.912 20.216 174.752 20.024C174.624 19.8 174.272 19.688 173.696 19.688H168.512V15.128H172.064L173.648 15.08C174.384 15.08 174.8 14.92 174.896 14.6C174.928 14.504 174.944 14.36 174.944 14.168V0.295998ZM173.072 4.856H168.512C167.84 4.856 167.424 4.968 167.264 5.192C167.104 5.384 167.024 5.752 167.024 6.296V11.624H161.744C160.56 11.624 159.856 11.528 159.632 11.336C159.44 11.144 159.344 10.552 159.344 9.56V5.432C159.344 3.672 159.6 2.376 160.112 1.544C160.656 0.711998 161.824 0.295998 163.616 0.295998H173.072V4.856ZM167.024 23.672V29C167.024 29.544 167.104 29.928 167.264 30.152C167.424 30.344 167.84 30.44 168.512 30.44H173.072V35H163.616C161.824 35 160.656 34.584 160.112 33.752C159.6 32.92 159.344 31.624 159.344 29.864V25.736C159.344 24.744 159.44 24.152 159.632 23.96C159.856 23.768 160.56 23.672 161.744 23.672H167.024ZM29.163 107H29.123C27.803 107 26.9896 106.773 26.683 106.32C26.5363 106.107 26.4163 105.9 26.323 105.7C26.243 105.5 26.1896 105.187 26.163 104.76C26.0963 103.987 26.063 103.127 26.063 102.18C26.063 101.233 26.0696 100.553 26.083 100.14C26.0963 99.7133 26.1363 99.2867 26.203 98.86C26.283 98.42 26.383 98.1067 26.503 97.92C26.623 97.72 26.803 97.54 27.043 97.38C27.283 97.22 27.563 97.12 27.883 97.08C28.203 97.0267 28.6163 97 29.123 97H29.163V107ZM31.483 103.84C32.3763 103.84 33.0563 103.84 33.523 103.84C33.9896 103.84 34.2296 103.847 34.243 103.86C34.2563 103.86 34.2763 103.867 34.303 103.88C34.343 103.88 34.3696 103.887 34.383 103.9C34.3963 103.913 34.4096 103.933 34.423 103.96C34.4363 103.973 34.443 104 34.443 104.04C34.4696 104.133 34.483 104.207 34.483 104.26V104.86C34.483 106.287 33.7563 107 32.303 107H29.783V105.5H30.863C31.143 105.5 31.3163 105.46 31.383 105.38C31.4496 105.287 31.483 105.127 31.483 104.9V103.84ZM29.783 97H32.303C33.7563 97 34.483 97.7133 34.483 99.14V100.5C33.5896 100.5 32.9096 100.5 32.443 100.5C31.9763 100.5 31.7363 100.5 31.723 100.5C31.7096 100.487 31.683 100.48 31.643 100.48C31.6163 100.467 31.5963 100.453 31.583 100.44C31.5696 100.427 31.5563 100.413 31.543 100.4C31.5296 100.373 31.523 100.347 31.523 100.32C31.4963 100.213 31.483 100.133 31.483 100.08V99.1C31.483 98.8733 31.4496 98.72 31.383 98.64C31.3163 98.5467 31.143 98.5 30.863 98.5H29.783V97ZM38.6359 97H41.0359C41.1159 97 41.1559 97.0467 41.1559 97.14V98.36C41.1559 98.4533 41.1026 98.5 40.9959 98.5H40.0959C39.7759 98.5 39.5893 98.56 39.5359 98.68C39.4826 98.8533 39.4559 99.0467 39.4559 99.26V105.46C39.4559 105.913 39.3026 106.287 38.9959 106.58C38.7026 106.86 38.2626 107 37.6759 107H36.4559V99.22C36.4559 98.4333 36.6293 97.8667 36.9759 97.52C37.3359 97.1733 37.8893 97 38.6359 97ZM45.6473 107H45.6073C44.2873 107 43.474 106.773 43.1673 106.32C43.0207 106.107 42.9007 105.9 42.8073 105.7C42.7273 105.5 42.674 105.187 42.6473 104.76C42.5807 103.987 42.5473 103.127 42.5473 102.18C42.5473 101.233 42.554 100.553 42.5673 100.14C42.5807 99.7133 42.6207 99.2867 42.6873 98.86C42.7673 98.42 42.8673 98.1067 42.9873 97.92C43.1073 97.72 43.2873 97.54 43.5273 97.38C43.7673 97.22 44.0473 97.12 44.3673 97.08C44.6873 97.0267 45.1007 97 45.6073 97H45.6473V107ZM50.9673 103.84V104.86C50.9673 106.287 50.2407 107 48.7873 107H46.2673V105.5H47.3473C47.6273 105.5 47.8007 105.46 47.8673 105.38C47.934 105.287 47.9673 105.127 47.9673 104.9V104.26C47.9673 104.06 47.9873 103.947 48.0273 103.92C48.0807 103.893 48.114 103.88 48.1273 103.88C48.1407 103.867 48.174 103.86 48.2273 103.86C48.294 103.847 48.3407 103.84 48.3673 103.84C49.234 103.84 50.1007 103.84 50.9673 103.84ZM46.2673 97H48.5873C49.5073 97 50.134 97.18 50.4673 97.54C50.8007 97.9 50.9673 98.4333 50.9673 99.14V100.9C50.9673 102.1 50.314 102.7 49.0073 102.7H46.0673V101.2H47.1473C47.4673 101.2 47.6807 101.16 47.7873 101.08C47.9073 101 47.9673 100.847 47.9673 100.62V99.1C47.9673 98.8733 47.934 98.72 47.8673 98.64C47.8007 98.5467 47.6273 98.5 47.3473 98.5H46.2673V97ZM57.938 98.5H56.858C56.4446 98.5 56.2113 98.5733 56.158 98.72C56.078 98.8933 56.038 99.14 56.038 99.46V104.54C56.038 104.567 56.038 104.647 56.038 104.78C56.038 104.913 56.0513 105.027 56.078 105.12C56.1313 105.373 56.3913 105.5 56.858 105.5H57.938V107H55.998C55.4913 107 55.078 106.98 54.758 106.94C54.438 106.887 54.158 106.78 53.918 106.62C53.678 106.46 53.498 106.287 53.378 106.1C53.258 105.9 53.158 105.587 53.078 105.16C52.9846 104.56 52.938 103.72 52.938 102.64C52.938 101.56 52.9446 100.833 52.958 100.46C52.9713 100.073 52.9913 99.6667 53.018 99.24C53.058 98.8133 53.118 98.5 53.198 98.3C53.2913 98.1 53.4046 97.9 53.538 97.7C53.6846 97.4867 53.8713 97.34 54.098 97.26C54.5913 97.0867 55.2246 97 55.998 97H57.938V98.5ZM62.438 106.86C62.438 106.953 62.4113 107 62.358 107H60.718C59.9713 107 59.418 106.827 59.058 106.48C58.7113 106.133 58.538 105.567 58.538 104.78V97H59.358C60.198 97 60.7713 97.2 61.078 97.6C61.3846 97.9867 61.538 98.5 61.538 99.14V104.74C61.538 105.153 61.6246 105.387 61.798 105.44C61.8913 105.48 62.018 105.5 62.178 105.5H62.278C62.3846 105.5 62.438 105.547 62.438 105.64V106.86ZM69.0955 106.84C69.0955 106.92 69.0555 106.973 68.9755 107H67.4555C66.4821 107 65.7755 106.807 65.3355 106.42C64.8955 106.033 64.6755 105.353 64.6755 104.38V98.54H63.6555C63.3221 98.54 63.1555 98.34 63.1555 97.94V97H64.6755V92.54H65.8955C66.4821 92.54 66.9221 92.6867 67.2155 92.98C67.5221 93.2733 67.6755 93.6467 67.6755 94.1V104.74C67.6755 105.233 67.9555 105.48 68.5155 105.48H68.9355C69.0421 105.48 69.0955 105.527 69.0955 105.62V106.84ZM69.7155 97V97.94C69.7155 98.34 69.5488 98.54 69.2155 98.54H68.1755V97H69.7155ZM71.0272 97.02H72.2472C72.8339 97.02 73.2739 97.1667 73.5672 97.46C73.8739 97.74 74.0272 98.1067 74.0272 98.56V107H71.7472C71.5339 107 71.3605 106.927 71.2272 106.78C71.0939 106.633 71.0272 106.44 71.0272 106.2V97.02ZM71.1672 92.76C71.3139 92.6133 71.7405 92.54 72.4472 92.54C73.1539 92.54 73.5805 92.6133 73.7272 92.76C73.8739 92.8933 73.9472 93.2933 73.9472 93.96C73.9472 94.6267 73.8672 95.0333 73.7072 95.18C73.5605 95.3267 73.1405 95.4 72.4472 95.4C71.7539 95.4 71.3272 95.3267 71.1672 95.18C71.0205 95.0333 70.9472 94.6267 70.9472 93.96C70.9472 93.2933 71.0205 92.8933 71.1672 92.76ZM79.8202 97H82.6202C84.0735 97 84.8002 97.7133 84.8002 99.14V107H82.5202C82.3068 107 82.1335 106.927 82.0002 106.78C81.8668 106.633 81.8002 106.44 81.8002 106.2V99.1C81.8002 98.8867 81.7468 98.7333 81.6402 98.64C81.5468 98.5467 81.3268 98.5 80.9802 98.5H79.8202V97ZM76.3202 97H77.5402C78.1268 97 78.5668 97.1467 78.8602 97.44C79.1668 97.72 79.3202 98.0867 79.3202 98.54V107H77.0402C76.8268 107 76.6535 106.927 76.5202 106.78C76.3868 106.633 76.3202 106.44 76.3202 106.2V97ZM91.9419 98.5H90.8619C90.5152 98.5 90.2885 98.5467 90.1819 98.64C90.0885 98.7333 90.0419 98.8867 90.0419 99.1V104.92C90.0419 105.12 90.0885 105.267 90.1819 105.36C90.2885 105.453 90.5152 105.5 90.8619 105.5H91.9419V107H90.0019C89.4952 107 89.0819 106.98 88.7619 106.94C88.4419 106.887 88.1619 106.78 87.9219 106.62C87.6819 106.46 87.5019 106.287 87.3819 106.1C87.2619 105.9 87.1619 105.587 87.0819 105.16C86.9885 104.56 86.9419 103.72 86.9419 102.64C86.9419 101.56 86.9485 100.833 86.9619 100.46C86.9752 100.073 86.9952 99.6667 87.0219 99.24C87.0619 98.8133 87.1219 98.5 87.2019 98.3C87.2952 98.1 87.4085 97.9 87.5419 97.7C87.6885 97.4867 87.8752 97.34 88.1019 97.26C88.5952 97.0867 89.2285 97 90.0019 97H91.9419V98.5ZM90.2419 108.28V109.34C90.2419 109.567 90.2752 109.72 90.3419 109.8C90.4085 109.893 90.5819 109.94 90.8619 109.94H91.9419V111.44H89.4219C87.9685 111.44 87.2419 110.727 87.2419 109.3V108.7C87.2419 108.5 87.2619 108.387 87.3019 108.36C87.3552 108.333 87.3885 108.313 87.4019 108.3C87.4152 108.3 87.4485 108.293 87.5019 108.28C87.5685 108.28 87.6152 108.28 87.6419 108.28C88.5085 108.28 89.3752 108.28 90.2419 108.28ZM92.5419 97H93.7619C94.3485 97 94.7885 97.1467 95.0819 97.44C95.3885 97.72 95.5419 98.0867 95.5419 98.54V109.92C95.5419 110.373 95.3885 110.74 95.0819 111.02C94.7885 111.313 94.3485 111.46 93.7619 111.46H92.5419V97ZM106.825 98.5H105.745C105.331 98.5 105.098 98.5733 105.045 98.72C104.965 98.8933 104.925 99.14 104.925 99.46V104.54C104.925 104.567 104.925 104.647 104.925 104.78C104.925 104.913 104.938 105.027 104.965 105.12C105.018 105.373 105.278 105.5 105.745 105.5H106.825V107H104.885C104.378 107 103.965 106.98 103.645 106.94C103.325 106.887 103.045 106.78 102.805 106.62C102.565 106.46 102.385 106.287 102.265 106.1C102.145 105.9 102.045 105.587 101.965 105.16C101.871 104.56 101.825 103.72 101.825 102.64C101.825 101.56 101.831 100.833 101.845 100.46C101.858 100.073 101.878 99.6667 101.905 99.24C101.945 98.8133 102.005 98.5 102.085 98.3C102.178 98.1 102.291 97.9 102.425 97.7C102.571 97.4867 102.758 97.34 102.985 97.26C103.478 97.0867 104.111 97 104.885 97H106.825V98.5ZM111.325 106.86C111.325 106.953 111.298 107 111.245 107H109.605C108.858 107 108.305 106.827 107.945 106.48C107.598 106.133 107.425 105.567 107.425 104.78V97H108.245C109.085 97 109.658 97.2 109.965 97.6C110.271 97.9867 110.425 98.5 110.425 99.14V104.74C110.425 105.153 110.511 105.387 110.685 105.44C110.778 105.48 110.905 105.5 111.065 105.5H111.165C111.271 105.5 111.325 105.547 111.325 105.64V106.86ZM122.403 97H124.683C124.897 97 125.07 97.0733 125.203 97.22C125.337 97.3667 125.403 97.56 125.403 97.8V104.9C125.403 105.113 125.45 105.267 125.543 105.36C125.65 105.453 125.877 105.5 126.223 105.5H127.303V107H124.583C123.13 107 122.403 106.287 122.403 104.86V97ZM116.983 97H119.263C119.477 97 119.65 97.0733 119.783 97.22C119.917 97.3667 119.983 97.56 119.983 97.8V104.9C119.983 105.113 120.03 105.267 120.123 105.36C120.23 105.453 120.457 105.5 120.803 105.5H121.883V107H119.163C117.71 107 116.983 106.287 116.983 104.86V97ZM127.903 97H130.183C130.397 97 130.57 97.0733 130.703 97.22C130.837 97.3667 130.903 97.56 130.903 97.8V105.46C130.903 105.913 130.75 106.287 130.443 106.58C130.15 106.86 129.71 107 129.123 107H127.903V97ZM136.136 107H136.096C134.776 107 133.962 106.773 133.656 106.32C133.509 106.107 133.389 105.9 133.296 105.7C133.216 105.5 133.162 105.187 133.136 104.76C133.069 103.987 133.036 103.127 133.036 102.18C133.036 101.233 133.042 100.553 133.056 100.14C133.069 99.7133 133.109 99.2867 133.176 98.86C133.256 98.42 133.356 98.1067 133.476 97.92C133.596 97.72 133.776 97.54 134.016 97.38C134.256 97.22 134.536 97.12 134.856 97.08C135.176 97.0267 135.589 97 136.096 97H136.136V107ZM141.456 103.84V104.86C141.456 106.287 140.729 107 139.276 107H136.756V105.5H137.836C138.116 105.5 138.289 105.46 138.356 105.38C138.422 105.287 138.456 105.127 138.456 104.9V104.26C138.456 104.06 138.476 103.947 138.516 103.92C138.569 103.893 138.602 103.88 138.616 103.88C138.629 103.867 138.662 103.86 138.716 103.86C138.782 103.847 138.829 103.84 138.856 103.84C139.722 103.84 140.589 103.84 141.456 103.84ZM136.756 97H139.076C139.996 97 140.622 97.18 140.956 97.54C141.289 97.9 141.456 98.4333 141.456 99.14V100.9C141.456 102.1 140.802 102.7 139.496 102.7H136.556V101.2H137.636C137.956 101.2 138.169 101.16 138.276 101.08C138.396 101 138.456 100.847 138.456 100.62V99.1C138.456 98.8733 138.422 98.72 138.356 98.64C138.289 98.5467 138.116 98.5 137.836 98.5H136.756V97ZM146.546 107H145.326C144.74 107 144.293 106.86 143.986 106.58C143.693 106.287 143.546 105.913 143.546 105.46V94.08C143.546 93.6267 143.693 93.26 143.986 92.98C144.293 92.6867 144.74 92.54 145.326 92.54H146.546V107ZM147.146 97H149.086C149.593 97 150.006 97.0267 150.326 97.08C150.646 97.12 150.926 97.22 151.166 97.38C151.406 97.54 151.586 97.72 151.706 97.92C151.826 98.1067 151.926 98.4133 152.006 98.84C152.1 99.44 152.146 100.28 152.146 101.36C152.146 102.44 152.14 103.173 152.126 103.56C152.113 103.933 152.086 104.333 152.046 104.76C152.02 105.187 151.96 105.5 151.866 105.7C151.786 105.9 151.673 106.107 151.526 106.32C151.393 106.52 151.213 106.66 150.986 106.74C150.493 106.913 149.86 107 149.086 107H147.146V105.5H148.226C148.573 105.5 148.793 105.453 148.886 105.36C148.993 105.267 149.046 105.12 149.046 104.92V99.1C149.046 98.8867 148.993 98.7333 148.886 98.64C148.793 98.5467 148.573 98.5 148.226 98.5H147.146V97ZM157.068 97V100.66C157.068 100.887 157.101 101.047 157.168 101.14C157.235 101.22 157.408 101.26 157.688 101.26H158.808V102.76H156.248C154.795 102.76 154.068 102.047 154.068 100.62V99.22C154.068 98.34 154.288 97.7533 154.728 97.46C155.181 97.1533 155.961 97 157.068 97ZM157.108 103.84V104.9C157.108 105.127 157.141 105.287 157.208 105.38C157.275 105.46 157.448 105.5 157.728 105.5H158.808V107H156.288C154.835 107 154.108 106.287 154.108 104.86V104.26C154.108 104.06 154.128 103.947 154.168 103.92C154.221 103.893 154.255 103.88 154.268 103.88C154.281 103.867 154.315 103.86 154.368 103.86C154.435 103.847 154.475 103.84 154.488 103.84C155.368 103.84 156.241 103.84 157.108 103.84ZM159.408 101.26H160.228C161.681 101.26 162.408 101.973 162.408 103.4V104.78C162.408 105.66 162.181 106.253 161.728 106.56C161.288 106.853 160.515 107 159.408 107V101.26ZM157.668 97H160.188C161.641 97 162.368 97.7133 162.368 99.14V100.18C161.475 100.18 160.795 100.18 160.328 100.18C159.861 100.18 159.621 100.18 159.608 100.18C159.595 100.167 159.568 100.16 159.528 100.16C159.501 100.147 159.481 100.133 159.468 100.12C159.455 100.107 159.441 100.093 159.428 100.08C159.415 100.053 159.408 100.027 159.408 100C159.381 99.8933 159.368 99.8133 159.368 99.76V99.1C159.368 98.8733 159.335 98.72 159.268 98.64C159.201 98.5467 159.028 98.5 158.748 98.5H157.668V97ZM164.465 97.02H165.685C166.271 97.02 166.711 97.1667 167.005 97.46C167.311 97.74 167.465 98.1067 167.465 98.56V107H165.185C164.971 107 164.798 106.927 164.665 106.78C164.531 106.633 164.465 106.44 164.465 106.2V97.02ZM164.605 92.76C164.751 92.6133 165.178 92.54 165.885 92.54C166.591 92.54 167.018 92.6133 167.165 92.76C167.311 92.8933 167.385 93.2933 167.385 93.96C167.385 94.6267 167.305 95.0333 167.145 95.18C166.998 95.3267 166.578 95.4 165.885 95.4C165.191 95.4 164.765 95.3267 164.605 95.18C164.458 95.0333 164.385 94.6267 164.385 93.96C164.385 93.2933 164.458 92.8933 164.605 92.76ZM174.838 106.84C174.838 106.92 174.798 106.973 174.718 107H173.198C172.224 107 171.518 106.807 171.078 106.42C170.638 106.033 170.418 105.353 170.418 104.38V98.54H169.398C169.064 98.54 168.898 98.34 168.898 97.94V97H170.418V92.54H171.638C172.224 92.54 172.664 92.6867 172.958 92.98C173.264 93.2733 173.418 93.6467 173.418 94.1V104.74C173.418 105.233 173.698 105.48 174.258 105.48H174.678C174.784 105.48 174.838 105.527 174.838 105.62V106.84ZM175.458 97V97.94C175.458 98.34 175.291 98.54 174.958 98.54H173.918V97H175.458ZM179.729 107H179.689C178.369 107 177.556 106.773 177.249 106.32C177.103 106.107 176.983 105.9 176.889 105.7C176.809 105.5 176.756 105.187 176.729 104.76C176.663 103.987 176.629 103.127 176.629 102.18C176.629 101.233 176.636 100.553 176.649 100.14C176.663 99.7133 176.703 99.2867 176.769 98.86C176.849 98.42 176.949 98.1067 177.069 97.92C177.189 97.72 177.369 97.54 177.609 97.38C177.849 97.22 178.129 97.12 178.449 97.08C178.769 97.0267 179.183 97 179.689 97H179.729V107ZM185.049 103.84V104.86C185.049 106.287 184.323 107 182.869 107H180.349V105.5H181.429C181.709 105.5 181.883 105.46 181.949 105.38C182.016 105.287 182.049 105.127 182.049 104.9V104.26C182.049 104.06 182.069 103.947 182.109 103.92C182.163 103.893 182.196 103.88 182.209 103.88C182.223 103.867 182.256 103.86 182.309 103.86C182.376 103.847 182.423 103.84 182.449 103.84C183.316 103.84 184.183 103.84 185.049 103.84ZM180.349 97H182.669C183.589 97 184.216 97.18 184.549 97.54C184.883 97.9 185.049 98.4333 185.049 99.14V100.9C185.049 102.1 184.396 102.7 183.089 102.7H180.149V101.2H181.229C181.549 101.2 181.763 101.16 181.869 101.08C181.989 101 182.049 100.847 182.049 100.62V99.1C182.049 98.8733 182.016 98.72 181.949 98.64C181.883 98.5467 181.709 98.5 181.429 98.5H180.349V97ZM4.79969 116.54H6.71969C6.79969 116.553 6.83969 116.607 6.83969 116.7V117.92C6.83969 118.013 6.78635 118.06 6.67969 118.06H5.85969C5.29969 118.06 5.01969 118.307 5.01969 118.8V131H3.79969C3.21302 131 2.76635 130.853 2.45969 130.56C2.16635 130.267 2.01969 129.893 2.01969 129.44V122.54H0.999688C0.666354 122.54 0.499688 122.34 0.499688 121.94V121H2.01969V119.16C2.01969 118.187 2.23969 117.507 2.67969 117.12C3.11969 116.733 3.82635 116.54 4.79969 116.54ZM6.85969 121V121.94C6.85969 122.34 6.69302 122.54 6.35969 122.54H5.45969V121H6.85969ZM10.4133 121H12.8133C12.8933 121 12.9333 121.047 12.9333 121.14V122.36C12.9333 122.453 12.8799 122.5 12.7733 122.5H11.8733C11.5533 122.5 11.3666 122.56 11.3133 122.68C11.2599 122.853 11.2333 123.047 11.2333 123.26V129.46C11.2333 129.913 11.0799 130.287 10.7733 130.58C10.4799 130.86 10.0399 131 9.45328 131H8.23328V123.22C8.23328 122.433 8.40661 121.867 8.75328 121.52C9.11328 121.173 9.66661 121 10.4133 121ZM18.0247 121H19.9647C20.4714 121 20.8847 121.027 21.2047 121.08C21.5247 121.12 21.8047 121.22 22.0447 121.38C22.2847 121.54 22.4647 121.72 22.5847 121.92C22.7047 122.107 22.798 122.413 22.8647 122.84C22.9714 123.44 23.0247 124.28 23.0247 125.36C23.0247 126.44 23.018 127.173 23.0047 127.56C22.9914 127.933 22.9647 128.333 22.9247 128.76C22.898 129.187 22.838 129.5 22.7447 129.7C22.6647 129.9 22.5514 130.107 22.4047 130.32C22.2714 130.52 22.0914 130.66 21.8647 130.74C21.3714 130.913 20.738 131 19.9647 131H19.9247V123.46C19.9247 123.433 19.9247 123.353 19.9247 123.22C19.9247 123.087 19.918 122.973 19.9047 122.88C19.838 122.627 19.5714 122.5 19.1047 122.5H18.0247V121ZM17.4247 121V128.54C17.4247 128.567 17.4247 128.647 17.4247 128.78C17.4247 128.913 17.438 129.027 17.4647 129.12C17.518 129.373 17.778 129.5 18.2447 129.5H19.3247V131H17.3847C16.878 131 16.4647 130.98 16.1447 130.94C15.8247 130.887 15.5447 130.78 15.3047 130.62C15.0647 130.46 14.8847 130.287 14.7647 130.1C14.6447 129.9 14.5447 129.587 14.4647 129.16C14.3714 128.56 14.3247 127.72 14.3247 126.64C14.3247 125.56 14.3314 124.833 14.3447 124.46C14.358 124.073 14.378 123.667 14.4047 123.24C14.4447 122.813 14.5047 122.5 14.5847 122.3C14.678 122.1 14.7914 121.9 14.9247 121.7C15.0714 121.487 15.258 121.34 15.4847 121.26C15.978 121.087 16.6114 121 17.3847 121H17.4247ZM34.1269 121H36.8469C38.3002 121 39.0269 121.713 39.0269 123.14V131H36.7469C36.5335 131 36.3602 130.927 36.2269 130.78C36.0935 130.633 36.0269 130.44 36.0269 130.2V123.1C36.0269 122.887 35.9735 122.733 35.8669 122.64C35.7735 122.547 35.5535 122.5 35.2069 122.5H34.1269V121ZM25.2069 121H26.4269C27.0135 121 27.4535 121.147 27.7469 121.44C28.0535 121.72 28.2069 122.087 28.2069 122.54V131H25.9269C25.7135 131 25.5402 130.927 25.4069 130.78C25.2735 130.633 25.2069 130.44 25.2069 130.2V121ZM28.7069 121H31.4269C32.8802 121 33.6069 121.713 33.6069 123.14V131H31.3269C31.1135 131 30.9402 130.927 30.8069 130.78C30.6735 130.633 30.6069 130.44 30.6069 130.2V123.1C30.6069 122.887 30.5535 122.733 30.4469 122.64C30.3535 122.547 30.1335 122.5 29.7869 122.5H28.7069V121ZM48.1617 121V124.66C48.1617 124.887 48.1951 125.047 48.2617 125.14C48.3284 125.22 48.5017 125.26 48.7817 125.26H49.9017V126.76H47.3417C45.8884 126.76 45.1617 126.047 45.1617 124.62V123.22C45.1617 122.34 45.3817 121.753 45.8217 121.46C46.2751 121.153 47.0551 121 48.1617 121ZM48.2017 127.84V128.9C48.2017 129.127 48.2351 129.287 48.3017 129.38C48.3684 129.46 48.5417 129.5 48.8217 129.5H49.9017V131H47.3817C45.9284 131 45.2017 130.287 45.2017 128.86V128.26C45.2017 128.06 45.2217 127.947 45.2617 127.92C45.3151 127.893 45.3484 127.88 45.3617 127.88C45.3751 127.867 45.4084 127.86 45.4617 127.86C45.5284 127.847 45.5684 127.84 45.5817 127.84C46.4617 127.84 47.3351 127.84 48.2017 127.84ZM50.5017 125.26H51.3217C52.7751 125.26 53.5017 125.973 53.5017 127.4V128.78C53.5017 129.66 53.2751 130.253 52.8217 130.56C52.3817 130.853 51.6084 131 50.5017 131V125.26ZM48.7617 121H51.2817C52.7351 121 53.4617 121.713 53.4617 123.14V124.18C52.5684 124.18 51.8884 124.18 51.4217 124.18C50.9551 124.18 50.7151 124.18 50.7017 124.18C50.6884 124.167 50.6617 124.16 50.6217 124.16C50.5951 124.147 50.5751 124.133 50.5617 124.12C50.5484 124.107 50.5351 124.093 50.5217 124.08C50.5084 124.053 50.5017 124.027 50.5017 124C50.4751 123.893 50.4617 123.813 50.4617 123.76V123.1C50.4617 122.873 50.4284 122.72 50.3617 122.64C50.2951 122.547 50.1217 122.5 49.8417 122.5H48.7617V121ZM58.5184 131H58.4784C57.1584 131 56.3451 130.773 56.0384 130.32C55.8918 130.107 55.7718 129.9 55.6784 129.7C55.5984 129.5 55.5451 129.187 55.5184 128.76C55.4518 127.987 55.4184 127.127 55.4184 126.18C55.4184 125.233 55.4251 124.553 55.4384 124.14C55.4518 123.713 55.4918 123.287 55.5584 122.86C55.6384 122.42 55.7384 122.107 55.8584 121.92C55.9784 121.72 56.1584 121.54 56.3984 121.38C56.6384 121.22 56.9184 121.12 57.2384 121.08C57.5584 121.027 57.9718 121 58.4784 121H58.5184V131ZM60.8384 127.84C61.7318 127.84 62.4118 127.84 62.8784 127.84C63.3451 127.84 63.5851 127.847 63.5984 127.86C63.6118 127.86 63.6318 127.867 63.6584 127.88C63.6984 127.88 63.7251 127.887 63.7384 127.9C63.7518 127.913 63.7651 127.933 63.7784 127.96C63.7918 127.973 63.7984 128 63.7984 128.04C63.8251 128.133 63.8384 128.207 63.8384 128.26V128.86C63.8384 130.287 63.1118 131 61.6584 131H59.1384V129.5H60.2184C60.4984 129.5 60.6718 129.46 60.7384 129.38C60.8051 129.287 60.8384 129.127 60.8384 128.9V127.84ZM59.1384 121H61.6584C63.1118 121 63.8384 121.713 63.8384 123.14V124.5C62.9451 124.5 62.2651 124.5 61.7984 124.5C61.3318 124.5 61.0918 124.5 61.0784 124.5C61.0651 124.487 61.0384 124.48 60.9984 124.48C60.9718 124.467 60.9518 124.453 60.9384 124.44C60.9251 124.427 60.9118 124.413 60.8984 124.4C60.8851 124.373 60.8784 124.347 60.8784 124.32C60.8518 124.213 60.8384 124.133 60.8384 124.08V123.1C60.8384 122.873 60.8051 122.72 60.7384 122.64C60.6718 122.547 60.4984 122.5 60.2184 122.5H59.1384V121ZM67.9914 121H70.3914C70.4714 121 70.5114 121.047 70.5114 121.14V122.36C70.5114 122.453 70.4581 122.5 70.3514 122.5H69.4514C69.1314 122.5 68.9447 122.56 68.8914 122.68C68.8381 122.853 68.8114 123.047 68.8114 123.26V129.46C68.8114 129.913 68.6581 130.287 68.3514 130.58C68.0581 130.86 67.6181 131 67.0314 131H65.8114V123.22C65.8114 122.433 65.9847 121.867 66.3314 121.52C66.6914 121.173 67.2447 121 67.9914 121ZM76.9028 122.5H75.8228C75.4095 122.5 75.1761 122.573 75.1228 122.72C75.0428 122.893 75.0028 123.14 75.0028 123.46V128.54C75.0028 128.567 75.0028 128.647 75.0028 128.78C75.0028 128.913 75.0161 129.027 75.0428 129.12C75.0961 129.373 75.3561 129.5 75.8228 129.5H76.9028V131H74.9628C74.4561 131 74.0428 130.98 73.7228 130.94C73.4028 130.887 73.1228 130.78 72.8828 130.62C72.6428 130.46 72.4628 130.287 72.3428 130.1C72.2228 129.9 72.1228 129.587 72.0428 129.16C71.9495 128.56 71.9028 127.72 71.9028 126.64C71.9028 125.56 71.9095 124.833 71.9228 124.46C71.9361 124.073 71.9561 123.667 71.9828 123.24C72.0228 122.813 72.0828 122.5 72.1628 122.3C72.2561 122.1 72.3695 121.9 72.5028 121.7C72.6495 121.487 72.8361 121.34 73.0628 121.26C73.5561 121.087 74.1895 121 74.9628 121H76.9028V122.5ZM81.4028 130.86C81.4028 130.953 81.3761 131 81.3228 131H79.6828C78.9361 131 78.3828 130.827 78.0228 130.48C77.6761 130.133 77.5028 129.567 77.5028 128.78V121H78.3228C79.1628 121 79.7361 121.2 80.0428 121.6C80.3495 121.987 80.5028 122.5 80.5028 123.14V128.74C80.5028 129.153 80.5895 129.387 80.7628 129.44C80.8561 129.48 80.9828 129.5 81.1428 129.5H81.2428C81.3495 129.5 81.4028 129.547 81.4028 129.64V130.86ZM88.0603 130.84C88.0603 130.92 88.0203 130.973 87.9403 131H86.4203C85.447 131 84.7403 130.807 84.3003 130.42C83.8603 130.033 83.6403 129.353 83.6403 128.38V122.54H82.6203C82.287 122.54 82.1203 122.34 82.1203 121.94V121H83.6403V116.54H84.8603C85.447 116.54 85.887 116.687 86.1803 116.98C86.487 117.273 86.6403 117.647 86.6403 118.1V128.74C86.6403 129.233 86.9203 129.48 87.4803 129.48H87.9003C88.007 129.48 88.0603 129.527 88.0603 129.62V130.84ZM88.6803 121V121.94C88.6803 122.34 88.5136 122.54 88.1803 122.54H87.1403V121H88.6803ZM92.952 131H92.912C91.592 131 90.7787 130.773 90.472 130.32C90.3254 130.107 90.2054 129.9 90.112 129.7C90.032 129.5 89.9787 129.187 89.952 128.76C89.8854 127.987 89.852 127.127 89.852 126.18C89.852 125.233 89.8587 124.553 89.872 124.14C89.8854 123.713 89.9254 123.287 89.992 122.86C90.072 122.42 90.172 122.107 90.292 121.92C90.412 121.72 90.592 121.54 90.832 121.38C91.072 121.22 91.352 121.12 91.672 121.08C91.992 121.027 92.4054 121 92.912 121H92.952V131ZM95.272 127.84C96.1654 127.84 96.8454 127.84 97.312 127.84C97.7787 127.84 98.0187 127.847 98.032 127.86C98.0454 127.86 98.0654 127.867 98.092 127.88C98.132 127.88 98.1587 127.887 98.172 127.9C98.1854 127.913 98.1987 127.933 98.212 127.96C98.2254 127.973 98.232 128 98.232 128.04C98.2587 128.133 98.272 128.207 98.272 128.26V128.86C98.272 130.287 97.5454 131 96.092 131H93.572V129.5H94.652C94.932 129.5 95.1054 129.46 95.172 129.38C95.2387 129.287 95.272 129.127 95.272 128.9V127.84ZM93.572 121H96.092C97.5454 121 98.272 121.713 98.272 123.14V124.5C97.3787 124.5 96.6987 124.5 96.232 124.5C95.7654 124.5 95.5254 124.5 95.512 124.5C95.4987 124.487 95.472 124.48 95.432 124.48C95.4054 124.467 95.3854 124.453 95.372 124.44C95.3587 124.427 95.3454 124.413 95.332 124.4C95.3187 124.373 95.312 124.347 95.312 124.32C95.2854 124.213 95.272 124.133 95.272 124.08V123.1C95.272 122.873 95.2387 122.72 95.172 122.64C95.1054 122.547 94.932 122.5 94.652 122.5H93.572V121ZM103.785 121H106.585C108.038 121 108.765 121.713 108.765 123.14V131H106.485C106.272 131 106.098 130.927 105.965 130.78C105.832 130.633 105.765 130.44 105.765 130.2V123.1C105.765 122.887 105.712 122.733 105.605 122.64C105.512 122.547 105.292 122.5 104.945 122.5H103.785V121ZM100.285 116.54H101.505C102.092 116.54 102.532 116.687 102.825 116.98C103.132 117.26 103.285 117.627 103.285 118.08V131H101.005C100.792 131 100.618 130.927 100.485 130.78C100.352 130.633 100.285 130.44 100.285 130.2V116.54ZM114.527 134C114.527 134.16 114.433 134.24 114.247 134.24C113.74 134.24 113.233 134.24 112.727 134.24L112.287 131.04H111.207C111.1 131.04 111.033 131.027 111.007 131C110.98 130.973 110.96 130.907 110.947 130.8V128.22C110.96 128.113 110.98 128.047 111.007 128.02C111.033 127.993 111.1 127.98 111.207 127.98C112.22 127.98 113.233 127.98 114.247 127.98C114.433 127.98 114.527 128.06 114.527 128.22V134ZM122.11 121H124.39C124.604 121 124.777 121.073 124.91 121.22C125.044 121.367 125.11 121.56 125.11 121.8V128.9C125.11 129.113 125.157 129.267 125.25 129.36C125.357 129.453 125.584 129.5 125.93 129.5H127.01V131H124.29C122.837 131 122.11 130.287 122.11 128.86V121ZM116.69 121H118.97C119.184 121 119.357 121.073 119.49 121.22C119.624 121.367 119.69 121.56 119.69 121.8V128.9C119.69 129.113 119.737 129.267 119.83 129.36C119.937 129.453 120.164 129.5 120.51 129.5H121.59V131H118.87C117.417 131 116.69 130.287 116.69 128.86V121ZM127.61 121H129.89C130.104 121 130.277 121.073 130.41 121.22C130.544 121.367 130.61 121.56 130.61 121.8V129.46C130.61 129.913 130.457 130.287 130.15 130.58C129.857 130.86 129.417 131 128.83 131H127.61V121ZM136.443 121H138.383C138.889 121 139.303 121.027 139.623 121.08C139.943 121.12 140.223 121.22 140.463 121.38C140.703 121.54 140.883 121.72 141.003 121.92C141.123 122.107 141.216 122.413 141.283 122.84C141.389 123.44 141.443 124.28 141.443 125.36C141.443 126.44 141.436 127.173 141.423 127.56C141.409 127.933 141.383 128.333 141.343 128.76C141.316 129.187 141.256 129.5 141.163 129.7C141.083 129.9 140.969 130.107 140.823 130.32C140.689 130.52 140.509 130.66 140.283 130.74C139.789 130.913 139.156 131 138.383 131H138.343V123.46C138.343 123.433 138.343 123.353 138.343 123.22C138.343 123.087 138.336 122.973 138.323 122.88C138.256 122.627 137.989 122.5 137.523 122.5H136.443V121ZM135.843 121V128.54C135.843 128.567 135.843 128.647 135.843 128.78C135.843 128.913 135.856 129.027 135.883 129.12C135.936 129.373 136.196 129.5 136.663 129.5H137.743V131H135.803C135.296 131 134.883 130.98 134.563 130.94C134.243 130.887 133.963 130.78 133.723 130.62C133.483 130.46 133.303 130.287 133.183 130.1C133.063 129.9 132.963 129.587 132.883 129.16C132.789 128.56 132.743 127.72 132.743 126.64C132.743 125.56 132.749 124.833 132.763 124.46C132.776 124.073 132.796 123.667 132.823 123.24C132.863 122.813 132.923 122.5 133.003 122.3C133.096 122.1 133.209 121.9 133.343 121.7C133.489 121.487 133.676 121.34 133.903 121.26C134.396 121.087 135.029 121 135.803 121H135.843ZM145.765 121H148.165C148.245 121 148.285 121.047 148.285 121.14V122.36C148.285 122.453 148.232 122.5 148.125 122.5H147.225C146.905 122.5 146.718 122.56 146.665 122.68C146.612 122.853 146.585 123.047 146.585 123.26V129.46C146.585 129.913 146.432 130.287 146.125 130.58C145.832 130.86 145.392 131 144.805 131H143.585V123.22C143.585 122.433 143.758 121.867 144.105 121.52C144.465 121.173 145.018 121 145.765 121ZM149.816 116.54H151.036C151.623 116.54 152.063 116.687 152.356 116.98C152.663 117.26 152.816 117.627 152.816 118.08V131H150.536C150.323 131 150.15 130.927 150.016 130.78C149.883 130.633 149.816 130.44 149.816 130.2V116.54ZM155.216 126.46H157.496C157.71 126.46 157.883 126.533 158.016 126.68C158.15 126.827 158.216 127.02 158.216 127.26V131H155.936C155.723 131 155.55 130.927 155.416 130.78C155.283 130.633 155.216 130.44 155.216 130.2V126.46ZM158.016 121V123.76C158.016 125.187 157.29 125.9 155.836 125.9H153.316V124.4H154.396C154.676 124.4 154.85 124.36 154.916 124.28C154.983 124.187 155.016 124.027 155.016 123.8V121.82C155.016 121.273 155.256 121 155.736 121H158.016ZM160.344 121.02H161.564C162.15 121.02 162.59 121.167 162.884 121.46C163.19 121.74 163.344 122.107 163.344 122.56V131H161.064C160.85 131 160.677 130.927 160.544 130.78C160.41 130.633 160.344 130.44 160.344 130.2V121.02ZM160.484 116.76C160.63 116.613 161.057 116.54 161.764 116.54C162.47 116.54 162.897 116.613 163.044 116.76C163.19 116.893 163.264 117.293 163.264 117.96C163.264 118.627 163.184 119.033 163.024 119.18C162.877 119.327 162.457 119.4 161.764 119.4C161.07 119.4 160.644 119.327 160.484 119.18C160.337 119.033 160.264 118.627 160.264 117.96C160.264 117.293 160.337 116.893 160.484 116.76ZM169.137 121H171.937C173.39 121 174.117 121.713 174.117 123.14V131H171.837C171.623 131 171.45 130.927 171.317 130.78C171.183 130.633 171.117 130.44 171.117 130.2V123.1C171.117 122.887 171.063 122.733 170.957 122.64C170.863 122.547 170.643 122.5 170.297 122.5H169.137V121ZM165.637 121H166.857C167.443 121 167.883 121.147 168.177 121.44C168.483 121.72 168.637 122.087 168.637 122.54V131H166.357C166.143 131 165.97 130.927 165.837 130.78C165.703 130.633 165.637 130.44 165.637 130.2V121ZM181.258 122.5H180.178C179.832 122.5 179.605 122.547 179.498 122.64C179.405 122.733 179.358 122.887 179.358 123.1V128.92C179.358 129.12 179.405 129.267 179.498 129.36C179.605 129.453 179.832 129.5 180.178 129.5H181.258V131H179.318C178.812 131 178.398 130.98 178.078 130.94C177.758 130.887 177.478 130.78 177.238 130.62C176.998 130.46 176.818 130.287 176.698 130.1C176.578 129.9 176.478 129.587 176.398 129.16C176.305 128.56 176.258 127.72 176.258 126.64C176.258 125.56 176.265 124.833 176.278 124.46C176.292 124.073 176.312 123.667 176.338 123.24C176.378 122.813 176.438 122.5 176.518 122.3C176.612 122.1 176.725 121.9 176.858 121.7C177.005 121.487 177.192 121.34 177.418 121.26C177.912 121.087 178.545 121 179.318 121H181.258V122.5ZM179.558 132.28V133.34C179.558 133.567 179.592 133.72 179.658 133.8C179.725 133.893 179.898 133.94 180.178 133.94H181.258V135.44H178.738C177.285 135.44 176.558 134.727 176.558 133.3V132.7C176.558 132.5 176.578 132.387 176.618 132.36C176.672 132.333 176.705 132.313 176.718 132.3C176.732 132.3 176.765 132.293 176.818 132.28C176.885 132.28 176.932 132.28 176.958 132.28C177.825 132.28 178.692 132.28 179.558 132.28ZM181.858 121H183.078C183.665 121 184.105 121.147 184.398 121.44C184.705 121.72 184.858 122.087 184.858 122.54V133.92C184.858 134.373 184.705 134.74 184.398 135.02C184.105 135.313 183.665 135.46 183.078 135.46H181.858V121ZM6.59891 145H8.53891C9.04557 145 9.45891 145.027 9.77891 145.08C10.0989 145.12 10.3789 145.22 10.6189 145.38C10.8589 145.54 11.0389 145.72 11.1589 145.92C11.2789 146.107 11.3722 146.413 11.4389 146.84C11.5456 147.44 11.5989 148.28 11.5989 149.36C11.5989 150.44 11.5922 151.173 11.5789 151.56C11.5656 151.933 11.5389 152.333 11.4989 152.76C11.4722 153.187 11.4122 153.5 11.3189 153.7C11.2389 153.9 11.1256 154.107 10.9789 154.32C10.8456 154.52 10.6656 154.66 10.4389 154.74C9.94557 154.913 9.31224 155 8.53891 155H8.49891V147.46C8.49891 147.433 8.49891 147.353 8.49891 147.22C8.49891 147.087 8.49224 146.973 8.47891 146.88C8.41224 146.627 8.14557 146.5 7.67891 146.5H6.59891V145ZM5.99891 145V152.54C5.99891 152.567 5.99891 152.647 5.99891 152.78C5.99891 152.913 6.01224 153.027 6.03891 153.12C6.09224 153.373 6.35224 153.5 6.81891 153.5H7.89891V155H5.95891C5.45224 155 5.03891 154.98 4.71891 154.94C4.39891 154.887 4.11891 154.78 3.87891 154.62C3.63891 154.46 3.45891 154.287 3.33891 154.1C3.21891 153.9 3.11891 153.587 3.03891 153.16C2.94557 152.56 2.89891 151.72 2.89891 150.64C2.89891 149.56 2.90557 148.833 2.91891 148.46C2.93224 148.073 2.95224 147.667 2.97891 147.24C3.01891 146.813 3.07891 146.5 3.15891 146.3C3.25224 146.1 3.36557 145.9 3.49891 145.7C3.64557 145.487 3.83224 145.34 4.05891 145.26C4.55224 145.087 5.18557 145 5.95891 145H5.99891ZM13.7411 145H16.0211C16.2344 145 16.4078 145.073 16.5411 145.22C16.6744 145.367 16.7411 145.56 16.7411 145.8V152.9C16.7411 153.113 16.7878 153.267 16.8811 153.36C16.9878 153.453 17.2144 153.5 17.5611 153.5H18.7211V155H15.9211C14.4678 155 13.7411 154.287 13.7411 152.86V145ZM23.1211 154.86C23.1211 154.953 23.0878 155 23.0211 155H21.0011C20.4144 155 19.9678 154.86 19.6611 154.58C19.3678 154.287 19.2211 153.913 19.2211 153.46V145H21.5011C21.7144 145 21.8878 145.073 22.0211 145.22C22.1544 145.367 22.2211 145.56 22.2211 145.8V152.74C22.2211 153.153 22.3078 153.387 22.4811 153.44C22.5744 153.48 22.7011 153.5 22.8611 153.5H22.9611C23.0678 153.5 23.1211 153.547 23.1211 153.64V154.86ZM29.8181 154.84C29.8181 154.92 29.7781 154.973 29.6981 155H28.1781C27.2048 155 26.4981 154.807 26.0581 154.42C25.6181 154.033 25.3981 153.353 25.3981 152.38V146.54H24.3781C24.0448 146.54 23.8781 146.34 23.8781 145.94V145H25.3981V140.54H26.6181C27.2048 140.54 27.6448 140.687 27.9381 140.98C28.2448 141.273 28.3981 141.647 28.3981 142.1V152.74C28.3981 153.233 28.6781 153.48 29.2381 153.48H29.6581C29.7648 153.48 29.8181 153.527 29.8181 153.62V154.84ZM30.4381 145V145.94C30.4381 146.34 30.2715 146.54 29.9381 146.54H28.8981V145H30.4381ZM40.7309 146.5H39.6509C39.2376 146.5 39.0043 146.573 38.9509 146.72C38.8709 146.893 38.8309 147.14 38.8309 147.46V152.54C38.8309 152.567 38.8309 152.647 38.8309 152.78C38.8309 152.913 38.8443 153.027 38.8709 153.12C38.9243 153.373 39.1843 153.5 39.6509 153.5H40.7309V155H38.7909C38.2843 155 37.8709 154.98 37.5509 154.94C37.2309 154.887 36.9509 154.78 36.7109 154.62C36.4709 154.46 36.2909 154.287 36.1709 154.1C36.0509 153.9 35.9509 153.587 35.8709 153.16C35.7776 152.56 35.7309 151.72 35.7309 150.64C35.7309 149.56 35.7376 148.833 35.7509 148.46C35.7643 148.073 35.7843 147.667 35.8109 147.24C35.8509 146.813 35.9109 146.5 35.9909 146.3C36.0843 146.1 36.1976 145.9 36.3309 145.7C36.4776 145.487 36.6643 145.34 36.8909 145.26C37.3843 145.087 38.0176 145 38.7909 145H40.7309V146.5ZM45.2309 154.86C45.2309 154.953 45.2043 155 45.1509 155H43.5109C42.7643 155 42.2109 154.827 41.8509 154.48C41.5043 154.133 41.3309 153.567 41.3309 152.78V145H42.1509C42.9909 145 43.5643 145.2 43.8709 145.6C44.1776 145.987 44.3309 146.5 44.3309 147.14V152.74C44.3309 153.153 44.4176 153.387 44.5909 153.44C44.6843 153.48 44.8109 153.5 44.9709 153.5H45.0709C45.1776 153.5 45.2309 153.547 45.2309 153.64V154.86ZM53.8895 155H53.8495C52.5295 155 51.7162 154.773 51.4095 154.32C51.2629 154.107 51.1429 153.9 51.0495 153.7C50.9695 153.5 50.9162 153.187 50.8895 152.76C50.8229 151.987 50.7895 151.127 50.7895 150.18C50.7895 149.233 50.7962 148.553 50.8095 148.14C50.8229 147.713 50.8629 147.287 50.9295 146.86C51.0095 146.42 51.1095 146.107 51.2295 145.92C51.3495 145.72 51.5295 145.54 51.7695 145.38C52.0095 145.22 52.2895 145.12 52.6095 145.08C52.9295 145.027 53.3429 145 53.8495 145H53.8895V155ZM56.2095 151.84C57.1029 151.84 57.7829 151.84 58.2495 151.84C58.7162 151.84 58.9562 151.847 58.9695 151.86C58.9829 151.86 59.0029 151.867 59.0295 151.88C59.0695 151.88 59.0962 151.887 59.1095 151.9C59.1229 151.913 59.1362 151.933 59.1495 151.96C59.1629 151.973 59.1695 152 59.1695 152.04C59.1962 152.133 59.2095 152.207 59.2095 152.26V152.86C59.2095 154.287 58.4829 155 57.0295 155H54.5095V153.5H55.5895C55.8695 153.5 56.0429 153.46 56.1095 153.38C56.1762 153.287 56.2095 153.127 56.2095 152.9V151.84ZM54.5095 145H57.0295C58.4829 145 59.2095 145.713 59.2095 147.14V148.5C58.3162 148.5 57.6362 148.5 57.1695 148.5C56.7029 148.5 56.4629 148.5 56.4495 148.5C56.4362 148.487 56.4095 148.48 56.3695 148.48C56.3429 148.467 56.3229 148.453 56.3095 148.44C56.2962 148.427 56.2829 148.413 56.2695 148.4C56.2562 148.373 56.2495 148.347 56.2495 148.32C56.2229 148.213 56.2095 148.133 56.2095 148.08V147.1C56.2095 146.873 56.1762 146.72 56.1095 146.64C56.0429 146.547 55.8695 146.5 55.5895 146.5H54.5095V145ZM64.7825 145H66.7225C67.2292 145 67.6425 145.027 67.9625 145.08C68.2825 145.12 68.5625 145.22 68.8025 145.38C69.0425 145.54 69.2225 145.72 69.3425 145.92C69.4625 146.107 69.5558 146.413 69.6225 146.84C69.7292 147.44 69.7825 148.28 69.7825 149.36C69.7825 150.44 69.7758 151.173 69.7625 151.56C69.7492 151.933 69.7225 152.333 69.6825 152.76C69.6558 153.187 69.5958 153.5 69.5025 153.7C69.4225 153.9 69.3092 154.107 69.1625 154.32C69.0292 154.52 68.8492 154.66 68.6225 154.74C68.1292 154.913 67.4958 155 66.7225 155H66.6825V147.46C66.6825 147.433 66.6825 147.353 66.6825 147.22C66.6825 147.087 66.6758 146.973 66.6625 146.88C66.5958 146.627 66.3292 146.5 65.8625 146.5H64.7825V145ZM64.1825 145V152.54C64.1825 152.567 64.1825 152.647 64.1825 152.78C64.1825 152.913 64.1958 153.027 64.2225 153.12C64.2758 153.373 64.5358 153.5 65.0025 153.5H66.0825V155H64.1425C63.6358 155 63.2225 154.98 62.9025 154.94C62.5825 154.887 62.3025 154.78 62.0625 154.62C61.8225 154.46 61.6425 154.287 61.5225 154.1C61.4025 153.9 61.3025 153.587 61.2225 153.16C61.1292 152.56 61.0825 151.72 61.0825 150.64C61.0825 149.56 61.0892 148.833 61.1025 148.46C61.1158 148.073 61.1358 147.667 61.1625 147.24C61.2025 146.813 61.2625 146.5 61.3425 146.3C61.4358 146.1 61.5492 145.9 61.6825 145.7C61.8292 145.487 62.0158 145.34 62.2425 145.26C62.7358 145.087 63.3692 145 64.1425 145H64.1825ZM80.8847 145H83.6047C85.058 145 85.7847 145.713 85.7847 147.14V155H83.5047C83.2914 155 83.118 154.927 82.9847 154.78C82.8514 154.633 82.7847 154.44 82.7847 154.2V147.1C82.7847 146.887 82.7314 146.733 82.6247 146.64C82.5314 146.547 82.3114 146.5 81.9647 146.5H80.8847V145ZM71.9647 145H73.1847C73.7714 145 74.2114 145.147 74.5047 145.44C74.8114 145.72 74.9647 146.087 74.9647 146.54V155H72.6847C72.4714 155 72.298 154.927 72.1647 154.78C72.0314 154.633 71.9647 154.44 71.9647 154.2V145ZM75.4647 145H78.1847C79.638 145 80.3647 145.713 80.3647 147.14V155H78.0847C77.8714 155 77.698 154.927 77.5647 154.78C77.4314 154.633 77.3647 154.44 77.3647 154.2V147.1C77.3647 146.887 77.3114 146.733 77.2047 146.64C77.1114 146.547 76.8914 146.5 76.5447 146.5H75.4647V145ZM91.6384 145H93.5784C94.8984 145 95.7118 145.227 96.0184 145.68C96.1651 145.893 96.2784 146.1 96.3584 146.3C96.4518 146.5 96.5118 146.813 96.5384 147.24C96.6051 148.013 96.6384 148.873 96.6384 149.82C96.6384 150.767 96.6318 151.453 96.6184 151.88C96.6051 152.293 96.5584 152.72 96.4784 153.16C96.4118 153.587 96.3184 153.9 96.1984 154.1C96.0784 154.287 95.8984 154.46 95.6584 154.62C95.4184 154.78 95.1384 154.887 94.8184 154.94C94.4984 154.98 94.0851 155 93.5784 155H91.6384V153.5H92.7184C93.0651 153.5 93.2851 153.453 93.3784 153.36C93.4851 153.267 93.5384 153.12 93.5384 152.92V147.1C93.5384 146.887 93.4851 146.733 93.3784 146.64C93.2851 146.547 93.0651 146.5 92.7184 146.5H91.6384V145ZM91.0384 159.46H89.8184C89.2318 159.46 88.7851 159.313 88.4784 159.02C88.1851 158.74 88.0384 158.373 88.0384 157.92V146.54C88.0384 146.087 88.1851 145.72 88.4784 145.44C88.7851 145.147 89.2318 145 89.8184 145H91.0384V159.46ZM103.08 154.86C103.08 154.953 103.047 155 102.98 155H100.96C100.213 155 99.6602 154.827 99.3002 154.48C98.9535 154.133 98.7802 153.567 98.7802 152.78V140.56H100C100.587 140.56 101.027 140.707 101.32 141C101.627 141.28 101.78 141.647 101.78 142.1V152.74C101.78 153.153 101.867 153.387 102.04 153.44C102.133 153.48 102.26 153.5 102.42 153.5H102.92C103.027 153.5 103.08 153.547 103.08 153.64V154.86ZM107.425 155H107.385C106.065 155 105.251 154.773 104.945 154.32C104.798 154.107 104.678 153.9 104.585 153.7C104.505 153.5 104.451 153.187 104.425 152.76C104.358 151.987 104.325 151.127 104.325 150.18C104.325 149.233 104.331 148.553 104.345 148.14C104.358 147.713 104.398 147.287 104.465 146.86C104.545 146.42 104.645 146.107 104.765 145.92C104.885 145.72 105.065 145.54 105.305 145.38C105.545 145.22 105.825 145.12 106.145 145.08C106.465 145.027 106.878 145 107.385 145H107.425V155ZM112.745 151.84V152.86C112.745 154.287 112.018 155 110.565 155H108.045V153.5H109.125C109.405 153.5 109.578 153.46 109.645 153.38C109.711 153.287 109.745 153.127 109.745 152.9V152.26C109.745 152.06 109.765 151.947 109.805 151.92C109.858 151.893 109.891 151.88 109.905 151.88C109.918 151.867 109.951 151.86 110.005 151.86C110.071 151.847 110.118 151.84 110.145 151.84C111.011 151.84 111.878 151.84 112.745 151.84ZM108.045 145H110.365C111.285 145 111.911 145.18 112.245 145.54C112.578 145.9 112.745 146.433 112.745 147.14V148.9C112.745 150.1 112.091 150.7 110.785 150.7H107.845V149.2H108.925C109.245 149.2 109.458 149.16 109.565 149.08C109.685 149 109.745 148.847 109.745 148.62V147.1C109.745 146.873 109.711 146.72 109.645 146.64C109.578 146.547 109.405 146.5 109.125 146.5H108.045V145ZM122.735 145V147.96C122.735 148.613 122.569 149.1 122.235 149.42C121.915 149.727 121.355 149.88 120.555 149.88H119.035V148.38H119.355C119.569 148.38 119.689 148.293 119.715 148.12C119.729 148.04 119.735 147.927 119.735 147.78V145.82C119.735 145.273 119.975 145 120.455 145H122.735ZM118.435 151.78H118.115C117.902 151.78 117.782 151.867 117.755 152.04C117.742 152.12 117.735 152.233 117.735 152.38V154.18C117.735 154.727 117.495 155 117.015 155H114.735V152.2C114.735 151.547 114.895 151.067 115.215 150.76C115.549 150.44 116.115 150.28 116.915 150.28H118.435V151.78ZM119.035 150.28H120.555C121.355 150.28 121.915 150.44 122.235 150.76C122.569 151.067 122.735 151.547 122.735 152.2V155H120.455C119.975 155 119.735 154.727 119.735 154.18V152.38C119.735 152.113 119.702 151.947 119.635 151.88C119.569 151.813 119.475 151.78 119.355 151.78H119.035V150.28ZM114.735 145H117.015C117.495 145 117.735 145.273 117.735 145.82V147.78C117.735 148.047 117.769 148.213 117.835 148.28C117.902 148.347 117.995 148.38 118.115 148.38H118.435V149.88H116.915C116.115 149.88 115.549 149.727 115.215 149.42C114.895 149.1 114.735 148.613 114.735 147.96V145ZM133.915 146.5H132.835C132.488 146.5 132.261 146.547 132.155 146.64C132.061 146.733 132.015 146.887 132.015 147.1V152.92C132.015 153.12 132.061 153.267 132.155 153.36C132.261 153.453 132.488 153.5 132.835 153.5H133.915V155H131.975C130.655 155 129.841 154.773 129.535 154.32C129.388 154.107 129.268 153.9 129.175 153.7C129.095 153.5 129.041 153.187 129.015 152.76C128.948 151.987 128.915 151.127 128.915 150.18C128.915 149.233 128.921 148.553 128.935 148.14C128.948 147.713 128.988 147.287 129.055 146.86C129.135 146.42 129.235 146.107 129.355 145.92C129.475 145.72 129.655 145.54 129.895 145.38C130.135 145.22 130.415 145.12 130.735 145.08C131.055 145.027 131.468 145 131.975 145H133.915V146.5ZM134.515 140.54H135.735C136.321 140.54 136.761 140.687 137.055 140.98C137.361 141.26 137.515 141.627 137.515 142.08V153.46C137.515 153.913 137.361 154.287 137.055 154.58C136.761 154.86 136.321 155 135.735 155H134.515V140.54ZM142.776 155H142.736C141.416 155 140.603 154.773 140.296 154.32C140.15 154.107 140.03 153.9 139.936 153.7C139.856 153.5 139.803 153.187 139.776 152.76C139.71 151.987 139.676 151.127 139.676 150.18C139.676 149.233 139.683 148.553 139.696 148.14C139.71 147.713 139.75 147.287 139.816 146.86C139.896 146.42 139.996 146.107 140.116 145.92C140.236 145.72 140.416 145.54 140.656 145.38C140.896 145.22 141.176 145.12 141.496 145.08C141.816 145.027 142.23 145 142.736 145H142.776V155ZM148.096 151.84V152.86C148.096 154.287 147.37 155 145.916 155H143.396V153.5H144.476C144.756 153.5 144.93 153.46 144.996 153.38C145.063 153.287 145.096 153.127 145.096 152.9V152.26C145.096 152.06 145.116 151.947 145.156 151.92C145.21 151.893 145.243 151.88 145.256 151.88C145.27 151.867 145.303 151.86 145.356 151.86C145.423 151.847 145.47 151.84 145.496 151.84C146.363 151.84 147.23 151.84 148.096 151.84ZM143.396 145H145.716C146.636 145 147.263 145.18 147.596 145.54C147.93 145.9 148.096 146.433 148.096 147.14V148.9C148.096 150.1 147.443 150.7 146.136 150.7H143.196V149.2H144.276C144.596 149.2 144.81 149.16 144.916 149.08C145.036 149 145.096 148.847 145.096 148.62V147.1C145.096 146.873 145.063 146.72 144.996 146.64C144.93 146.547 144.756 146.5 144.476 146.5H143.396V145ZM152.947 145V148.66C152.947 148.887 152.98 149.047 153.047 149.14C153.114 149.22 153.287 149.26 153.567 149.26H154.687V150.76H152.127C150.674 150.76 149.947 150.047 149.947 148.62V147.22C149.947 146.34 150.167 145.753 150.607 145.46C151.06 145.153 151.84 145 152.947 145ZM152.987 151.84V152.9C152.987 153.127 153.02 153.287 153.087 153.38C153.154 153.46 153.327 153.5 153.607 153.5H154.687V155H152.167C150.714 155 149.987 154.287 149.987 152.86V152.26C149.987 152.06 150.007 151.947 150.047 151.92C150.1 151.893 150.134 151.88 150.147 151.88C150.16 151.867 150.194 151.86 150.247 151.86C150.314 151.847 150.354 151.84 150.367 151.84C151.247 151.84 152.12 151.84 152.987 151.84ZM155.287 149.26H156.107C157.56 149.26 158.287 149.973 158.287 151.4V152.78C158.287 153.66 158.06 154.253 157.607 154.56C157.167 154.853 156.394 155 155.287 155V149.26ZM153.547 145H156.067C157.52 145 158.247 145.713 158.247 147.14V148.18C157.354 148.18 156.674 148.18 156.207 148.18C155.74 148.18 155.5 148.18 155.487 148.18C155.474 148.167 155.447 148.16 155.407 148.16C155.38 148.147 155.36 148.133 155.347 148.12C155.334 148.107 155.32 148.093 155.307 148.08C155.294 148.053 155.287 148.027 155.287 148C155.26 147.893 155.247 147.813 155.247 147.76V147.1C155.247 146.873 155.214 146.72 155.147 146.64C155.08 146.547 154.907 146.5 154.627 146.5H153.547V145ZM160.344 145.02H161.564C162.15 145.02 162.59 145.167 162.884 145.46C163.19 145.74 163.344 146.107 163.344 146.56V155H161.064C160.85 155 160.677 154.927 160.544 154.78C160.41 154.633 160.344 154.44 160.344 154.2V145.02ZM160.484 140.76C160.63 140.613 161.057 140.54 161.764 140.54C162.47 140.54 162.897 140.613 163.044 140.76C163.19 140.893 163.264 141.293 163.264 141.96C163.264 142.627 163.184 143.033 163.024 143.18C162.877 143.327 162.457 143.4 161.764 143.4C161.07 143.4 160.644 143.327 160.484 143.18C160.337 143.033 160.264 142.627 160.264 141.96C160.264 141.293 160.337 140.893 160.484 140.76ZM170.497 146.5H169.417C169.07 146.5 168.843 146.547 168.737 146.64C168.643 146.733 168.597 146.887 168.597 147.1V152.92C168.597 153.12 168.643 153.267 168.737 153.36C168.843 153.453 169.07 153.5 169.417 153.5H170.497V155H168.557C168.05 155 167.637 154.98 167.317 154.94C166.997 154.887 166.717 154.78 166.477 154.62C166.237 154.46 166.057 154.287 165.937 154.1C165.817 153.9 165.717 153.587 165.637 153.16C165.543 152.56 165.497 151.72 165.497 150.64C165.497 149.56 165.503 148.833 165.517 148.46C165.53 148.073 165.55 147.667 165.577 147.24C165.617 146.813 165.677 146.5 165.757 146.3C165.85 146.1 165.963 145.9 166.097 145.7C166.243 145.487 166.43 145.34 166.657 145.26C167.15 145.087 167.783 145 168.557 145H170.497V146.5ZM168.797 156.28V157.34C168.797 157.567 168.83 157.72 168.897 157.8C168.963 157.893 169.137 157.94 169.417 157.94H170.497V159.44H167.977C166.523 159.44 165.797 158.727 165.797 157.3V156.7C165.797 156.5 165.817 156.387 165.857 156.36C165.91 156.333 165.943 156.313 165.957 156.3C165.97 156.3 166.003 156.293 166.057 156.28C166.123 156.28 166.17 156.28 166.197 156.28C167.063 156.28 167.93 156.28 168.797 156.28ZM171.097 145H172.317C172.903 145 173.343 145.147 173.637 145.44C173.943 145.72 174.097 146.087 174.097 146.54V157.92C174.097 158.373 173.943 158.74 173.637 159.02C173.343 159.313 172.903 159.46 172.317 159.46H171.097V145ZM179.898 145H182.698C184.152 145 184.878 145.713 184.878 147.14V155H182.598C182.385 155 182.212 154.927 182.078 154.78C181.945 154.633 181.878 154.44 181.878 154.2V147.1C181.878 146.887 181.825 146.733 181.718 146.64C181.625 146.547 181.405 146.5 181.058 146.5H179.898V145ZM176.398 145H177.618C178.205 145 178.645 145.147 178.938 145.44C179.245 145.72 179.398 146.087 179.398 146.54V155H177.118C176.905 155 176.732 154.927 176.598 154.78C176.465 154.633 176.398 154.44 176.398 154.2V145ZM43.27 170.5H42.19C41.7767 170.5 41.5433 170.573 41.49 170.72C41.41 170.893 41.37 171.14 41.37 171.46V176.54C41.37 176.567 41.37 176.647 41.37 176.78C41.37 176.913 41.3833 177.027 41.41 177.12C41.4633 177.373 41.7233 177.5 42.19 177.5H43.27V179H41.33C40.8233 179 40.41 178.98 40.09 178.94C39.77 178.887 39.49 178.78 39.25 178.62C39.01 178.46 38.83 178.287 38.71 178.1C38.59 177.9 38.49 177.587 38.41 177.16C38.3167 176.56 38.27 175.72 38.27 174.64C38.27 173.56 38.2767 172.833 38.29 172.46C38.3033 172.073 38.3233 171.667 38.35 171.24C38.39 170.813 38.45 170.5 38.53 170.3C38.6233 170.1 38.7367 169.9 38.87 169.7C39.0167 169.487 39.2033 169.34 39.43 169.26C39.9233 169.087 40.5567 169 41.33 169H43.27V170.5ZM47.77 178.86C47.77 178.953 47.7433 179 47.69 179H46.05C45.3033 179 44.75 178.827 44.39 178.48C44.0433 178.133 43.87 177.567 43.87 176.78V169H44.69C45.53 169 46.1033 169.2 46.41 169.6C46.7167 169.987 46.87 170.5 46.87 171.14V176.74C46.87 177.153 46.9567 177.387 47.13 177.44C47.2233 177.48 47.35 177.5 47.51 177.5H47.61C47.7167 177.5 47.77 177.547 47.77 177.64V178.86ZM52.8475 169H55.6475C57.1008 169 57.8275 169.713 57.8275 171.14V179H55.5475C55.3342 179 55.1608 178.927 55.0275 178.78C54.8942 178.633 54.8275 178.44 54.8275 178.2V171.1C54.8275 170.887 54.7742 170.733 54.6675 170.64C54.5742 170.547 54.3542 170.5 54.0075 170.5H52.8475V169ZM49.3475 169H50.5675C51.1542 169 51.5942 169.147 51.8875 169.44C52.1942 169.72 52.3475 170.087 52.3475 170.54V179H50.0675C49.8542 179 49.6808 178.927 49.5475 178.78C49.4142 178.633 49.3475 178.44 49.3475 178.2V169ZM64.9692 170.5H63.8892C63.5426 170.5 63.3159 170.547 63.2092 170.64C63.1159 170.733 63.0692 170.887 63.0692 171.1V176.92C63.0692 177.12 63.1159 177.267 63.2092 177.36C63.3159 177.453 63.5426 177.5 63.8892 177.5H64.9692V179H63.0292C61.7092 179 60.8959 178.773 60.5892 178.32C60.4426 178.107 60.3226 177.9 60.2292 177.7C60.1492 177.5 60.0959 177.187 60.0692 176.76C60.0026 175.987 59.9692 175.127 59.9692 174.18C59.9692 173.233 59.9759 172.553 59.9892 172.14C60.0026 171.713 60.0426 171.287 60.1092 170.86C60.1892 170.42 60.2892 170.107 60.4092 169.92C60.5292 169.72 60.7092 169.54 60.9492 169.38C61.1892 169.22 61.4692 169.12 61.7892 169.08C62.1092 169.027 62.5226 169 63.0292 169H64.9692V170.5ZM65.5692 164.54H66.7892C67.3759 164.54 67.8159 164.687 68.1092 164.98C68.4159 165.26 68.5692 165.627 68.5692 166.08V177.46C68.5692 177.913 68.4159 178.287 68.1092 178.58C67.8159 178.86 67.3759 179 66.7892 179H65.5692V164.54ZM78.2177 164.54H80.1377C80.2177 164.553 80.2577 164.607 80.2577 164.7V165.92C80.2577 166.013 80.2043 166.06 80.0977 166.06H79.2777C78.7177 166.06 78.4377 166.307 78.4377 166.8V179H77.2177C76.631 179 76.1843 178.853 75.8777 178.56C75.5843 178.267 75.4377 177.893 75.4377 177.44V170.54H74.4177C74.0843 170.54 73.9177 170.34 73.9177 169.94V169H75.4377V167.16C75.4377 166.187 75.6577 165.507 76.0977 165.12C76.5377 164.733 77.2443 164.54 78.2177 164.54ZM80.2777 169V169.94C80.2777 170.34 80.111 170.54 79.7777 170.54H78.8777V169H80.2777ZM81.6513 169H83.9313C84.1446 169 84.3179 169.073 84.4513 169.22C84.5846 169.367 84.6513 169.56 84.6513 169.8V176.9C84.6513 177.113 84.6979 177.267 84.7913 177.36C84.8979 177.453 85.1246 177.5 85.4713 177.5H86.6313V179H83.8313C82.3779 179 81.6513 178.287 81.6513 176.86V169ZM91.0313 178.86C91.0313 178.953 90.9979 179 90.9313 179H88.9113C88.3246 179 87.8779 178.86 87.5713 178.58C87.2779 178.287 87.1313 177.913 87.1313 177.46V169H89.4113C89.6246 169 89.7979 169.073 89.9313 169.22C90.0646 169.367 90.1313 169.56 90.1313 169.8V176.74C90.1313 177.153 90.2179 177.387 90.3913 177.44C90.4846 177.48 90.6113 177.5 90.7713 177.5H90.8713C90.9779 177.5 91.0313 177.547 91.0313 177.64V178.86ZM96.1483 169H98.9483C100.402 169 101.128 169.713 101.128 171.14V179H98.8483C98.6349 179 98.4616 178.927 98.3283 178.78C98.1949 178.633 98.1283 178.44 98.1283 178.2V171.1C98.1283 170.887 98.0749 170.733 97.9683 170.64C97.8749 170.547 97.6549 170.5 97.3083 170.5H96.1483V169ZM92.6483 169H93.8683C94.4549 169 94.8949 169.147 95.1883 169.44C95.4949 169.72 95.6483 170.087 95.6483 170.54V179H93.3683C93.1549 179 92.9816 178.927 92.8483 178.78C92.7149 178.633 92.6483 178.44 92.6483 178.2V169ZM106.37 179H106.33C105.01 179 104.197 178.773 103.89 178.32C103.743 178.107 103.623 177.9 103.53 177.7C103.45 177.5 103.397 177.187 103.37 176.76C103.303 175.987 103.27 175.127 103.27 174.18C103.27 173.233 103.277 172.553 103.29 172.14C103.303 171.713 103.343 171.287 103.41 170.86C103.49 170.42 103.59 170.107 103.71 169.92C103.83 169.72 104.01 169.54 104.25 169.38C104.49 169.22 104.77 169.12 105.09 169.08C105.41 169.027 105.823 169 106.33 169H106.37V179ZM108.69 175.84C109.583 175.84 110.263 175.84 110.73 175.84C111.197 175.84 111.437 175.847 111.45 175.86C111.463 175.86 111.483 175.867 111.51 175.88C111.55 175.88 111.577 175.887 111.59 175.9C111.603 175.913 111.617 175.933 111.63 175.96C111.643 175.973 111.65 176 111.65 176.04C111.677 176.133 111.69 176.207 111.69 176.26V176.86C111.69 178.287 110.963 179 109.51 179H106.99V177.5H108.07C108.35 177.5 108.523 177.46 108.59 177.38C108.657 177.287 108.69 177.127 108.69 176.9V175.84ZM106.99 169H109.51C110.963 169 111.69 169.713 111.69 171.14V172.5C110.797 172.5 110.117 172.5 109.65 172.5C109.183 172.5 108.943 172.5 108.93 172.5C108.917 172.487 108.89 172.48 108.85 172.48C108.823 172.467 108.803 172.453 108.79 172.44C108.777 172.427 108.763 172.413 108.75 172.4C108.737 172.373 108.73 172.347 108.73 172.32C108.703 172.213 108.69 172.133 108.69 172.08V171.1C108.69 170.873 108.657 170.72 108.59 170.64C108.523 170.547 108.35 170.5 108.07 170.5H106.99V169ZM118.783 178.84C118.783 178.92 118.743 178.973 118.663 179H117.143C116.17 179 115.463 178.807 115.023 178.42C114.583 178.033 114.363 177.353 114.363 176.38V170.54H113.343C113.01 170.54 112.843 170.34 112.843 169.94V169H114.363V164.54H115.583C116.17 164.54 116.61 164.687 116.903 164.98C117.21 165.273 117.363 165.647 117.363 166.1V176.74C117.363 177.233 117.643 177.48 118.203 177.48H118.623C118.73 177.48 118.783 177.527 118.783 177.62V178.84ZM119.403 169V169.94C119.403 170.34 119.236 170.54 118.903 170.54H117.863V169H119.403ZM120.715 169.02H121.935C122.521 169.02 122.961 169.167 123.255 169.46C123.561 169.74 123.715 170.107 123.715 170.56V179H121.435C121.221 179 121.048 178.927 120.915 178.78C120.781 178.633 120.715 178.44 120.715 178.2V169.02ZM120.855 164.76C121.001 164.613 121.428 164.54 122.135 164.54C122.841 164.54 123.268 164.613 123.415 164.76C123.561 164.893 123.635 165.293 123.635 165.96C123.635 166.627 123.555 167.033 123.395 167.18C123.248 167.327 122.828 167.4 122.135 167.4C121.441 167.4 121.015 167.327 120.855 167.18C120.708 167.033 120.635 166.627 120.635 165.96C120.635 165.293 120.708 164.893 120.855 164.76ZM129.568 169H131.508C132.014 169 132.428 169.027 132.748 169.08C133.068 169.12 133.348 169.22 133.588 169.38C133.828 169.54 134.008 169.72 134.128 169.92C134.248 170.107 134.341 170.413 134.408 170.84C134.514 171.44 134.568 172.28 134.568 173.36C134.568 174.44 134.561 175.173 134.548 175.56C134.534 175.933 134.508 176.333 134.468 176.76C134.441 177.187 134.381 177.5 134.288 177.7C134.208 177.9 134.094 178.107 133.948 178.32C133.814 178.52 133.634 178.66 133.408 178.74C132.914 178.913 132.281 179 131.508 179H131.468V171.46C131.468 171.433 131.468 171.353 131.468 171.22C131.468 171.087 131.461 170.973 131.448 170.88C131.381 170.627 131.114 170.5 130.648 170.5H129.568V169ZM128.968 169V176.54C128.968 176.567 128.968 176.647 128.968 176.78C128.968 176.913 128.981 177.027 129.008 177.12C129.061 177.373 129.321 177.5 129.788 177.5H130.868V179H128.928C128.421 179 128.008 178.98 127.688 178.94C127.368 178.887 127.088 178.78 126.848 178.62C126.608 178.46 126.428 178.287 126.308 178.1C126.188 177.9 126.088 177.587 126.008 177.16C125.914 176.56 125.868 175.72 125.868 174.64C125.868 173.56 125.874 172.833 125.888 172.46C125.901 172.073 125.921 171.667 125.948 171.24C125.988 170.813 126.048 170.5 126.128 170.3C126.221 170.1 126.334 169.9 126.468 169.7C126.614 169.487 126.801 169.34 127.028 169.26C127.521 169.087 128.154 169 128.928 169H128.968ZM140.25 169H143.05C144.503 169 145.23 169.713 145.23 171.14V179H142.95C142.737 179 142.563 178.927 142.43 178.78C142.297 178.633 142.23 178.44 142.23 178.2V171.1C142.23 170.887 142.177 170.733 142.07 170.64C141.977 170.547 141.757 170.5 141.41 170.5H140.25V169ZM136.75 169H137.97C138.557 169 138.997 169.147 139.29 169.44C139.597 169.72 139.75 170.087 139.75 170.54V179H137.47C137.257 179 137.083 178.927 136.95 178.78C136.817 178.633 136.75 178.44 136.75 178.2V169ZM152.372 170.5H151.292C150.878 170.5 150.645 170.573 150.592 170.72C150.512 170.893 150.472 171.14 150.472 171.46V176.54C150.472 176.567 150.472 176.647 150.472 176.78C150.472 176.913 150.485 177.027 150.512 177.12C150.565 177.373 150.825 177.5 151.292 177.5H152.372V179H150.432C149.925 179 149.512 178.98 149.192 178.94C148.872 178.887 148.592 178.78 148.352 178.62C148.112 178.46 147.932 178.287 147.812 178.1C147.692 177.9 147.592 177.587 147.512 177.16C147.418 176.56 147.372 175.72 147.372 174.64C147.372 173.56 147.378 172.833 147.392 172.46C147.405 172.073 147.425 171.667 147.452 171.24C147.492 170.813 147.552 170.5 147.632 170.3C147.725 170.1 147.838 169.9 147.972 169.7C148.118 169.487 148.305 169.34 148.532 169.26C149.025 169.087 149.658 169 150.432 169H152.372V170.5ZM156.872 178.86C156.872 178.953 156.845 179 156.792 179H155.152C154.405 179 153.852 178.827 153.492 178.48C153.145 178.133 152.972 177.567 152.972 176.78V169H153.792C154.632 169 155.205 169.2 155.512 169.6C155.818 169.987 155.972 170.5 155.972 171.14V176.74C155.972 177.153 156.058 177.387 156.232 177.44C156.325 177.48 156.452 177.5 156.612 177.5H156.712C156.818 177.5 156.872 177.547 156.872 177.64V178.86ZM162.709 178.86C162.709 178.953 162.676 179 162.609 179H160.589C159.842 179 159.289 178.827 158.929 178.48C158.582 178.133 158.409 177.567 158.409 176.78V164.56H159.629C160.216 164.56 160.656 164.707 160.949 165C161.256 165.28 161.409 165.647 161.409 166.1V176.74C161.409 177.153 161.496 177.387 161.669 177.44C161.762 177.48 161.889 177.5 162.049 177.5H162.549C162.656 177.5 162.709 177.547 162.709 177.64V178.86ZM164.094 169.02H165.314C165.9 169.02 166.34 169.167 166.634 169.46C166.94 169.74 167.094 170.107 167.094 170.56V179H164.814C164.6 179 164.427 178.927 164.294 178.78C164.16 178.633 164.094 178.44 164.094 178.2V169.02ZM164.234 164.76C164.38 164.613 164.807 164.54 165.514 164.54C166.22 164.54 166.647 164.613 166.794 164.76C166.94 164.893 167.014 165.293 167.014 165.96C167.014 166.627 166.934 167.033 166.774 167.18C166.627 167.327 166.207 167.4 165.514 167.4C164.82 167.4 164.394 167.327 164.234 167.18C164.087 167.033 164.014 166.627 164.014 165.96C164.014 165.293 164.087 164.893 164.234 164.76ZM174.467 178.84C174.467 178.92 174.427 178.973 174.347 179H172.827C171.853 179 171.147 178.807 170.707 178.42C170.267 178.033 170.047 177.353 170.047 176.38V170.54H169.027C168.693 170.54 168.527 170.34 168.527 169.94V169H170.047V164.54H171.267C171.853 164.54 172.293 164.687 172.587 164.98C172.893 165.273 173.047 165.647 173.047 166.1V176.74C173.047 177.233 173.327 177.48 173.887 177.48H174.307C174.413 177.48 174.467 177.527 174.467 177.62V178.84ZM175.087 169V169.94C175.087 170.34 174.92 170.54 174.587 170.54H173.547V169H175.087ZM176.358 169H178.638C178.852 169 179.025 169.073 179.158 169.22C179.292 169.367 179.358 169.56 179.358 169.8V176.9C179.358 177.113 179.405 177.267 179.498 177.36C179.605 177.453 179.832 177.5 180.178 177.5H181.258V179H178.538C177.085 179 176.358 178.287 176.358 176.86V169ZM179.558 180.28V181.34C179.558 181.567 179.592 181.72 179.658 181.8C179.725 181.893 179.898 181.94 180.178 181.94H181.258V183.44H178.738C177.285 183.44 176.558 182.727 176.558 181.3V180.7C176.558 180.5 176.578 180.387 176.618 180.36C176.672 180.333 176.705 180.313 176.718 180.3C176.732 180.3 176.765 180.293 176.818 180.28C176.885 180.28 176.932 180.28 176.958 180.28C177.825 180.28 178.692 180.28 179.558 180.28ZM181.858 169H183.078C183.665 169 184.105 169.147 184.398 169.44C184.705 169.72 184.858 170.087 184.858 170.54V181.92C184.858 182.373 184.705 182.74 184.398 183.02C184.105 183.313 183.665 183.46 183.078 183.46H181.858V169Z" fill="white"/>
</svg>
