<svg width="533" height="226" viewBox="0 0 533 226" fill="none" xmlns="http://www.w3.org/2000/svg">
<g clip-path="url(#clip0_19_33)">
<g clip-path="url(#clip1_19_33)">
<path d="M183.536 94.832L183.408 99.824L176.368 100.08C175.344 106.053 173.68 110.875 171.376 114.544C169.157 118.213 165.403 122.181 160.112 126.448C154.821 130.715 148.464 134.256 141.04 137.072C133.701 139.973 127.557 141.424 122.608 141.424C117.659 141.424 113.904 140.4 111.344 138.352C108.784 136.389 107.504 133.787 107.504 130.544C107.504 125.595 110.405 120.645 116.208 115.696C122.096 110.661 129.179 106.48 137.456 103.152C145.819 99.7387 154.096 97.4347 162.288 96.24C161.008 94.1067 159.045 92.3573 156.4 90.992C153.84 89.6267 149.445 88.0907 143.216 86.384C139.803 85.4453 138.096 83.9093 138.096 81.776C138.096 80.496 138.608 79.344 139.632 78.32C140.741 77.2107 142.533 75.9307 145.008 74.48C147.568 72.944 149.957 71.408 152.176 69.872C154.48 68.2507 156.997 66.3307 159.728 64.112C162.544 61.8933 164.891 59.5893 166.768 57.2C168.645 54.8107 169.584 52.72 169.584 50.928C169.584 47.9413 168.091 46.448 165.104 46.448C162.8 46.448 159.643 47.5573 155.632 49.776C151.707 51.9093 147.824 54.6827 143.984 58.096L138.48 75.504C134.64 87.7067 130.373 97.1787 125.68 103.92C121.072 110.661 116.677 114.032 112.496 114.032C108.059 114.032 105.84 111.301 105.84 105.84C105.84 100.379 108.485 93.424 113.776 84.976C119.067 76.4427 126.405 67.696 135.792 58.736C135.792 58.6507 136.005 57.8827 136.432 56.432C136.944 54.896 137.413 53.36 137.84 51.824C139.291 47.216 140.4 44.272 141.168 42.992L147.44 44.016C147.44 45.6373 147.099 47.5573 146.416 49.776C151.195 46.192 156.229 43.0773 161.52 40.432C166.896 37.7013 170.821 36.336 173.296 36.336C175.856 36.336 177.904 37.1467 179.44 38.768C180.976 40.304 181.744 42.608 181.744 45.68C181.744 48.6667 180.293 52.1227 177.392 56.048C174.576 59.9733 171.035 63.5147 166.768 66.672C159.003 72.4747 152.389 76.656 146.928 79.216C155.803 80.5813 162.288 82.416 166.384 84.72C170.48 86.9387 173.467 90.3093 175.344 94.832H183.536ZM121.328 97.776C127.301 88.1333 131.269 78.2347 133.232 68.08C128.624 73.1147 124.443 78.8747 120.688 85.36C116.933 91.8453 115.056 96.5387 115.056 99.44C115.056 101.232 115.653 102.128 116.848 102.128C118.128 102.128 119.621 100.677 121.328 97.776ZM151.024 125.168C155.205 122.352 158.533 119.195 161.008 115.696C163.483 112.197 164.72 108.912 164.72 105.84C164.72 104.389 164.507 102.939 164.08 101.488C151.28 103.024 140.741 106.395 132.464 111.6C124.187 116.72 120.048 121.627 120.048 126.32C120.048 128.368 120.859 129.989 122.48 131.184C124.101 132.464 126.32 133.104 129.136 133.104C136.048 133.104 143.344 130.459 151.024 125.168ZM283.375 36.464L289.135 39.28C283.418 50.4587 277.487 64.8373 271.343 82.416C275.268 82.416 277.956 82.5867 279.407 82.928L278.895 90.224C277.103 90.8213 273.604 91.12 268.399 91.12C266.607 96.0693 265.54 100.08 265.199 103.152C264.858 106.224 264.559 109.211 264.303 112.112C264.132 115.013 264.004 116.976 263.919 118H256.751C256.324 116.549 256.111 115.056 256.111 113.52C256.111 108.229 257.519 100.763 260.335 91.12C255.215 91.12 247.45 91.7173 237.039 92.912C236.612 94.2773 235.546 96.8373 233.839 100.592C232.132 104.261 230.426 107.461 228.719 110.192C227.098 112.923 224.879 115.909 222.063 119.152C219.247 122.395 216.303 125.125 213.231 127.344C204.442 133.659 195.908 136.816 187.631 136.816C184.218 136.816 181.402 135.749 179.183 133.616C176.964 131.483 175.855 128.795 175.855 125.552C175.855 117.36 180.548 109.936 189.935 103.28C199.407 96.5387 212.506 91.1627 229.231 87.152C235.546 68.72 244.42 55.5787 255.855 47.728C243.482 47.8987 233.284 49.9893 225.263 54C217.242 58.0107 213.231 63.1307 213.231 69.36C213.231 71.3227 213.53 73.0293 214.127 74.48C214.724 75.8453 216.132 78.0213 218.351 81.008L213.999 85.104C210.244 82.7147 207.386 79.8133 205.423 76.4C203.46 72.9867 202.479 69.7013 202.479 66.544C202.479 61.2533 205.295 56.3893 210.927 51.952C216.559 47.4293 223.556 43.9733 231.919 41.584C240.282 39.1093 248.772 37.872 257.391 37.872C261.743 37.872 264.73 38.2133 266.351 38.896C268.058 39.4933 268.911 40.688 268.911 42.48C268.911 44.1867 267.674 45.808 265.199 47.344C254.532 54 245.956 66.6293 239.471 85.232C244.506 84.3787 252.314 83.44 262.895 82.416C266.991 70.4693 270.276 61.6373 272.751 55.92C275.311 50.1173 278.852 43.632 283.375 36.464ZM197.871 127.984C201.028 127.984 204.698 126.576 208.879 123.76C213.146 121.029 216.687 117.445 219.503 113.008C222.404 108.485 224.879 102.299 226.927 94.448C215.578 96.3253 206.404 99.6533 199.407 104.432C192.495 109.125 189.039 114.459 189.039 120.432C189.039 122.821 189.722 124.656 191.087 125.936C192.538 127.301 194.799 127.984 197.871 127.984ZM332.27 37.59C331.93 39.5167 329.607 44.4467 325.3 52.38C311.7 76.86 304.503 97.7133 303.71 114.94L292.83 116.64C292.15 114.827 291.81 111.823 291.81 107.63C291.81 97.5433 298.383 79.1267 311.53 52.38C307.223 54.08 303.71 54.93 300.99 54.93C298.27 54.93 295.72 54.4767 293.34 53.57L297.08 44.9C298.44 45.24 299.8 45.41 301.16 45.41C304.787 45.41 308.47 44.2767 312.21 42.01C315.95 39.7433 318.84 37.1933 320.88 34.36C322.92 31.5267 324.677 30.11 326.15 30.11C327.623 30.11 329.04 30.62 330.4 31.64C331.873 32.66 332.61 33.7933 332.61 35.04C332.61 36.2867 332.497 37.1367 332.27 37.59ZM402.611 49.32C402.611 54.8733 399.608 59.86 393.601 64.28C387.708 68.7 381.758 71.8167 375.751 73.63C380.398 76.35 383.911 78.9 386.291 81.28C388.785 83.66 390.031 86.38 390.031 89.44C390.031 96.92 385.838 103.493 377.451 109.16C369.065 114.713 360.055 117.49 350.421 117.49C345.775 117.49 341.128 116.753 336.481 115.28C331.948 113.807 328.775 112.05 326.961 110.01L334.611 102.87C336.198 104.457 338.295 105.873 340.901 107.12C343.621 108.367 345.945 108.99 347.871 108.99C354.558 108.99 360.621 107.29 366.061 103.89C371.615 100.377 374.391 96.1833 374.391 91.31C374.391 88.3633 373.031 85.7567 370.311 83.49C367.591 81.2233 363.965 79.4667 359.431 78.22C356.825 77.4267 355.521 76.1233 355.521 74.31C355.521 71.8167 360.621 69.38 370.821 67C374.561 66.0933 378.018 64.62 381.191 62.58C384.365 60.4267 385.951 58.1033 385.951 55.61C385.951 53.0033 385.045 51.02 383.231 49.66C381.531 48.1867 379.378 47.45 376.771 47.45C374.165 47.45 370.141 48.8667 364.701 51.7C359.375 54.42 353.821 57.99 348.041 62.41L345.321 56.8C350.081 51.1333 356.541 46.1467 364.701 41.84C372.975 37.5333 379.605 35.38 384.591 35.38C389.578 35.38 393.828 36.7967 397.341 39.63C400.855 42.35 402.611 45.58 402.611 49.32Z" fill="#9A01D0"/>
<path d="M110 150L434.5 114L110 170L35 194.5L110 150Z" fill="#9A01D0"/>
</g>
</g>
<defs>
<clipPath id="clip0_19_33">
<rect width="195" height="417" fill="white" transform="translate(58 226) rotate(-90)"/>
</clipPath>
<clipPath id="clip1_19_33">
<rect width="195" height="417" fill="white" transform="translate(30 231) rotate(-90)"/>
</clipPath>
</defs>
</svg>
