<svg width="417" height="195" viewBox="0 0 417 195" fill="none" xmlns="http://www.w3.org/2000/svg">
<g clip-path="url(#clip0_16_25)">
<path d="M16.0229 58.9466C16.0229 56.4702 20.3301 54.456 25.626 54.456H390.902C396.198 54.456 400.505 56.4702 400.505 58.9466V136.272C400.505 138.748 396.198 140.762 390.902 140.762H25.626C20.3301 140.762 16.0229 138.748 16.0229 136.272V58.9466ZM2.29126 58.9466L2.29126 136.272C2.29126 142.299 12.7411 147.184 25.626 147.184H390.902C403.792 147.184 414.237 142.297 414.237 136.272V58.9466C414.237 52.9192 403.787 48.0347 390.902 48.0347H25.626C12.7411 48.0347 2.29126 52.9192 2.29126 58.9466Z" fill="white"/>
<path d="M11.4091 125.058C24.3351 125.058 34.9085 121.083 34.9085 116.227V78.9918C34.9085 74.1351 24.3351 70.1604 11.4091 70.1604V125.058ZM22.8887 91.4833V111.745C22.8887 112.335 21.8634 112.815 20.6001 112.815C19.3368 112.815 18.3115 112.335 18.3115 111.745V91.4833C18.3115 90.8926 19.3368 90.4131 20.6001 90.4131C21.8634 90.4131 22.8887 90.8904 22.8887 91.4833ZM23.7859 84.9636C23.7859 85.7855 22.3578 86.4533 20.6001 86.4533C18.8425 86.4533 17.4144 85.7855 17.4144 84.9636C17.4144 84.1417 18.8425 83.4738 20.6001 83.4738C22.3578 83.4738 23.7859 84.1417 23.7859 84.9636Z" fill="white"/>
<path d="M102.52 17.616H90.616C89.2507 17.616 88.568 17.9573 88.568 18.64V98H75.128C72.2267 98 70.3067 97.5733 69.368 96.72C68.5147 95.7813 68.088 93.8613 68.088 90.96V12.752C68.088 9.76533 68.5147 7.80266 69.368 6.864C70.3067 5.92533 72.2267 5.45599 75.128 5.45599H102.52V17.616ZM109.688 57.808H121.848C125.347 57.808 127.608 58.6187 128.632 60.24C129.656 61.776 130.168 64.2507 130.168 67.664V86.608C130.168 92.24 128.675 95.696 125.688 96.976C124.237 97.6587 122.403 98 120.184 98H93.688V85.968H104.44C107.939 85.968 109.688 84.7307 109.688 82.256V57.808ZM108.024 5.45599H120.184C123.597 5.45599 125.773 6.22399 126.712 7.75999C127.736 9.296 128.248 11.8133 128.248 15.312V39.888C128.248 44.8373 127.352 48.4213 125.56 50.64C123.853 52.8587 120.227 53.968 114.68 53.968H93.688V41.808H103.16C105.293 41.808 106.616 41.296 107.128 40.272C107.725 39.248 108.024 37.6693 108.024 35.536V5.45599ZM181.148 55.12H167.068V98H153.628C150.727 98 148.807 97.5307 147.868 96.592C147.015 95.6533 146.588 93.6907 146.588 90.704V5.45599H162.46C163.825 5.45599 164.935 5.92533 165.788 6.864C166.641 7.80266 167.068 9.04 167.068 10.576V42.96H181.148V55.12ZM186.268 5.45599H199.708C202.609 5.45599 204.487 5.92533 205.34 6.864C206.279 7.80266 206.748 9.76533 206.748 12.752V98H190.876C189.511 98 188.401 97.5307 187.548 96.592C186.695 95.6533 186.268 94.416 186.268 92.88V5.45599ZM242.752 5.45599H256.192C259.093 5.45599 260.971 5.92533 261.824 6.864C262.763 7.80266 263.232 9.76533 263.232 12.752V83.28H273.6C274.88 83.28 275.733 83.4507 276.16 83.792C276.587 84.1333 276.8 84.7733 276.8 85.712V98H247.36C245.995 98 244.885 97.5733 244.032 96.72C243.179 95.7813 242.752 94.544 242.752 93.008V5.45599ZM238.912 98H220.352V85.712C220.352 84.7733 220.565 84.1333 220.992 83.792C221.419 83.4507 222.272 83.28 223.552 83.28H238.912V98ZM238.912 20.176H224.832C222.699 20.176 221.632 18.9813 221.632 16.592V5.45599H238.912V20.176ZM327.893 5.45599H338.773C342.272 5.45599 344.746 6.22399 346.197 7.75999C347.648 9.21066 348.373 11.7707 348.373 15.44V38.864C348.373 42.7893 347.349 45.7333 345.301 47.696C347.434 49.5733 348.501 52.944 348.501 57.808V86.992C348.501 91.7707 347.818 94.8 346.453 96.08C345.088 97.36 342.144 98 337.621 98H328.021V60.88C328.021 59.5147 327.808 58.576 327.381 58.064C327.04 57.4667 326.101 57.168 324.565 57.168H310.741V45.008H320.213L324.437 44.88C326.4 44.88 327.509 44.4533 327.765 43.6C327.85 43.344 327.893 42.96 327.893 42.448V5.45599ZM322.901 17.616H310.741C308.949 17.616 307.84 17.9147 307.413 18.512C306.986 19.024 306.773 20.0053 306.773 21.456V35.664H292.693C289.536 35.664 287.658 35.408 287.061 34.896C286.549 34.384 286.293 32.8053 286.293 30.16V19.152C286.293 14.4587 286.976 11.0027 288.341 8.784C289.792 6.56533 292.906 5.45599 297.685 5.45599H322.901V17.616ZM306.773 67.792V82C306.773 83.4507 306.986 84.4747 307.413 85.072C307.84 85.584 308.949 85.84 310.741 85.84H322.901V98H297.685C292.906 98 289.792 96.8907 288.341 94.672C286.976 92.4533 286.293 88.9973 286.293 84.304V73.296C286.293 70.6507 286.549 69.072 287.061 68.56C287.658 68.048 289.536 67.792 292.693 67.792H306.773Z" fill="white"/>
</g>
<defs>
<clipPath id="clip0_16_25">
<rect width="195" height="417" fill="white" transform="translate(0 195) rotate(-90)"/>
</clipPath>
</defs>
</svg>
