<svg width="533" height="226" viewBox="0 0 533 226" fill="none" xmlns="http://www.w3.org/2000/svg">
<path d="M74.7317 94.9466C74.7317 92.4702 79.0389 90.456 84.3347 90.456H449.611C454.907 90.456 459.214 92.4702 459.214 94.9466V172.272C459.214 174.748 454.907 176.762 449.611 176.762H84.3347C79.0389 176.762 74.7317 174.748 74.7317 172.272V94.9466ZM61 94.9466V172.272C61 178.299 71.4498 183.184 84.3347 183.184H449.611C462.501 183.184 472.946 178.297 472.946 172.272V94.9466C472.946 88.9192 462.496 84.0347 449.611 84.0347H84.3347C71.4498 84.0347 61 88.9192 61 94.9466Z" fill="white"/>
<path d="M70.1179 161.058C83.0439 161.058 93.6173 157.083 93.6173 152.227V114.992C93.6173 110.135 83.0439 106.16 70.1179 106.16V161.058ZM81.5975 127.483V147.745C81.5975 148.335 80.5722 148.815 79.3089 148.815C78.0456 148.815 77.0203 148.335 77.0203 147.745V127.483C77.0203 126.893 78.0456 126.413 79.3089 126.413C80.5722 126.413 81.5975 126.89 81.5975 127.483ZM82.4947 120.964C82.4947 121.786 81.0666 122.453 79.3089 122.453C77.5513 122.453 76.1232 121.786 76.1232 120.964C76.1232 120.142 77.5513 119.474 79.3089 119.474C81.0666 119.474 82.4947 120.142 82.4947 120.964Z" fill="white"/>
<path d="M161.229 53.616H149.325C147.959 53.616 147.277 53.9573 147.277 54.64V134H133.837C130.935 134 129.015 133.573 128.077 132.72C127.223 131.781 126.797 129.861 126.797 126.96V48.752C126.797 45.7653 127.223 43.8027 128.077 42.864C129.015 41.9253 130.935 41.456 133.837 41.456H161.229V53.616ZM168.397 93.808H180.557C184.055 93.808 186.317 94.6187 187.341 96.24C188.365 97.776 188.877 100.251 188.877 103.664V122.608C188.877 128.24 187.383 131.696 184.397 132.976C182.946 133.659 181.111 134 178.893 134H152.397V121.968H163.149C166.647 121.968 168.397 120.731 168.397 118.256V93.808ZM166.733 41.456H178.893C182.306 41.456 184.482 42.224 185.421 43.76C186.445 45.296 186.957 47.8133 186.957 51.312V75.888C186.957 80.8373 186.061 84.4213 184.269 86.64C182.562 88.8587 178.935 89.968 173.389 89.968H152.397V77.808H161.869C164.002 77.808 165.325 77.296 165.837 76.272C166.434 75.248 166.733 73.6693 166.733 71.536V41.456ZM239.857 91.12H225.777V134H212.337C209.435 134 207.515 133.531 206.577 132.592C205.723 131.653 205.297 129.691 205.297 126.704V41.456H221.169C222.534 41.456 223.643 41.9253 224.497 42.864C225.35 43.8027 225.777 45.04 225.777 46.576V78.96H239.857V91.12ZM244.977 41.456H258.417C261.318 41.456 263.195 41.9253 264.049 42.864C264.987 43.8027 265.457 45.7653 265.457 48.752V134H249.585C248.219 134 247.11 133.531 246.257 132.592C245.403 131.653 244.977 130.416 244.977 128.88V41.456ZM301.461 41.456H314.901C317.802 41.456 319.679 41.9253 320.533 42.864C321.471 43.8027 321.941 45.7653 321.941 48.752V119.28H332.309C333.589 119.28 334.442 119.451 334.869 119.792C335.295 120.133 335.509 120.773 335.509 121.712V134H306.069C304.703 134 303.594 133.573 302.741 132.72C301.887 131.781 301.461 130.544 301.461 129.008V41.456ZM297.621 134H279.061V121.712C279.061 120.773 279.274 120.133 279.701 119.792C280.127 119.451 280.981 119.28 282.261 119.28H297.621V134ZM297.621 56.176H283.541C281.407 56.176 280.341 54.9813 280.341 52.592V41.456H297.621V56.176ZM386.602 41.456H397.482C400.98 41.456 403.455 42.224 404.906 43.76C406.356 45.2107 407.082 47.7707 407.082 51.44V74.864C407.082 78.7893 406.058 81.7333 404.01 83.696C406.143 85.5733 407.21 88.944 407.21 93.808V122.992C407.21 127.771 406.527 130.8 405.162 132.08C403.796 133.36 400.852 134 396.33 134H386.73V96.88C386.73 95.5147 386.516 94.576 386.09 94.064C385.748 93.4667 384.81 93.168 383.274 93.168H369.45V81.008H378.922L383.146 80.88C385.108 80.88 386.218 80.4533 386.474 79.6C386.559 79.344 386.602 78.96 386.602 78.448V41.456ZM381.61 53.616H369.45C367.658 53.616 366.548 53.9147 366.122 54.512C365.695 55.024 365.482 56.0053 365.482 57.456V71.664H351.402C348.244 71.664 346.367 71.408 345.77 70.896C345.258 70.384 345.002 68.8053 345.002 66.16V55.152C345.002 50.4587 345.684 47.0027 347.05 44.784C348.5 42.5653 351.615 41.456 356.394 41.456H381.61V53.616ZM365.482 103.792V118C365.482 119.451 365.695 120.475 366.122 121.072C366.548 121.584 367.658 121.84 369.45 121.84H381.61V134H356.394C351.615 134 348.5 132.891 347.05 130.672C345.684 128.453 345.002 124.997 345.002 120.304V109.296C345.002 106.651 345.258 105.072 345.77 104.56C346.367 104.048 348.244 103.792 351.402 103.792H365.482Z" fill="white"/>
</svg>
